<svg width="30" height="30" viewBox="0 0 30 30" fill="none" xmlns="http://www.w3.org/2000/svg">
<path d="M9.84375 7.5V9.375C8.55187 9.375 7.5 10.4259 7.5 11.7188H5.625C5.625 9.39281 7.51781 7.5 9.84375 7.5Z" fill="currentColor"/>
<path d="M20.1562 4.6875C18.1725 4.6875 16.3191 5.51344 15 6.94313C13.6809 5.51344 11.8275 4.6875 9.84375 4.6875C5.96625 4.6875 2.8125 7.81219 2.8125 11.7188C2.8125 20.1956 15 25.3125 15 25.3125C15 25.3125 27.1875 20.1956 27.1875 11.7188C27.1875 7.81219 24.0338 4.6875 20.1562 4.6875ZM15 23.2472C12.5419 22.0509 4.6875 17.7544 4.6875 11.7188C4.6875 8.87531 7.00031 6.5625 9.84375 6.5625C11.2969 6.5625 12.6394 7.14937 13.6219 8.21438L14.3109 8.96156H15.6891L16.3781 8.21438C17.3606 7.14937 18.7031 6.5625 20.1562 6.5625C22.9997 6.5625 25.3125 8.87531 25.3125 11.7188C25.3125 17.7544 17.4581 22.0509 15 23.2472Z" fill="currentColor"/>
</svg>
