<svg width="26" height="26" viewBox="0 0 26 26" fill="none" xmlns="http://www.w3.org/2000/svg">
<path fill-rule="evenodd" clip-rule="evenodd" d="M23.375 12.75C23.375 18.618 18.618 23.375 12.75 23.375C6.88197 23.375 2.125 18.618 2.125 12.75C2.125 6.88197 6.88197 2.125 12.75 2.125C18.618 2.125 23.375 6.88197 23.375 12.75ZM25.5 12.75C25.5 19.7917 19.7917 25.5 12.75 25.5C5.70837 25.5 0 19.7917 0 12.75C0 5.70837 5.70837 0 12.75 0C19.7917 0 25.5 5.70837 25.5 12.75ZM11.6875 14.875V7.4375H13.8125V14.875H11.6875ZM11.6875 18.0625V15.9375H13.8125V18.0625H11.6875Z" fill="currentColor"/>
</svg>
