<svg width="332" height="73" viewBox="0 0 332 73" fill="none" xmlns="http://www.w3.org/2000/svg">
<g clip-path="url(#clip0_2092_1087)">
<path d="M74.4908 37.1679V26.7416C74.4908 25.3954 74.3978 24.5319 74.2117 24.1636C74.0145 23.8068 73.5149 23.5077 72.6916 23.2897C71.4954 22.9446 70.8916 22.3458 70.8916 21.5057C70.8916 20.9068 71.1473 20.4469 71.6462 20.1363C72.1459 19.8255 72.877 19.6647 73.8409 19.6647C74.1655 19.6647 74.9552 19.6872 76.2204 19.7223H77.4283C79.6452 19.71 80.9343 19.6872 81.3168 19.6647C81.6998 19.6529 83.047 19.5374 85.3802 19.3188C86.1582 19.2385 86.8667 19.204 87.5046 19.204C89.6876 19.204 91.6378 19.6413 93.3444 20.5274C96.3166 22.0578 97.8029 24.4976 97.8029 27.8236C97.8029 30.5275 96.7575 32.691 94.6794 34.3142C92.7175 35.8328 90.3491 36.5925 87.5632 36.5925C86.8549 36.5925 85.9956 36.5464 84.9626 36.4542C84.4168 36.4199 84.0807 36.3966 83.9408 36.3966C83.5576 36.3966 83.3604 36.6153 83.3604 37.0407V37.1679L83.4998 40.4128C83.5349 41.0459 83.6508 41.5176 83.8593 41.8284C84.0564 42.1384 84.4865 42.4608 85.1252 42.795C85.9956 43.2548 86.4248 43.7616 86.4248 44.3025C86.4248 45.1309 85.7868 45.7641 84.5099 46.2123C83.2206 46.6621 81.4098 46.8922 79.0648 46.8922C74.131 46.8922 71.6697 46.0515 71.6697 44.383C71.6697 43.9802 71.7737 43.681 71.9943 43.4624C72.2037 43.2548 72.7025 42.9558 73.4806 42.553C73.9567 42.2999 74.2469 41.9432 74.328 41.4941C74.4095 41.0459 74.4556 39.6072 74.4908 37.1679ZM83.4998 24.2213V30.9654C83.4998 31.4824 83.6156 31.7821 83.8476 31.8854C84.2309 32.0812 84.7187 32.1734 85.2989 32.1734C86.1816 32.1734 86.9245 31.9319 87.528 31.437C88.3989 30.7352 88.8283 29.5609 88.8283 27.904C88.8283 26.1896 88.3177 24.9466 87.3074 24.1759C86.6687 23.6918 85.8907 23.4505 84.9855 23.4505C83.9986 23.4505 83.4998 23.7035 83.4998 24.2213ZM114.52 18.8817C117.945 18.8817 120.94 19.8599 123.495 21.8048C125.224 23.1398 126.641 24.8654 127.721 26.9952C128.776 29.1119 129.299 31.2295 129.299 33.3359C129.299 36.4542 128.254 39.2504 126.176 41.7019C124.423 43.785 122.124 45.2919 119.28 46.2014C117.527 46.7652 115.774 47.0408 114.021 47.0408C111.711 47.0408 109.505 46.5575 107.404 45.6033C104.861 44.4635 102.864 42.7262 101.425 40.3902C100.02 38.1454 99.3229 35.672 99.3229 32.9565C99.3229 29.8146 100.217 27.0413 102.017 24.6358C103.619 22.4957 105.778 20.9186 108.483 19.9176C110.294 19.2273 112.303 18.8817 114.52 18.8817ZM112.616 24.578C111.49 24.578 110.608 25.0731 109.958 26.0631C109.459 26.811 109.203 27.6854 109.203 28.6982C109.203 30.1941 109.505 31.9203 110.12 33.8763C110.735 35.8445 111.501 37.5824 112.442 39.101C112.848 39.7571 113.359 40.2754 113.974 40.654C114.578 41.0342 115.193 41.2295 115.82 41.2295C116.83 41.2295 117.655 40.8494 118.27 40.0905C118.885 39.3423 119.199 38.3531 119.199 37.1219C119.199 35.522 118.943 33.7958 118.421 31.9431C117.899 30.0902 117.225 28.5138 116.4 27.2138C115.89 26.4082 115.298 25.775 114.636 25.3034C113.974 24.8427 113.301 24.6015 112.616 24.578Z" fill="#3A3285"/>
<path d="M147.365 26.4768L146.785 25.0958C146.424 24.2907 145.983 23.7498 145.449 23.4849C144.486 22.99 144.01 22.3568 144.01 21.5863C144.01 19.8944 146.564 19.0432 151.684 19.0432C154.249 19.0432 156.189 19.2501 157.523 19.664C157.976 19.8139 158.347 20.0443 158.615 20.3549C158.881 20.6649 159.021 21.0218 159.021 21.402C159.021 21.7361 158.963 21.9774 158.835 22.1499C158.707 22.3226 158.359 22.6677 157.79 23.1743C157.454 23.4507 157.291 23.7381 157.291 24.037C157.291 24.5094 157.547 25.2682 158.046 26.3387L159.183 28.7552C159.706 29.849 160.078 30.551 160.298 30.85C160.519 31.149 160.763 31.2989 161.041 31.2989C161.354 31.2989 161.621 31.1265 161.842 30.7805C162.063 30.4354 162.341 29.7569 162.689 28.7552L163.642 25.982C163.908 25.188 164.047 24.6008 164.047 24.1987C164.047 23.6693 163.769 23.3234 163.212 23.151C162.086 22.7947 161.529 22.1499 161.529 21.2411C161.529 20.447 161.958 19.8832 162.828 19.5375C163.7 19.2041 165.116 19.0315 167.101 19.0315C168.39 19.0315 169.4 19.1696 170.131 19.4571C171.13 19.8598 171.629 20.4924 171.629 21.3669C171.629 21.7471 171.536 22.0805 171.362 22.3568C171.177 22.6331 170.816 23.0017 170.27 23.4616C169.911 23.7724 169.632 24.0947 169.435 24.4398C169.237 24.785 168.947 25.4877 168.54 26.5574L165.046 35.7751C163.293 40.0678 162.248 42.6342 161.889 43.4502C161.529 44.2676 161.146 45.0038 160.763 45.6486C160.472 46.1203 160.146 46.4545 159.787 46.6503C159.427 46.8455 158.939 46.9378 158.347 46.9378C157.547 46.9378 156.908 46.7651 156.421 46.4202C155.933 46.075 155.526 45.5113 155.189 44.7166L151.231 35.3956C151.011 34.8773 150.859 34.5555 150.754 34.4282C150.65 34.3026 150.499 34.2332 150.302 34.2332C150.023 34.2332 149.791 34.3948 149.594 34.7282C149.396 35.0616 149.014 35.9132 148.445 37.2828L145.728 43.9801C145.229 45.1998 144.741 46.0055 144.288 46.3851C143.824 46.7763 143.128 46.972 142.187 46.972C141.351 46.972 140.689 46.7763 140.202 46.3735C139.714 45.9828 139.273 45.281 138.866 44.28L131.506 25.6251C131.205 24.8546 130.996 24.4055 130.879 24.2674C130.764 24.1292 130.403 23.8989 129.811 23.5881C129.126 23.2432 128.789 22.656 128.789 21.8392C128.789 19.9746 131.123 19.0432 135.79 19.0432C138.17 19.0432 139.9 19.2041 140.968 19.5375C142.001 19.8716 142.512 20.5275 142.512 21.5058C142.512 21.8048 142.489 22.0234 142.431 22.1615C142.373 22.3108 142.187 22.6214 141.851 23.0938C141.688 23.3352 141.606 23.646 141.606 24.0262C141.606 24.6819 142.059 26.0624 142.953 28.1455L143.766 30.0444C144.115 30.8382 144.347 31.3215 144.463 31.4826C144.567 31.6558 144.73 31.7363 144.95 31.7363C145.473 31.7363 146.007 30.9998 146.552 29.5266L147.365 27.271C147.434 27.1094 147.47 26.983 147.47 26.8914C147.47 26.7878 147.434 26.6495 147.365 26.4768ZM215.954 35.1192C215.455 35.1192 215.13 35.2691 214.991 35.5683C214.852 35.8789 214.781 36.5809 214.781 37.6967C214.781 39.3775 214.885 40.6892 215.095 41.6208C215.165 41.8854 215.269 42.0931 215.397 42.243C215.524 42.3915 215.779 42.5647 216.163 42.7717C216.964 43.2096 217.359 43.7851 217.359 44.4979C217.359 45.3723 216.802 45.9946 215.687 46.3507C214.573 46.7074 212.692 46.8918 210.045 46.8918C205.111 46.8918 202.638 45.9704 202.638 44.1185C202.638 43.8077 202.707 43.5547 202.858 43.3586C203.009 43.1628 203.335 42.8988 203.857 42.553C204.449 42.1735 204.844 41.7129 205.053 41.1952C205.25 40.6776 205.401 39.7686 205.482 38.4914C205.54 37.5592 205.575 34.187 205.575 28.3984C205.575 26.5691 205.482 25.3145 205.296 24.6586C205.111 24.0027 204.716 23.5194 204.101 23.2086C203.509 22.9323 203.126 22.6793 202.929 22.449C202.731 22.2194 202.626 21.9196 202.626 21.5401C202.626 21.0568 202.812 20.6314 203.195 20.2629C203.578 19.906 204.101 19.6303 204.786 19.4571C205.354 19.3072 206.144 19.2385 207.142 19.2385C207.584 19.2385 208.687 19.3072 210.44 19.4453C210.776 19.4688 211.298 19.4804 212.018 19.4804C213.215 19.4804 214.817 19.3999 216.825 19.2385C218.091 19.1465 218.972 19.1002 219.483 19.1002C222.328 19.1002 224.684 19.7796 226.554 21.149C228.236 22.3802 229.073 24.0838 229.073 26.2582C229.073 27.478 228.782 28.5827 228.203 29.5844C227.61 30.5853 226.809 31.3327 225.776 31.8282C225.346 32.0469 225.137 32.2998 225.137 32.588C225.137 32.9674 225.462 33.2783 226.124 33.5196C227.517 34.0146 228.539 34.7741 229.2 35.7867C229.851 36.8104 230.315 38.3642 230.594 40.47C230.721 41.3449 230.895 41.9088 231.116 42.1617C231.336 42.4266 231.871 42.6685 232.695 42.9099C232.95 42.9909 233.17 43.1628 233.344 43.4165C233.519 43.6804 233.6 43.9684 233.6 44.28C233.6 44.6821 233.437 45.0968 233.125 45.5113C232.8 45.9367 232.382 46.2584 231.882 46.5004C230.756 47.0182 229.224 47.2712 227.273 47.2712C224.684 47.2712 222.827 46.5926 221.701 45.2341C221.19 44.6244 220.761 43.8653 220.413 42.9332C220.052 42.001 219.635 40.5619 219.159 38.6062C218.844 37.3516 218.462 36.4653 217.986 35.9477C217.51 35.43 216.836 35.1536 215.954 35.1192ZM214.805 25.0153L214.584 29.6298V29.814C214.584 30.2863 214.653 30.6081 214.793 30.758C214.932 30.9187 215.212 30.9998 215.641 30.9998C216.813 30.9998 217.661 30.7008 218.194 30.0903C218.728 29.4922 218.996 28.5365 218.996 27.2131C218.996 24.6702 218.079 23.3929 216.256 23.3929C215.734 23.3929 215.373 23.5077 215.165 23.7498C214.944 23.9911 214.828 24.4055 214.805 25.0153Z" fill="#3A3285"/>
<path d="M241.701 19.4455H252.242C253.38 19.4111 254.413 19.2497 255.342 18.9856C255.749 18.882 256.097 18.8241 256.41 18.8241C257.489 18.8241 258.535 19.6181 259.556 21.2062C260.579 22.7943 261.089 24.4285 261.089 26.097C261.089 27.2478 260.729 28.0879 260.02 28.6174C259.487 29.0202 258.848 29.2155 258.105 29.2155C257.396 29.2155 256.793 29.0202 256.271 28.6282C255.749 28.2378 255.226 27.5936 254.726 26.6957C254.286 25.8784 253.937 25.3374 253.693 25.0842C253.438 24.843 253.124 24.7165 252.765 24.7165C252.266 24.7165 251.917 24.9235 251.708 25.3263C251.488 25.7403 251.384 26.4193 251.384 27.3517V38.4559C251.384 39.5958 251.499 40.4124 251.743 40.9308C251.987 41.4484 252.44 41.8396 253.101 42.116C253.821 42.4266 254.309 42.7141 254.576 42.9788C254.832 43.2552 254.959 43.6353 254.959 44.1062C254.959 45.0618 254.309 45.7637 253.021 46.2236C251.72 46.6843 249.724 46.9146 247.03 46.9146C243.721 46.9146 241.26 46.6499 239.669 46.1089C238.323 45.6599 237.649 44.9242 237.649 43.9228C237.649 43.3816 237.893 42.9554 238.369 42.657C238.486 42.5877 238.961 42.4266 239.786 42.1737C240.296 42.0348 240.645 41.7592 240.842 41.3446C241.027 40.9426 241.178 40.1477 241.306 38.986C241.411 37.9615 241.515 36.2929 241.608 33.9804C241.701 31.6779 241.747 29.6759 241.747 27.984C241.747 26.799 241.655 25.9478 241.469 25.4411C241.284 24.9461 240.981 24.6931 240.552 24.6931C240.029 24.6931 239.518 25.0609 239.031 25.8095C238.137 27.1558 237.394 28.0419 236.825 28.479C236.141 28.9974 235.49 29.2506 234.852 29.2506C234.132 29.2506 233.539 28.9851 233.075 28.4447C232.599 27.9154 232.367 27.2361 232.367 26.396C232.367 25.5792 232.553 24.6814 232.924 23.6923C233.296 22.714 233.795 21.8042 234.422 20.9641C235.432 19.6181 236.442 18.9505 237.429 18.9505C237.696 18.9505 237.998 18.9855 238.346 19.0655C239.066 19.2154 239.657 19.3074 240.122 19.3652C240.575 19.4229 241.109 19.4455 241.701 19.4455ZM266 19.4455H276.285C278.364 19.4455 279.884 19.3996 280.837 19.3074C281.789 19.2271 282.717 19.0544 283.623 18.7898C283.902 18.7093 284.122 18.6742 284.285 18.6742C284.97 18.6742 285.585 19.0427 286.119 19.779C287.001 20.9876 287.443 22.4374 287.443 24.141C287.443 25.004 287.256 25.6714 286.897 26.1659C286.525 26.6608 286.026 26.9138 285.387 26.9138C284.946 26.9138 284.599 26.8216 284.354 26.6497C284.111 26.4772 283.774 26.0742 283.368 25.4528C282.775 24.5666 282.032 23.9678 281.138 23.6688C280.233 23.3815 278.759 23.2316 276.704 23.2316C275.171 23.2316 274.242 23.4963 273.905 24.0374C273.732 24.3246 273.627 24.7165 273.593 25.2107C273.557 25.7057 273.546 26.9489 273.546 28.9625C273.546 29.7564 273.686 30.2397 273.953 30.4358C274.219 30.6316 274.916 30.723 276.042 30.723C276.611 30.723 277.017 30.6083 277.272 30.3779C277.517 30.1476 277.679 29.7338 277.749 29.135C277.841 28.3643 277.934 27.8467 278.038 27.5585C278.143 27.2706 278.318 27.0291 278.584 26.8216C278.863 26.5803 279.188 26.4647 279.559 26.4647C280.105 26.4647 280.581 26.7185 280.964 27.2361C281.243 27.6163 281.476 28.2956 281.673 29.2614C281.87 30.2397 281.963 31.2525 281.963 32.3111C281.963 34.3941 281.638 36.1088 280.988 37.4439C280.627 38.1685 280.071 38.5369 279.339 38.5369C278.887 38.5369 278.584 38.4222 278.41 38.1802C278.236 37.9498 278.096 37.4777 278.004 36.7528C277.806 35.2575 276.924 34.5096 275.368 34.5096C274.765 34.5096 274.359 34.6932 274.138 35.0727C273.918 35.4529 273.801 36.1439 273.801 37.1676C273.801 37.789 273.847 38.5946 273.94 39.5723C274.022 40.5506 274.115 41.2064 274.208 41.5289C274.312 41.92 274.637 42.1963 275.194 42.3462C275.74 42.4955 276.669 42.5766 277.97 42.5766C279.966 42.5766 281.476 42.3229 282.486 41.8045C283.495 41.2985 284.319 40.378 284.958 39.0429C285.341 38.2724 285.678 37.7656 285.98 37.5015C286.27 37.2362 286.665 37.1097 287.14 37.1097C287.71 37.1097 288.173 37.3518 288.534 37.8233C288.893 38.3074 289.08 38.9164 289.08 39.6417C289.08 40.4358 288.871 41.4258 288.464 42.6103C288.047 43.7961 287.536 44.8548 286.943 45.7864C286.63 46.2359 286.386 46.5462 286.189 46.6961C285.991 46.8452 285.735 46.9146 285.423 46.9146C285.167 46.9146 284.795 46.8802 284.319 46.7991C283.472 46.6389 282.334 46.5346 280.907 46.5008H263.945C263.26 46.5008 262.738 46.3509 262.366 46.0512C261.994 45.7527 261.809 45.3381 261.809 44.7972C261.809 44.417 261.89 44.1295 262.052 43.957C262.203 43.7844 262.575 43.5776 263.143 43.3129C263.55 43.1404 263.84 42.9211 264.038 42.668C264.235 42.4266 264.386 42.0582 264.49 41.5632C264.92 39.5723 265.141 36.8793 265.141 33.4962C265.141 28.3987 264.828 25.1764 264.189 23.8422C264.05 23.5767 263.899 23.3931 263.747 23.2893C263.585 23.1856 263.249 23.0589 262.749 22.9091C261.994 22.6905 261.611 22.1845 261.611 21.4022C261.611 20.9759 261.739 20.6074 261.994 20.2739C262.239 19.9405 262.575 19.722 262.981 19.6181C263.504 19.5026 264.513 19.4455 266 19.4455ZM310.139 30.6426L317.778 40.1367C318.232 40.6889 318.579 41.0682 318.835 41.2643C319.09 41.4594 319.45 41.632 319.914 41.7819C320.646 42.0239 321.168 42.2885 321.47 42.5877C321.761 42.8983 321.911 43.3011 321.911 43.8078C321.911 44.2794 321.749 44.7278 321.412 45.1423C321.075 45.5562 320.657 45.8676 320.135 46.0627C319.334 46.3735 318.336 46.581 317.14 46.707C315.944 46.8342 314.272 46.8919 312.136 46.8919C309.848 46.8919 308.142 46.7647 307.016 46.5234C306.355 46.3619 305.821 46.0978 305.438 45.7409C305.054 45.3836 304.857 44.9814 304.857 44.5325C304.857 43.9688 305.124 43.5081 305.657 43.1512C306.192 42.8055 306.459 42.5189 306.459 42.2769C306.459 41.6211 305.681 40.2749 304.137 38.2496C303.939 38.0077 303.765 37.8804 303.615 37.8804C303.487 37.8804 303.336 37.9849 303.162 38.1918C302.524 38.9632 301.954 39.7222 301.466 40.4927C300.979 41.2643 300.735 41.7592 300.735 41.9777C300.735 42.1963 301.014 42.5072 301.559 42.9328C302.094 43.3357 302.361 43.8306 302.361 44.4403C302.361 45.3499 301.838 45.9707 300.794 46.2814C299.435 46.707 297.821 46.9146 295.941 46.9146C293.805 46.9146 292.167 46.7421 291.018 46.3852C290.554 46.2359 290.159 45.9707 289.846 45.5685C289.52 45.1657 289.358 44.751 289.358 44.3248C289.358 43.7384 289.556 43.2894 289.951 42.9554C290.345 42.622 290.902 42.4494 291.633 42.415C292.516 42.3917 293.271 42.127 293.886 41.632C294.501 41.1376 295.557 39.9409 297.078 38.0303L300.178 34.1873C300.352 33.9804 300.433 33.8188 300.433 33.6923C300.433 33.6118 300.352 33.4737 300.178 33.2551L295.059 26.7762C294.258 25.7519 293.736 25.1187 293.48 24.8884C293.224 24.6706 292.818 24.4745 292.26 24.302C291.46 24.0488 290.937 23.8187 290.693 23.6001C290.24 23.1973 290.02 22.7023 290.02 22.1385C290.02 20.9533 290.96 20.1475 292.852 19.722C294.861 19.273 297.114 19.0427 299.633 19.0427C302.291 19.0427 304.09 19.2154 305.031 19.5605C305.449 19.7103 305.785 19.9515 306.041 20.3084C306.285 20.6653 306.413 21.0563 306.413 21.4826C306.413 22.1385 306.169 22.6444 305.681 22.9903C305.368 23.2089 305.182 23.3464 305.124 23.4041C305.066 23.4728 305.031 23.5767 305.031 23.7266C305.031 24.0257 305.275 24.4979 305.774 25.1305C306.273 25.7628 306.632 26.0853 306.877 26.0853C307.097 26.0853 307.481 25.7519 308.038 25.0726C308.595 24.394 308.873 23.9335 308.873 23.6688C308.873 23.5079 308.839 23.3815 308.769 23.3004C308.688 23.2199 308.433 23.0246 307.991 22.6905C307.597 22.4031 307.399 21.9659 307.399 21.3906C307.399 20.5505 307.922 19.9515 308.955 19.5838C309.988 19.2154 311.683 19.0309 314.04 19.0309C315.759 19.0309 317.082 19.1692 318.01 19.4455C319.183 19.7906 319.775 20.4808 319.775 21.5053C319.775 22.1845 319.473 22.7023 318.869 23.0474C318.626 23.1739 318.01 23.2776 317 23.3464C316.327 23.4041 315.642 23.6923 314.945 24.2215C314.249 24.7508 313.436 25.6027 312.496 26.7762L310.139 29.7105C309.965 29.9291 309.872 30.1015 309.872 30.2055C309.872 30.2857 309.965 30.4241 310.139 30.6426Z" fill="#3A3285"/>
<path fill-rule="evenodd" clip-rule="evenodd" d="M174.074 24.7718L185.788 24.8735L174.687 34.0425L185.566 34.037L169.828 67.7334C170.44 67.5334 197.132 34.8928 199.913 31.5292L188.464 31.5272L199.061 22.4162L187.123 22.3114L206.532 0.910881L174.074 24.7718Z" fill="#E31F25"/>
<path fill-rule="evenodd" clip-rule="evenodd" d="M33.8394 4.90251L67.5113 38.4963L33.8394 72.0894L0.168457 38.4963L33.8394 4.90251Z" fill="#E31F25"/>
<path fill-rule="evenodd" clip-rule="evenodd" d="M14.0989 40.6978V35.3519C14.0989 34.6617 14.0513 34.2189 13.9555 34.0307C13.8549 33.8477 13.5986 33.6937 13.1761 33.5816C12.5628 33.4049 12.2534 33.0975 12.2534 32.6673C12.2534 32.3607 12.3845 32.1241 12.64 31.9647C12.8957 31.8052 13.2713 31.7227 13.7653 31.7227C13.9321 31.7227 14.3366 31.7349 14.9857 31.7523H15.6051C16.7415 31.7467 17.4023 31.7349 17.5995 31.7227C17.7957 31.7173 18.4862 31.658 19.6823 31.546C20.0814 31.5048 20.4445 31.4869 20.7719 31.4869C21.891 31.4869 22.8915 31.711 23.7665 32.1654C25.2902 32.9499 26.0522 34.2018 26.0522 35.9067C26.0522 37.2932 25.5161 38.4023 24.4509 39.2348C23.4448 40.0137 22.2307 40.4029 20.8015 40.4029C20.4384 40.4029 19.998 40.3796 19.4681 40.332C19.1884 40.3143 19.0161 40.3025 18.9444 40.3025C18.7481 40.3025 18.6468 40.4145 18.6468 40.633V40.6978L18.7185 42.3622C18.7356 42.6867 18.7956 42.9287 18.9031 43.0881C19.0044 43.247 19.2241 43.4126 19.5515 43.5831C19.998 43.8197 20.2186 44.0794 20.2186 44.3565C20.2186 44.7813 19.8906 45.1059 19.2367 45.3362C18.5759 45.5666 17.6463 45.684 16.4438 45.684C13.9141 45.684 12.6517 45.2538 12.6517 44.3979C12.6517 44.1915 12.7056 44.0375 12.8186 43.9255C12.926 43.8197 13.1817 43.6655 13.5813 43.4602C13.8253 43.3293 13.9735 43.1474 14.0155 42.917C14.057 42.6867 14.0809 41.949 14.0989 40.6978ZM18.7185 34.0601V37.5176C18.7185 37.7836 18.7776 37.9362 18.897 37.9898C19.0932 38.0895 19.3435 38.1369 19.6412 38.1369C20.0932 38.1369 20.4743 38.0132 20.7836 37.7595C21.2307 37.3993 21.4507 36.7976 21.4507 35.948C21.4507 35.0687 21.1888 34.4313 20.6706 34.0361C20.3432 33.7886 19.9443 33.6641 19.4807 33.6641C18.9741 33.6641 18.7185 33.7941 18.7185 34.0601ZM28.4634 40.6978V35.3519C28.4634 34.6617 28.4157 34.2189 28.3209 34.0307C28.2195 33.8477 27.9632 33.6937 27.5407 33.5816C26.9274 33.4049 26.618 33.0975 26.618 32.6673C26.618 32.3607 26.749 32.1241 27.0045 31.9647C27.261 31.8052 27.6358 31.7227 28.1298 31.7227C28.2966 31.7227 28.7012 31.7349 29.3502 31.7523H29.9696C31.1066 31.7467 31.7674 31.7349 31.9639 31.7227C32.1602 31.7173 32.8507 31.658 34.0477 31.546C34.446 31.5048 34.8091 31.4869 35.1364 31.4869C36.2555 31.4869 37.2559 31.711 38.1304 32.1654C39.6546 32.9499 40.4168 34.2018 40.4168 35.9067C40.4168 37.2932 39.8813 38.4023 38.8155 39.2348C37.8093 40.0137 36.5945 40.4029 35.1659 40.4029C34.8028 40.4029 34.3625 40.3796 33.8335 40.332C33.5529 40.3143 33.3807 40.3025 33.3089 40.3025C33.1126 40.3025 33.0112 40.4145 33.0112 40.633V40.6978L33.0829 42.3622C33.1008 42.6867 33.1601 42.9287 33.267 43.0881C33.3689 43.247 33.5887 43.4126 33.916 43.5831C34.3625 43.8197 34.5831 44.0794 34.5831 44.3565C34.5831 44.7813 34.2551 45.1059 33.6011 45.3362C32.9403 45.5666 32.0114 45.684 30.8089 45.684C28.2786 45.684 27.017 45.2538 27.017 44.3979C27.017 44.1915 27.0702 44.0375 27.183 43.9255C27.2905 43.8197 27.5469 43.6655 27.9458 43.4602C28.1897 43.3293 28.3386 43.1474 28.38 42.917C28.422 42.6867 28.4455 41.949 28.4634 40.6978ZM33.0829 34.0601V37.5176C33.0829 37.7836 33.1421 37.9362 33.2615 37.9898C33.4578 38.0895 33.708 38.1369 34.0056 38.1369C34.4576 38.1369 34.8387 38.0132 35.1481 37.7595C35.5947 37.3993 35.8158 36.7976 35.8158 35.948C35.8158 35.0687 35.5532 34.4313 35.0351 34.0361C34.7077 33.7886 34.3094 33.6641 33.8451 33.6641C33.3386 33.6641 33.0829 33.7941 33.0829 34.0601ZM45.4891 31.6107H50.8942C51.4779 31.5935 52.0078 31.5109 52.484 31.3749C52.692 31.3219 52.8706 31.2924 53.0317 31.2924C53.5851 31.2924 54.1205 31.6993 54.6442 32.5139C55.1686 33.3279 55.4304 34.166 55.4304 35.022C55.4304 35.6118 55.2457 36.0428 54.8826 36.3136C54.609 36.5199 54.2811 36.6203 53.9007 36.6203C53.5376 36.6203 53.2274 36.5199 52.96 36.3198C52.692 36.1191 52.424 35.7884 52.1683 35.3285C51.9415 34.91 51.7632 34.632 51.6384 34.5022C51.5075 34.3784 51.347 34.3132 51.1623 34.3132C50.9065 34.3132 50.7275 34.4196 50.6199 34.626C50.5069 34.839 50.4539 35.1868 50.4539 35.6646V41.3592C50.4539 41.9434 50.5131 42.3622 50.6379 42.6277C50.7634 42.8929 50.9956 43.0935 51.3345 43.2353C51.7039 43.3948 51.9541 43.5425 52.0904 43.678C52.2213 43.8197 52.2869 44.0142 52.2869 44.2562C52.2869 44.7464 51.9541 45.1059 51.2933 45.3417C50.6263 45.5782 49.6021 45.6965 48.2213 45.6965C46.5247 45.6965 45.2623 45.5603 44.4472 45.2832C43.7567 45.0531 43.4115 44.6747 43.4115 44.162C43.4115 43.885 43.5361 43.6655 43.7801 43.513C43.8401 43.4773 44.0841 43.3948 44.5064 43.2649C44.7683 43.1939 44.9475 43.0525 45.048 42.8401C45.1439 42.6331 45.2211 42.2267 45.2865 41.63C45.3402 41.1055 45.3939 40.2502 45.4409 39.0637C45.4891 37.8832 45.5125 36.8568 45.5125 35.9892C45.5125 35.3815 45.4651 34.9449 45.37 34.685C45.274 34.4313 45.1197 34.3015 44.8992 34.3015C44.632 34.3015 44.3692 34.4906 44.1193 34.8741C43.661 35.5644 43.2807 36.0187 42.9885 36.2437C42.6377 36.5083 42.3042 36.6383 41.9769 36.6383C41.6074 36.6383 41.3036 36.502 41.0658 36.2257C40.8218 35.9541 40.7027 35.6056 40.7027 35.1752C40.7027 34.7558 40.7979 34.2959 40.9881 33.7886C41.179 33.2868 41.4346 32.8206 41.7563 32.3901C42.2738 31.6993 42.792 31.3577 43.2985 31.3577C43.435 31.3577 43.59 31.3749 43.7685 31.4162C44.1378 31.4931 44.4409 31.5399 44.6794 31.5694C44.9109 31.5989 45.1851 31.6107 45.4891 31.6107Z" fill="#3A3285"/>
<path fill-rule="evenodd" clip-rule="evenodd" d="M19.7959 23.5289V22.3672C19.7959 22.2165 19.785 22.1202 19.7635 22.0791C19.7409 22.0392 19.6837 22.0062 19.5884 21.9821C19.4514 21.9436 19.3811 21.8762 19.3811 21.7827C19.3811 21.7161 19.4107 21.6651 19.468 21.6301C19.5258 21.5957 19.6098 21.5778 19.7207 21.5778C19.7586 21.5778 19.8496 21.5806 19.995 21.5841H20.1343C20.3891 21.5826 20.538 21.5806 20.5822 21.5778C20.6262 21.5767 20.7814 21.5634 21.0502 21.5393C21.1396 21.5303 21.2217 21.5262 21.2947 21.5262C21.5463 21.5262 21.7709 21.5752 21.9672 21.6741C22.3096 21.8447 22.4806 22.1161 22.4806 22.4873C22.4806 22.7884 22.3607 23.0299 22.1216 23.2106C21.8949 23.3805 21.6227 23.4651 21.3016 23.4651C21.2195 23.4651 21.121 23.4594 21.0019 23.4492C20.9392 23.4449 20.9005 23.443 20.8847 23.443C20.8406 23.443 20.817 23.467 20.817 23.5146V23.5289L20.8337 23.8904C20.837 23.9614 20.8509 24.0142 20.875 24.0487C20.8978 24.083 20.9474 24.1189 21.0204 24.1566C21.121 24.2076 21.1706 24.2638 21.1706 24.3242C21.1706 24.4172 21.0969 24.4872 20.9493 24.5375C20.8013 24.5877 20.5933 24.613 20.3231 24.613C19.754 24.613 19.4707 24.5189 19.4707 24.3332C19.4707 24.2878 19.4831 24.2549 19.5086 24.2309C19.5327 24.2076 19.5899 24.1738 19.6795 24.129C19.7346 24.101 19.7676 24.061 19.7774 24.0114C19.7864 23.9614 19.7918 23.8012 19.7959 23.5289ZM20.8337 22.0851V22.8373C20.8337 22.895 20.8468 22.928 20.8735 22.9404C20.9177 22.9617 20.9736 22.9721 21.0412 22.9721C21.1424 22.9721 21.2284 22.9453 21.2974 22.8901C21.398 22.8118 21.447 22.6813 21.447 22.4963C21.447 22.3051 21.3884 22.1664 21.2726 22.0805C21.1989 22.0261 21.1093 21.9992 21.0047 21.9992C20.8909 21.9992 20.8337 22.0282 20.8337 22.0851ZM24.4065 21.4906C24.8015 21.4906 25.146 21.5991 25.4402 21.8163C25.6395 21.9657 25.8027 22.1574 25.9267 22.3952C26.0486 22.631 26.1085 22.8668 26.1085 23.1012C26.1085 23.4492 25.9881 23.7613 25.7487 24.0342C25.547 24.2666 25.2823 24.4344 24.9549 24.5361C24.7524 24.5986 24.5512 24.6296 24.3487 24.6296C24.0826 24.6296 23.8291 24.5753 23.5865 24.4695C23.2937 24.3422 23.0642 24.1482 22.8982 23.8878C22.7362 23.6383 22.6563 23.3618 22.6563 23.0593C22.6563 22.7095 22.7588 22.4 22.9663 22.1319C23.1512 21.8934 23.3998 21.7174 23.7113 21.6061C23.9194 21.529 24.151 21.4906 24.4065 21.4906ZM24.1873 22.1251C24.0578 22.1251 23.9558 22.1809 23.8808 22.2908C23.8236 22.3739 23.794 22.4715 23.794 22.5844C23.794 22.7515 23.8291 22.9439 23.9 23.1618C23.9703 23.3811 24.0591 23.575 24.1669 23.7441C24.2142 23.8176 24.2729 23.8755 24.3438 23.9174C24.4135 23.9601 24.4836 23.9821 24.5561 23.9821C24.6726 23.9821 24.7676 23.9394 24.8385 23.8548C24.9089 23.7716 24.9454 23.6609 24.9454 23.5241C24.9454 23.3454 24.9165 23.1528 24.8557 22.9467C24.7959 22.7403 24.718 22.5643 24.623 22.4194C24.5643 22.3293 24.4961 22.2583 24.4196 22.2062C24.3438 22.1547 24.266 22.1278 24.1873 22.1251Z" fill="#3A3285"/>
<path fill-rule="evenodd" clip-rule="evenodd" d="M28.1891 22.3372L28.1223 22.1831C28.081 22.0938 28.0301 22.0333 27.9687 22.0038C27.8578 21.9487 27.8026 21.878 27.8026 21.792C27.8026 21.6038 28.0969 21.5081 28.6866 21.5081C28.9824 21.5081 29.2056 21.5314 29.3594 21.5775C29.4116 21.5941 29.4542 21.6201 29.4853 21.6546C29.5156 21.6897 29.5315 21.7289 29.5315 21.7714C29.5315 21.8086 29.5253 21.836 29.5101 21.8545C29.4957 21.8739 29.4557 21.9124 29.3902 21.9688C29.3517 21.9997 29.3324 22.0319 29.3324 22.0651C29.3324 22.1178 29.362 22.2024 29.4193 22.3221L29.5508 22.5908C29.6108 22.7126 29.6535 22.791 29.6789 22.8247C29.7045 22.8576 29.7328 22.8747 29.7644 22.8747C29.8002 22.8747 29.8312 22.8557 29.8568 22.8171C29.8822 22.7787 29.9139 22.7028 29.9547 22.5908L30.0643 22.2821C30.0952 22.1935 30.1109 22.1282 30.1109 22.0827C30.1109 22.0238 30.0788 21.9859 30.0146 21.966C29.8843 21.9269 29.8209 21.8545 29.8209 21.7536C29.8209 21.6649 29.8699 21.6021 29.9706 21.5639C30.0703 21.526 30.2336 21.5067 30.4625 21.5067C30.6114 21.5067 30.727 21.5224 30.8112 21.5549C30.9262 21.5995 30.984 21.6697 30.984 21.7673C30.984 21.8099 30.9738 21.847 30.953 21.878C30.9317 21.9082 30.8903 21.9502 30.8276 22.0011C30.7864 22.0362 30.7539 22.0718 30.7311 22.1096C30.7085 22.1489 30.6754 22.2266 30.6286 22.3462L30.2262 23.374C30.0243 23.8525 29.9037 24.1384 29.8623 24.2291C29.8209 24.3205 29.7768 24.4024 29.7328 24.4746C29.699 24.5269 29.6617 24.564 29.6205 24.586C29.579 24.608 29.5227 24.6176 29.4542 24.6176C29.362 24.6176 29.2883 24.599 29.2323 24.5607C29.1758 24.522 29.129 24.4587 29.0905 24.3708L28.6342 23.3313C28.6089 23.2737 28.5917 23.2378 28.5799 23.2234C28.5674 23.2096 28.5502 23.2021 28.5276 23.2021C28.4952 23.2021 28.469 23.2199 28.4462 23.2571C28.4235 23.2942 28.3794 23.389 28.3139 23.5416L28.001 24.2884C27.9432 24.4244 27.8873 24.5145 27.835 24.5563C27.7813 24.6004 27.7014 24.6217 27.5932 24.6217C27.4967 24.6217 27.4201 24.6004 27.3644 24.555C27.3085 24.5117 27.2568 24.4334 27.2107 24.3219L26.3624 22.2424C26.328 22.1565 26.3038 22.1061 26.2907 22.0912C26.2771 22.0754 26.2357 22.0499 26.1674 22.0148C26.0889 21.977 26.0503 21.9108 26.0503 21.8203C26.0503 21.612 26.3184 21.5081 26.8557 21.5081C27.13 21.5081 27.3293 21.526 27.4525 21.5639C27.5719 21.6008 27.6303 21.6738 27.6303 21.783C27.6303 21.8162 27.6275 21.8409 27.6215 21.856C27.6144 21.8731 27.5932 21.9075 27.5545 21.9598C27.5353 21.9867 27.5263 22.0216 27.5263 22.0637C27.5263 22.1371 27.5779 22.2911 27.6813 22.5235L27.7744 22.7346C27.8151 22.8233 27.8418 22.8768 27.8549 22.8954C27.8666 22.9147 27.886 22.9237 27.9115 22.9237C27.9715 22.9237 28.0329 22.8412 28.0956 22.6767L28.1891 22.4251C28.1975 22.408 28.2016 22.3936 28.2016 22.3833C28.2016 22.3716 28.1975 22.3564 28.1891 22.3372ZM36.0888 23.3004C36.0315 23.3004 35.9945 23.317 35.9784 23.3506C35.962 23.3849 35.9544 23.4633 35.9544 23.5878C35.9544 23.7754 35.9661 23.9219 35.9902 24.0257C35.9986 24.0554 36.0102 24.0779 36.0254 24.0944C36.0398 24.1116 36.0695 24.131 36.1137 24.1535C36.2052 24.2025 36.2507 24.2664 36.2507 24.346C36.2507 24.4437 36.1866 24.5131 36.0585 24.553C35.9296 24.5922 35.7131 24.6129 35.4087 24.6129C34.8402 24.6129 34.5556 24.5104 34.5556 24.3034C34.5556 24.2691 34.5631 24.2409 34.581 24.2188C34.5983 24.1976 34.6355 24.168 34.6961 24.1287C34.7643 24.0869 34.8091 24.0352 34.834 23.9775C34.8561 23.9204 34.8738 23.8187 34.8828 23.6765C34.8899 23.5727 34.8931 23.1965 34.8931 22.5516C34.8931 22.3476 34.8828 22.2079 34.8615 22.1344C34.8402 22.0615 34.7947 22.0079 34.7236 21.9729C34.6555 21.9419 34.6113 21.9139 34.5893 21.8883C34.5658 21.8629 34.5543 21.8293 34.5543 21.7866C34.5543 21.733 34.5756 21.6854 34.6198 21.6443C34.6637 21.6051 34.7236 21.5741 34.803 21.5549C34.8684 21.5377 34.9594 21.5301 35.0744 21.5301C35.1249 21.5301 35.2522 21.5377 35.4542 21.5527C35.4927 21.5558 35.5534 21.557 35.636 21.557C35.7732 21.557 35.9585 21.548 36.1894 21.5301C36.3355 21.5198 36.4367 21.5149 36.4961 21.5149C36.8233 21.5149 37.0948 21.5907 37.3097 21.7433C37.5042 21.8801 37.5999 22.0705 37.5999 22.3125C37.5999 22.4486 37.5668 22.5717 37.5 22.6838C37.4319 22.795 37.3395 22.8791 37.2201 22.934C37.1705 22.958 37.1474 22.9862 37.1474 23.0185C37.1474 23.0605 37.1844 23.0956 37.2602 23.1223C37.4207 23.1774 37.5385 23.2619 37.6151 23.3746C37.6901 23.4888 37.7432 23.6626 37.7756 23.8971C37.7901 23.9947 37.8095 24.0572 37.8357 24.0855C37.8604 24.1151 37.9223 24.1418 38.0169 24.1693C38.0463 24.1783 38.072 24.1976 38.092 24.2256C38.1118 24.2553 38.1216 24.2868 38.1216 24.3219C38.1216 24.3667 38.103 24.4127 38.0665 24.4587C38.0291 24.5063 37.981 24.5427 37.9237 24.5694C37.7936 24.6273 37.6179 24.6553 37.3924 24.6553C37.0948 24.6553 36.8805 24.5797 36.7509 24.4285C36.6924 24.3597 36.6428 24.2752 36.6029 24.1715C36.5608 24.0676 36.5133 23.9074 36.4582 23.6895C36.4222 23.5492 36.3783 23.451 36.323 23.3931C36.2686 23.3354 36.1908 23.3044 36.0888 23.3004ZM35.9565 22.1744L35.9309 22.6885V22.7092C35.9309 22.7621 35.9391 22.7978 35.9558 22.8143C35.971 22.8322 36.0033 22.8412 36.0529 22.8412C36.188 22.8412 36.2859 22.8081 36.3472 22.7401C36.4086 22.6734 36.4396 22.5668 36.4396 22.4189C36.4396 22.1358 36.3333 21.9936 36.124 21.9936C36.0639 21.9936 36.0226 22.0066 35.9986 22.0333C35.973 22.0602 35.9593 22.1061 35.9565 22.1744Z" fill="#3A3285"/>
<path fill-rule="evenodd" clip-rule="evenodd" d="M39.0547 21.5531H40.2688C40.3997 21.5496 40.5189 21.5311 40.6257 21.5022C40.6725 21.4905 40.7126 21.4837 40.7483 21.4837C40.8731 21.4837 40.9929 21.5723 41.1108 21.7497C41.2287 21.9262 41.2878 22.1084 41.2878 22.2948C41.2878 22.4234 41.2459 22.5162 41.1645 22.5754C41.1032 22.6208 41.0294 22.642 40.9441 22.642C40.8628 22.642 40.7924 22.6208 40.7331 22.5773C40.6725 22.5334 40.6126 22.4612 40.5548 22.3616C40.5043 22.27 40.4637 22.2101 40.4354 22.1821C40.4059 22.1547 40.3699 22.1409 40.3288 22.1409C40.2715 22.1409 40.2315 22.1642 40.2066 22.2088C40.1819 22.255 40.1696 22.3307 40.1696 22.4345V23.6725C40.1696 23.7997 40.1832 23.8904 40.2115 23.9483C40.2391 24.0059 40.2914 24.05 40.3673 24.0802C40.4506 24.1153 40.5065 24.1469 40.5376 24.1765C40.5671 24.2075 40.5815 24.2499 40.5815 24.3029C40.5815 24.4088 40.5065 24.4871 40.3583 24.5388C40.2089 24.5896 39.9788 24.6157 39.6685 24.6157C39.2874 24.6157 39.0037 24.5861 38.821 24.5258C38.6654 24.4754 38.5879 24.3938 38.5879 24.2817C38.5879 24.2219 38.6163 24.1743 38.6708 24.1407C38.6839 24.1332 38.7389 24.1153 38.8341 24.0871C38.8927 24.0721 38.9333 24.041 38.9554 23.9943C38.9775 23.9496 38.9946 23.8609 39.0091 23.7315C39.0208 23.6168 39.0332 23.4313 39.0435 23.1735C39.0547 22.917 39.0601 22.6935 39.0601 22.5052C39.0601 22.3733 39.0491 22.2784 39.0277 22.2219C39.0064 22.1663 38.9718 22.1381 38.9222 22.1381C38.8624 22.1381 38.8031 22.1794 38.7471 22.2626C38.6438 22.4125 38.5585 22.5114 38.4931 22.5601C38.4137 22.6179 38.3393 22.6461 38.2655 22.6461C38.1829 22.6461 38.1148 22.6165 38.0616 22.5561C38.0065 22.4976 37.9795 22.422 37.9795 22.3279C37.9795 22.237 38.001 22.1375 38.0438 22.0261C38.0863 21.9175 38.1443 21.8163 38.2159 21.7228C38.3325 21.5723 38.4489 21.4981 38.5626 21.4981C38.5937 21.4981 38.628 21.5022 38.668 21.5103C38.7507 21.5275 38.8197 21.5379 38.8726 21.5441C38.9251 21.5509 38.9864 21.5531 39.0547 21.5531ZM41.8537 21.5531H43.0374C43.2773 21.5531 43.4523 21.5482 43.5624 21.5379C43.672 21.529 43.7782 21.5098 43.883 21.4801C43.9153 21.4712 43.9408 21.4671 43.9594 21.4671C44.0381 21.4671 44.1089 21.5085 44.1703 21.59C44.2722 21.725 44.3232 21.8865 44.3232 22.0769C44.3232 22.1724 44.3012 22.2474 44.26 22.3023C44.2171 22.3573 44.16 22.3856 44.0863 22.3856C44.0353 22.3856 43.9952 22.3753 43.967 22.3559C43.9388 22.3374 43.9001 22.292 43.8533 22.2232C43.7851 22.1242 43.6998 22.0571 43.597 22.0238C43.4929 21.9923 43.3228 21.9751 43.0865 21.9751C42.9093 21.9751 42.8024 22.0048 42.7639 22.0653C42.7438 22.0976 42.7316 22.1409 42.7274 22.1958C42.7239 22.2515 42.7226 22.3897 42.7226 22.6138C42.7226 22.7025 42.7383 22.7563 42.7694 22.7781C42.8004 22.8001 42.8803 22.8104 43.0098 22.8104C43.0752 22.8104 43.1222 22.7981 43.1518 22.772C43.1794 22.7465 43.1987 22.6997 43.2064 22.6331C43.2173 22.5472 43.2276 22.4894 43.2399 22.4576C43.2517 22.4255 43.2718 22.3987 43.3028 22.3753C43.3344 22.3485 43.3724 22.3361 43.4152 22.3361C43.4779 22.3361 43.5329 22.3643 43.5763 22.422C43.6087 22.4639 43.6354 22.5403 43.6583 22.6475C43.681 22.7563 43.6913 22.8696 43.6913 22.9872C43.6913 23.2194 43.6543 23.4112 43.5791 23.5597C43.5376 23.641 43.4736 23.6815 43.3904 23.6815C43.3372 23.6815 43.3028 23.669 43.2827 23.6416C43.2628 23.6162 43.2462 23.5632 43.2358 23.4827C43.2132 23.3157 43.1112 23.2325 42.9321 23.2325C42.8624 23.2325 42.8156 23.2531 42.7901 23.2951C42.7653 23.3377 42.7522 23.4148 42.7522 23.5289C42.7522 23.5983 42.7571 23.6877 42.768 23.7971C42.777 23.9062 42.7874 23.9791 42.7983 24.0149C42.8108 24.059 42.8479 24.0892 42.9127 24.1063C42.9746 24.123 43.0824 24.1319 43.2317 24.1319C43.4618 24.1319 43.6354 24.1036 43.7522 24.0459C43.8685 23.9895 43.9636 23.8871 44.0367 23.7379C44.0806 23.6518 44.1199 23.5955 44.1544 23.566C44.1883 23.5365 44.2338 23.5227 44.2881 23.5227C44.3535 23.5227 44.4074 23.5496 44.4487 23.6018C44.49 23.6559 44.5113 23.7241 44.5113 23.8045C44.5113 23.8932 44.4873 24.0033 44.4405 24.1359C44.3928 24.2678 44.3336 24.3862 44.2654 24.4892C44.2294 24.5401 44.2014 24.5744 44.1785 24.591C44.1559 24.6076 44.1261 24.6157 44.0904 24.6157C44.0607 24.6157 44.018 24.6117 43.9636 24.6027C43.8657 24.5848 43.7347 24.573 43.5701 24.5689H41.6166C41.538 24.5689 41.4773 24.5527 41.4347 24.5189C41.392 24.4858 41.3707 24.4397 41.3707 24.3793C41.3707 24.3367 41.3802 24.3051 41.3982 24.2858C41.416 24.2665 41.4588 24.2439 41.5241 24.2143C41.571 24.195 41.6042 24.1702 41.627 24.1422C41.6504 24.1153 41.6676 24.074 41.6792 24.019C41.7289 23.7971 41.7544 23.4971 41.7544 23.1199C41.7544 22.5512 41.7179 22.1924 41.6448 22.0432C41.6291 22.0137 41.6111 21.9931 41.5939 21.982C41.5751 21.9703 41.5367 21.9559 41.4786 21.9395C41.392 21.9147 41.3478 21.8583 41.3478 21.7709C41.3478 21.7242 41.3623 21.6823 41.392 21.6458C41.4203 21.6087 41.4588 21.5841 41.5056 21.5723C41.5656 21.5599 41.682 21.5531 41.8537 21.5531ZM46.937 22.8014L47.8169 23.8596C47.8693 23.9214 47.9093 23.9641 47.9388 23.9861C47.9684 24.0073 48.0099 24.0266 48.0628 24.0431C48.147 24.0707 48.2075 24.1002 48.2421 24.1332C48.2758 24.1676 48.2931 24.2129 48.2931 24.2693C48.2931 24.3215 48.2743 24.3718 48.2359 24.4177C48.1967 24.464 48.1484 24.4989 48.0884 24.5202C47.9961 24.5553 47.881 24.5779 47.7432 24.5924C47.606 24.6062 47.4131 24.613 47.1671 24.613C46.9039 24.613 46.7069 24.5986 46.5773 24.5717C46.5014 24.554 46.4401 24.5243 46.3953 24.4844C46.3512 24.4446 46.3285 24.3998 46.3285 24.3498C46.3285 24.2872 46.3595 24.2355 46.4208 24.1958C46.4822 24.1579 46.513 24.1256 46.513 24.0987C46.513 24.0252 46.4236 23.8754 46.2459 23.6492C46.223 23.6224 46.2031 23.6086 46.1858 23.6086C46.1714 23.6086 46.1535 23.6203 46.1335 23.6429C46.0597 23.7289 45.9943 23.8142 45.9384 23.9001C45.882 23.9861 45.8545 24.041 45.8545 24.0651C45.8545 24.0892 45.8861 24.1243 45.9488 24.1717C46.0109 24.217 46.0412 24.2719 46.0412 24.3395C46.0412 24.4412 45.9812 24.5105 45.8607 24.545C45.7042 24.5924 45.5181 24.6157 45.3018 24.6157C45.0558 24.6157 44.8676 24.5965 44.7346 24.5568C44.6816 24.5401 44.6362 24.5105 44.5997 24.4653C44.5623 24.4205 44.5438 24.3744 44.5438 24.327C44.5438 24.2611 44.5664 24.2116 44.612 24.1743C44.6575 24.1373 44.7215 24.1174 44.8057 24.114C44.9076 24.1112 44.9944 24.0815 45.0655 24.0266C45.1364 23.9717 45.2577 23.8381 45.4328 23.6252L45.7896 23.1968C45.8096 23.1735 45.8193 23.1555 45.8193 23.1419C45.8193 23.1322 45.8096 23.1171 45.7896 23.093L45.1996 22.3704C45.108 22.2564 45.0476 22.1854 45.0186 22.1601C44.989 22.136 44.942 22.1141 44.8779 22.0948C44.7856 22.0666 44.725 22.0405 44.6975 22.0164C44.6452 21.971 44.6195 21.9161 44.6195 21.8536C44.6195 21.7214 44.7278 21.6315 44.9461 21.5841C45.1778 21.5346 45.4367 21.5085 45.7269 21.5085C46.033 21.5085 46.2402 21.5275 46.3484 21.5661C46.3966 21.5827 46.4354 21.6102 46.4648 21.6494C46.4932 21.6891 46.5076 21.7332 46.5076 21.7807C46.5076 21.8536 46.4801 21.9098 46.4236 21.9482C46.3877 21.9725 46.3664 21.9882 46.3595 21.9945C46.3525 22.002 46.3484 22.0138 46.3484 22.0302C46.3484 22.0638 46.3767 22.1161 46.4339 22.187C46.4918 22.2569 46.5338 22.2934 46.5613 22.2934C46.5869 22.2934 46.6311 22.2564 46.6951 22.1808C46.7592 22.1052 46.7916 22.0535 46.7916 22.0238C46.7916 22.0061 46.7873 21.9923 46.7791 21.9828C46.7701 21.9738 46.7406 21.9526 46.6902 21.9147C46.6447 21.8829 46.6213 21.8342 46.6213 21.7704C46.6213 21.6761 46.6812 21.6102 46.8006 21.5682C46.9198 21.5275 47.1147 21.507 47.3862 21.507C47.5847 21.507 47.737 21.5229 47.8438 21.5531C47.9789 21.5915 48.047 21.6686 48.047 21.7827C48.047 21.8583 48.0126 21.9161 47.9423 21.9546C47.9147 21.9689 47.8438 21.9807 47.7272 21.9882C47.6501 21.9945 47.571 22.0261 47.4909 22.0851C47.4104 22.1443 47.3166 22.2398 47.2084 22.3704L46.937 22.6977C46.917 22.7217 46.9067 22.741 46.9067 22.7527C46.9067 22.7617 46.917 22.7775 46.937 22.8014Z" fill="#3A3285"/>
<path fill-rule="evenodd" clip-rule="evenodd" d="M31.2661 22.1468L32.6155 22.1585L31.3365 23.1801H32.59L30.7771 26.9365L34.2424 22.9003H32.9236L34.1438 21.8849L32.769 21.8732L35.0046 19.4869L31.2661 22.1468Z" fill="white"/>
<path fill-rule="evenodd" clip-rule="evenodd" d="M17.5276 53.0061V49.984H18.5096C18.881 49.984 19.1237 49.9997 19.2359 50.0301C19.4102 50.0734 19.5557 50.1724 19.6727 50.3242C19.7891 50.4762 19.8486 50.6736 19.8486 50.9141C19.8486 51.0998 19.8147 51.2551 19.7472 51.381C19.6789 51.5075 19.5942 51.6071 19.4896 51.6786C19.3848 51.7523 19.2793 51.7996 19.1725 51.8222C19.0264 51.8513 18.8157 51.8657 18.5379 51.8657H18.1396V53.0061H17.5276ZM18.1396 50.4955V51.3533H18.4744C18.7156 51.3533 18.8761 51.3376 18.9582 51.3054C19.0381 51.273 19.1021 51.2241 19.1491 51.1562C19.1953 51.0887 19.2186 51.0112 19.2186 50.9231C19.2186 50.8131 19.1864 50.7215 19.1215 50.6494C19.0561 50.5793 18.9749 50.5333 18.8756 50.5154C18.8018 50.5023 18.6543 50.4955 18.4346 50.4955H18.1396Z" fill="#2B2B2A"/>
<path fill-rule="evenodd" clip-rule="evenodd" d="M20.5183 51.5136C20.5183 51.2064 20.5651 50.9478 20.6575 50.7381C20.7257 50.5835 20.8209 50.4459 20.9394 50.3243C21.0586 50.202 21.1888 50.1111 21.3306 50.0526C21.5187 49.9724 21.7374 49.9324 21.984 49.9324C22.4306 49.9324 22.7882 50.0698 23.0554 50.347C23.3228 50.6233 23.4579 51.0076 23.4579 51.4992C23.4579 51.9858 23.3241 52.3681 23.0597 52.6438C22.7929 52.9203 22.4366 53.0576 21.9917 53.0576C21.5416 53.0576 21.1827 52.9203 20.9179 52.6458C20.6513 52.3722 20.5183 51.9948 20.5183 51.5136ZM21.1496 51.4938C21.1496 51.8359 21.2287 52.096 21.3866 52.272C21.5451 52.4473 21.7469 52.536 21.9901 52.536C22.2341 52.536 22.4339 52.4486 22.5911 52.2725C22.7473 52.0978 22.8253 51.8359 22.8253 51.4854C22.8253 51.139 22.7495 50.8805 22.5972 50.7093C22.445 50.5381 22.2424 50.4535 21.9901 50.4535C21.7387 50.4535 21.5353 50.5394 21.3802 50.7119C21.2259 50.8851 21.1496 51.1451 21.1496 51.4938Z" fill="#2B2B2A"/>
<path fill-rule="evenodd" clip-rule="evenodd" d="M24.6572 53.0061L23.9336 49.984H24.5601L25.017 52.0596L25.5702 49.984H26.2986L26.8284 52.0958L27.2943 49.984H27.9096L27.1743 53.0061H26.5253L25.9217 50.7463L25.3209 53.0061H24.6572Z" fill="#2B2B2A"/>
<path fill-rule="evenodd" clip-rule="evenodd" d="M28.5149 53.0061V49.984H30.7606V50.4955H29.1269V51.1652H30.6469V51.6745H29.1269V52.498H30.8184V53.0061H28.5149Z" fill="#2B2B2A"/>
<path fill-rule="evenodd" clip-rule="evenodd" d="M31.6313 53.0061V49.984H32.9199C33.2424 49.984 33.4774 50.0122 33.6255 50.0658C33.7716 50.1194 33.8887 50.2164 33.9776 50.3552C34.0652 50.4941 34.1099 50.653 34.1099 50.8316C34.1099 51.0579 34.0431 51.2456 33.9094 51.3927C33.7765 51.5398 33.5758 51.6331 33.31 51.6731C33.4414 51.7494 33.5511 51.8334 33.6371 51.9261C33.7233 52.0182 33.8399 52.1817 33.9853 52.4162L34.356 53.0061H33.6241L33.181 52.3495C33.024 52.1132 32.9172 51.9646 32.86 51.9034C32.8007 51.8437 32.74 51.8009 32.6753 51.7784C32.6098 51.7563 32.5078 51.7446 32.3679 51.7446H32.2433V53.0061H31.6313ZM32.2433 51.2628H32.6953C32.9894 51.2628 33.1728 51.2502 33.2459 51.2254C33.319 51.2001 33.3754 51.1583 33.4175 51.0976C33.4581 51.0365 33.4787 50.9603 33.4787 50.87C33.4787 50.7678 33.4512 50.6866 33.3975 50.6233C33.343 50.5608 33.2665 50.5216 33.1666 50.5059C33.1176 50.4996 32.9688 50.4955 32.7207 50.4955H32.2433V51.2628Z" fill="#2B2B2A"/>
<path fill-rule="evenodd" clip-rule="evenodd" d="M35.6633 53.0061V50.4955H34.7649V49.984H37.1726V50.4955H36.2753V53.0061H35.6633Z" fill="#2B2B2A"/>
<path fill-rule="evenodd" clip-rule="evenodd" d="M37.6592 51.5136C37.6592 51.2064 37.7053 50.9478 37.7983 50.7381C37.8664 50.5835 37.9609 50.4459 38.0801 50.3243C38.1987 50.202 38.3295 50.1111 38.4715 50.0526C38.6597 49.9724 38.878 49.9324 39.1248 49.9324C39.5712 49.9324 39.9284 50.0698 40.1963 50.347C40.4638 50.6233 40.5987 51.0076 40.5987 51.4992C40.5987 51.9858 40.4651 52.3681 40.1998 52.6438C39.9338 52.9203 39.5776 53.0576 39.1323 53.0576C38.6823 53.0576 38.3233 52.9203 38.0588 52.6458C37.792 52.3722 37.6592 51.9948 37.6592 51.5136ZM38.2903 51.4938C38.2903 51.8359 38.3688 52.096 38.5274 52.272C38.6859 52.4473 38.8878 52.536 39.131 52.536C39.3742 52.536 39.5748 52.4486 39.7319 52.2725C39.8883 52.0978 39.9662 51.8359 39.9662 51.4854C39.9662 51.139 39.8904 50.8805 39.7381 50.7093C39.5858 50.5381 39.3826 50.4535 39.131 50.4535C38.8795 50.4535 38.6763 50.5394 38.5212 50.7119C38.3669 50.8851 38.2903 51.1451 38.2903 51.4938Z" fill="#2B2B2A"/>
<path fill-rule="evenodd" clip-rule="evenodd" d="M41.2437 51.5136C41.2437 51.2064 41.2898 50.9478 41.3828 50.7381C41.4511 50.5835 41.5455 50.4459 41.6646 50.3243C41.7832 50.202 41.9141 50.1111 42.0554 50.0526C42.2442 49.9724 42.4625 49.9324 42.7093 49.9324C43.1558 49.9324 43.5128 50.0698 43.7808 50.347C44.0483 50.6233 44.1826 51.0076 44.1826 51.4992C44.1826 51.9858 44.0496 52.3681 43.7843 52.6438C43.5183 52.9203 43.162 53.0576 42.7169 53.0576C42.267 53.0576 41.908 52.9203 41.6433 52.6458C41.3767 52.3722 41.2437 51.9948 41.2437 51.5136ZM41.8749 51.4938C41.8749 51.8359 41.9533 52.096 42.1119 52.272C42.2704 52.4473 42.4723 52.536 42.7155 52.536C42.9587 52.536 43.1593 52.4486 43.3164 52.2725C43.4728 52.0978 43.5507 51.8359 43.5507 51.4854C43.5507 51.139 43.4749 50.8805 43.3226 50.7093C43.1702 50.5381 42.9671 50.4535 42.7155 50.4535C42.4641 50.4535 42.2608 50.5394 42.1057 50.7119C41.9514 50.8851 41.8749 51.1451 41.8749 51.4938Z" fill="#2B2B2A"/>
<path fill-rule="evenodd" clip-rule="evenodd" d="M44.9688 53.0061V50.0081H45.5807V52.498H47.1021V53.0061H44.9688Z" fill="#2B2B2A"/>
<path fill-rule="evenodd" clip-rule="evenodd" d="M47.6753 52.0224L48.2714 51.9647C48.3066 52.1646 48.3797 52.3104 48.4884 52.4047C48.598 52.4975 48.7468 52.5443 48.933 52.5443C49.1294 52.5443 49.2781 52.5022 49.378 52.4198C49.4772 52.3373 49.5275 52.2389 49.5275 52.1276C49.5275 52.0575 49.5077 51.9963 49.4655 51.946C49.4235 51.8951 49.349 51.8513 49.2444 51.8141C49.1726 51.7887 49.0094 51.7461 48.755 51.6827C48.427 51.6011 48.1969 51.502 48.064 51.383C47.8779 51.2168 47.7857 51.0144 47.7857 50.7754C47.7857 50.6206 47.8304 50.477 47.9179 50.3436C48.0054 50.2089 48.1316 50.1071 48.2955 50.0362C48.4601 49.9677 48.6579 49.9326 48.8908 49.9326C49.2706 49.9326 49.5578 50.0149 49.7494 50.1814C49.9417 50.3477 50.0423 50.5704 50.0521 50.8469L49.4415 50.8744C49.4145 50.7189 49.358 50.6076 49.2719 50.5396C49.1857 50.4708 49.0563 50.4371 48.8847 50.4371C48.7069 50.4371 48.5677 50.4735 48.4671 50.547C48.4023 50.5932 48.3699 50.657 48.3699 50.7341C48.3699 50.8048 48.4003 50.866 48.4609 50.9176C48.538 50.9823 48.7247 51.0495 49.0238 51.1205C49.3215 51.1905 49.5414 51.2628 49.6841 51.3362C49.8267 51.4118 49.9384 51.5138 50.0183 51.6436C50.0989 51.7749 50.1395 51.935 50.1395 52.1249C50.1395 52.2988 50.0913 52.4616 49.9954 52.6123C49.8983 52.7627 49.7625 52.8756 49.5862 52.9492C49.4104 53.0227 49.1892 53.0605 48.9268 53.0605C48.5443 53.0605 48.2486 52.9719 48.0441 52.7944C47.8386 52.6186 47.7153 52.3606 47.6753 52.0224Z" fill="#2B2B2A"/>
<path fill-rule="evenodd" clip-rule="evenodd" d="M12.4009 27.7643H55.2779V28.6621H12.4009V27.7643Z" fill="white"/>
<path fill-rule="evenodd" clip-rule="evenodd" d="M12.4009 47.3209H55.2779V48.2195H12.4009V47.3209Z" fill="white"/>
<path fill-rule="evenodd" clip-rule="evenodd" d="M71.0081 49.6343H160.99V51.6047H71.0081V49.6343Z" fill="#E31F25"/>
<path fill-rule="evenodd" clip-rule="evenodd" d="M205.393 49.6343H319.584V51.6047H205.393V49.6343Z" fill="#E31F25"/>
<path fill-rule="evenodd" clip-rule="evenodd" d="M71.7781 53.4828H160.741V68.2307H71.7781V53.4828Z" fill="#2B2B2A"/>
<path fill-rule="evenodd" clip-rule="evenodd" d="M85.3249 64.6434C85.891 65.0456 86.5128 65.3667 87.1783 65.6058L86.3267 67.2346C85.9772 67.13 85.6329 66.9899 85.302 66.8049C85.2297 66.7685 84.7178 66.4337 83.7653 65.7964C83.0177 66.1215 82.1833 66.2852 81.2723 66.2852C79.5137 66.2852 78.1356 65.7695 77.1386 64.7336C76.1414 63.6982 75.6426 62.2462 75.6426 60.3791C75.6426 58.5153 76.1414 57.064 77.1427 56.0287C78.1445 54.9925 79.4998 54.477 81.2089 54.477C82.9088 54.477 84.2554 54.9925 85.2477 56.0287C86.2405 57.064 86.7387 58.5153 86.7387 60.3791C86.7387 61.3691 86.6031 62.2372 86.3267 62.9833C86.1178 63.553 85.7823 64.1051 85.3249 64.6434ZM83.4663 63.3406C83.7606 62.9928 83.9879 62.5714 84.1368 62.0791C84.2871 61.5861 84.3593 61.0163 84.3593 60.3791C84.3593 59.0625 84.0693 58.0766 83.4843 57.4208C82.8992 56.7697 82.1378 56.444 81.1951 56.444C80.2525 56.444 79.4909 56.7697 78.9067 57.4256C78.3217 58.0815 78.0267 59.0674 78.0267 60.3791C78.0267 61.7128 78.3217 62.7115 78.9067 63.3723C79.4909 64.0371 80.2297 64.3677 81.1275 64.3677C81.4583 64.3677 81.7752 64.3134 82.0702 64.2042C81.6031 63.9017 81.1275 63.6618 80.6424 63.4899L81.2909 62.1741C82.0476 62.4319 82.7724 62.8209 83.4663 63.3406Z" fill="white"/>
<path fill-rule="evenodd" clip-rule="evenodd" d="M90.7595 54.6717H93.0712V60.8535C93.0712 61.8346 93.0989 62.4726 93.1574 62.762C93.2574 63.2323 93.4929 63.6076 93.8645 63.8882C94.2358 64.1727 94.7436 64.313 95.3922 64.313C96.0494 64.313 96.5436 64.1775 96.8743 63.9102C97.205 63.644 97.4091 63.3182 97.4773 62.9249C97.5454 62.5359 97.5771 61.8889 97.5771 60.989V54.6717H99.889V60.6686C99.889 62.0383 99.8249 63.0062 99.703 63.5711C99.5755 64.137 99.3447 64.6162 99.009 65.0046C98.6742 65.3984 98.2248 65.7058 97.6633 65.937C97.1011 66.1679 96.3664 66.2854 95.4603 66.2854C94.3675 66.2854 93.5378 66.1581 92.9761 65.9052C92.4098 65.6564 91.9653 65.3264 91.6387 64.9236C91.3081 64.5213 91.0903 64.1006 90.9861 63.662C90.8366 63.0062 90.7595 62.0429 90.7595 60.7628V54.6717Z" fill="white"/>
<path fill-rule="evenodd" clip-rule="evenodd" d="M114.867 66.0903H112.351L111.354 63.495H106.776L105.833 66.0903H103.381L107.841 54.672H110.284L114.867 66.0903ZM110.61 61.5729L109.033 57.3351L107.487 61.5729H110.61Z" fill="white"/>
<path fill-rule="evenodd" clip-rule="evenodd" d="M118.372 66.0903V54.7612H120.684V64.1681H126.432V66.0903H118.372Z" fill="white"/>
<path fill-rule="evenodd" clip-rule="evenodd" d="M130.234 54.6715H132.546V66.0898H130.234V54.6715Z" fill="white"/>
<path fill-rule="evenodd" clip-rule="evenodd" d="M139.549 66.0903V56.6024H136.154V54.672H145.251V56.6024H141.86V66.0903H139.549Z" fill="white"/>
<path fill-rule="evenodd" clip-rule="evenodd" d="M151.973 66.0903V61.2833L147.78 54.672H150.491L153.183 59.1894L155.821 54.672H158.482L154.275 61.3012V66.0903H151.973Z" fill="white"/>
<path fill-rule="evenodd" clip-rule="evenodd" d="M206.7 53.7509H320.389V68.4988H206.7V53.7509Z" fill="#2B2B2A"/>
<path fill-rule="evenodd" clip-rule="evenodd" d="M208.104 66.8368V55.4186H211.734C213.11 55.4186 214.007 55.4769 214.424 55.5905C215.067 55.7575 215.605 56.128 216.04 56.7026C216.47 57.2768 216.687 58.0233 216.687 58.9323C216.687 59.6328 216.563 60.2206 216.315 60.6957C216.062 61.1755 215.747 61.5509 215.361 61.8217C214.975 62.0974 214.584 62.2783 214.189 62.3642C213.647 62.4728 212.866 62.5271 211.841 62.5271H210.367V66.8368H208.104ZM210.367 57.3491V60.5918H211.605C212.498 60.5918 213.092 60.5327 213.395 60.4104C213.691 60.2885 213.927 60.103 214.1 59.8452C214.273 59.5923 214.358 59.298 214.358 58.9638C214.358 58.5474 214.238 58.2036 213.999 57.9328C213.758 57.6651 213.457 57.4933 213.088 57.426C212.817 57.3758 212.272 57.3491 211.459 57.3491H210.367ZM218.085 61.1975C218.085 60.0351 218.259 59.0587 218.6 58.2667C218.854 57.6839 219.204 57.1641 219.644 56.7026C220.083 56.2414 220.567 55.8976 221.091 55.6764C221.787 55.3724 222.596 55.2234 223.509 55.2234C225.161 55.2234 226.484 55.7436 227.473 56.7886C228.463 57.8329 228.96 59.2849 228.96 61.1438C228.96 62.9843 228.468 64.4266 227.487 65.4668C226.501 66.5109 225.183 67.0315 223.536 67.0315C221.872 67.0315 220.546 66.5109 219.564 65.4757C218.578 64.4404 218.085 63.0153 218.085 61.1975ZM220.421 61.1212C220.421 62.4137 220.714 63.3952 221.299 64.0602C221.885 64.725 222.631 65.0597 223.532 65.0597C224.433 65.0597 225.174 64.7298 225.756 64.0649C226.332 63.405 226.621 62.4137 226.621 61.0895C226.621 59.7819 226.342 58.805 225.778 58.1588C225.214 57.512 224.464 57.1908 223.532 57.1908C222.6 57.1908 221.85 57.5161 221.277 58.1678C220.705 58.8237 220.421 59.8047 220.421 61.1212ZM232.316 66.8368L229.639 55.4186H231.956L233.647 63.2599L235.693 55.4186H238.387L240.35 63.3952L242.072 55.4186H244.349L241.628 66.8368H239.226L236.994 58.2991L234.77 66.8368H232.316ZM245.507 66.8368V55.4186H253.816V57.3491H247.77V59.8816H253.394V61.804H247.77V64.9148H254.028V66.8368H245.507ZM255.955 66.8368V55.4186H260.722C261.916 55.4186 262.786 55.5223 263.332 55.7259C263.874 55.9294 264.308 56.2958 264.637 56.8203C264.961 57.3442 265.125 57.9458 265.125 58.62C265.125 59.4745 264.877 60.1841 264.384 60.741C263.891 61.2973 263.15 61.6498 262.164 61.7991C262.653 62.0885 263.057 62.4054 263.376 62.7532C263.696 63.1013 264.127 63.7213 264.664 64.6074L266.035 66.8368H263.327L261.69 64.3545C261.109 63.4635 260.713 62.9025 260.5 62.6716C260.283 62.4412 260.057 62.2829 259.817 62.197C259.577 62.1113 259.199 62.07 258.68 62.07H258.219V66.8368H255.955ZM258.219 60.248H259.892C260.979 60.248 261.659 60.2027 261.929 60.1079C262.2 60.0123 262.409 59.8547 262.564 59.6238C262.715 59.3935 262.79 59.1083 262.79 58.7645C262.79 58.3801 262.689 58.0729 262.489 57.8329C262.289 57.5979 262.005 57.4486 261.636 57.3901C261.455 57.3627 260.904 57.3491 259.986 57.3491H258.219V60.248ZM269.781 66.8368V57.3491H266.457V55.4186H275.364V57.3491H272.045V66.8368H269.781Z" fill="white"/>
<path fill-rule="evenodd" clip-rule="evenodd" d="M276.084 61.1976C276.084 60.0356 276.257 59.0587 276.598 58.2667C276.851 57.6837 277.202 57.1639 277.641 56.7027C278.08 56.2414 278.565 55.8977 279.088 55.6763C279.785 55.3724 280.593 55.224 281.507 55.224C283.159 55.224 284.482 55.7437 285.471 56.7886C286.461 57.833 286.958 59.2849 286.958 61.1439C286.958 62.9842 286.465 64.4266 285.484 65.4667C284.499 66.511 283.181 67.0313 281.534 67.0313C279.87 67.0313 278.542 66.511 277.562 65.4757C276.576 64.4403 276.084 63.016 276.084 61.1976ZM278.419 61.1212C278.419 62.4144 278.711 63.3953 279.297 64.0601C279.883 64.725 280.628 65.0597 281.529 65.0597C282.43 65.0597 283.172 64.7297 283.753 64.065C284.33 63.4049 284.619 62.4144 284.619 61.0895C284.619 59.7819 284.339 58.8058 283.775 58.1588C283.212 57.5118 282.462 57.1908 281.529 57.1908C280.597 57.1908 279.848 57.5167 279.275 58.1678C278.702 58.8235 278.419 59.8053 278.419 61.1212ZM288.263 61.1976C288.263 60.0356 288.436 59.0587 288.777 58.2667C289.03 57.6837 289.381 57.1639 289.821 56.7027C290.26 56.2414 290.743 55.8977 291.268 55.6763C291.964 55.3724 292.773 55.224 293.687 55.224C295.337 55.224 296.661 55.7437 297.65 56.7886C298.639 57.833 299.137 59.2849 299.137 61.1439C299.137 62.9842 298.644 64.4266 297.663 65.4667C296.678 66.511 295.36 67.0313 293.713 67.0313C292.048 67.0313 290.722 66.511 289.741 65.4757C288.755 64.4403 288.263 63.016 288.263 61.1976ZM290.597 61.1212C290.597 62.4144 290.89 63.3953 291.477 64.0601C292.061 64.725 292.808 65.0597 293.709 65.0597C294.61 65.0597 295.351 64.7297 295.933 64.065C296.51 63.4049 296.798 62.4144 296.798 61.0895C296.798 59.7819 296.519 58.8058 295.955 58.1588C295.391 57.5118 294.641 57.1908 293.709 57.1908C292.777 57.1908 292.026 57.5167 291.454 58.1678C290.882 58.8235 290.597 59.8053 290.597 61.1212ZM300.962 66.8368V55.5085H303.225V64.9146H308.853V66.8368H300.962ZM309.892 63.1196L312.098 62.9025C312.226 63.6581 312.497 64.2093 312.901 64.5626C313.305 64.9146 313.855 65.0914 314.543 65.0914C315.271 65.0914 315.822 64.9333 316.19 64.6205C316.558 64.3089 316.745 63.9377 316.745 63.5177C316.745 63.251 316.669 63.0201 316.514 62.8303C316.358 62.6406 316.083 62.4728 315.697 62.3325C315.431 62.2376 314.827 62.0747 313.886 61.8356C312.675 61.5274 311.822 61.1527 311.329 60.7044C310.641 60.0762 310.299 59.3118 310.299 58.4068C310.299 57.824 310.465 57.2817 310.788 56.775C311.112 56.2683 311.578 55.884 312.187 55.6173C312.794 55.3545 313.527 55.224 314.388 55.224C315.795 55.224 316.855 55.5359 317.566 56.1644C318.275 56.7927 318.649 57.6336 318.684 58.6785L316.425 58.7824C316.327 58.1945 316.119 57.7745 315.8 57.5167C315.48 57.2589 315 57.1324 314.366 57.1324C313.709 57.1324 313.193 57.2679 312.821 57.5442C312.582 57.7196 312.461 57.9595 312.461 58.2537C312.461 58.5206 312.573 58.7507 312.799 58.9459C313.083 59.1901 313.775 59.443 314.88 59.7098C315.981 59.9765 316.793 60.2481 317.322 60.5279C317.85 60.8133 318.262 61.1976 318.56 61.6911C318.857 62.184 319.008 62.7891 319.008 63.5082C319.008 64.1639 318.831 64.7791 318.476 65.3492C318.116 65.9192 317.615 66.344 316.962 66.6204C316.309 66.9002 315.493 67.0403 314.521 67.0403C313.105 67.0403 312.014 66.7063 311.254 66.0367C310.495 65.3712 310.037 64.3991 309.892 63.1196Z" fill="white"/>
<path fill-rule="evenodd" clip-rule="evenodd" d="M6.35677 41.8015L2.55786 37.9195L6.35677 34.2201V41.8015Z" fill="#3A3285"/>
<path fill-rule="evenodd" clip-rule="evenodd" d="M61.3225 41.7178L65.1214 37.8362L61.3225 34.1369V41.7178Z" fill="#3A3285"/>
<path d="M325.627 10.9727C327.34 10.9727 328.891 11.6657 330.014 12.7862C331.137 13.9062 331.831 15.4543 331.831 17.1633C331.831 18.8718 331.137 20.4193 330.014 21.5393C328.891 22.6598 327.34 23.3521 325.627 23.3521C323.914 23.3521 322.363 22.6598 321.24 21.5393C320.117 20.4193 319.422 18.8718 319.422 17.1633C319.422 15.4543 320.117 13.9062 321.24 12.7862C322.363 11.6657 323.914 10.9727 325.627 10.9727ZM329.284 13.5149C328.348 12.5814 327.055 12.0037 325.627 12.0037C324.199 12.0037 322.906 12.5814 321.97 13.5149C321.035 14.4486 320.456 15.7382 320.456 17.1633C320.456 18.5871 321.035 19.8775 321.97 20.8104C322.906 21.7433 324.199 22.3209 325.627 22.3209C327.055 22.3209 328.348 21.7433 329.284 20.8104C330.219 19.8775 330.798 18.5871 330.798 17.1633C330.798 15.7382 330.219 14.4486 329.284 13.5149Z" fill="#2B2B2A"/>
<path fill-rule="evenodd" clip-rule="evenodd" d="M322.784 20.6282V13.2626H326.059C326.717 13.2626 327.22 13.3293 327.562 13.4606C327.904 13.592 328.176 13.8249 328.38 14.1613C328.585 14.4965 328.687 14.8672 328.687 15.2721C328.687 15.7947 328.517 16.2326 328.178 16.5908C327.839 16.9495 327.316 17.1799 326.609 17.2767C326.866 17.4018 327.061 17.5242 327.196 17.6439C327.482 17.9038 327.754 18.2302 328.009 18.6243L329.293 20.6282H328.065L327.085 19.0965C326.802 18.6532 326.565 18.3148 326.381 18.079C326.196 17.8454 326.029 17.6816 325.887 17.5883C325.74 17.4948 325.591 17.4308 325.439 17.3931C325.328 17.3697 325.146 17.358 324.895 17.358H323.763V20.6282H322.784ZM323.763 16.5124H325.863C326.31 16.5124 326.658 16.4656 326.909 16.3721C327.161 16.2813 327.354 16.1328 327.485 15.9315C327.617 15.73 327.681 15.5086 327.681 15.2721C327.681 14.9255 327.555 14.6369 327.301 14.412C327.048 14.1873 326.646 14.0766 326.1 14.0766H323.763V16.5124Z" fill="#2B2B2A"/>
</g>
<defs>
<clipPath id="clip0_2092_1087">
<rect width="332" height="73" fill="white"/>
</clipPath>
</defs>
</svg>
