<svg width="529" height="451" viewBox="0 0 529 451" fill="none" xmlns="http://www.w3.org/2000/svg">
<g filter="url(#filter0_f_4073_709)">
<path d="M83.9803 12.4045C85.2345 12.5659 86.453 11.7946 86.7018 10.6816C86.9505 9.56865 86.1355 8.53554 84.8813 8.3741C83.6271 8.21266 82.4087 8.98402 82.1599 10.097C81.9111 11.2099 82.7261 12.243 83.9803 12.4045Z" fill="#159771"/>
<path d="M117.352 17.2121C118.607 17.3735 119.825 16.6022 120.074 15.4892C120.323 14.3763 119.508 13.3432 118.253 13.1817C116.999 13.0203 115.781 13.7916 115.532 14.9046C115.283 16.0175 116.098 17.0506 117.352 17.2121Z" fill="#159771"/>
<path d="M150.726 22.0192C151.981 22.1807 153.199 21.4093 153.448 20.2963C153.697 19.1834 152.882 18.1503 151.627 17.9888C150.373 17.8274 149.155 18.5988 148.906 19.7117C148.657 20.8247 149.472 21.8578 150.726 22.0192Z" fill="#159771"/>
<path d="M184.098 26.8266C185.352 26.988 186.57 26.2167 186.819 25.1037C187.068 23.9908 186.253 22.9577 184.998 22.7962C183.744 22.6348 182.526 23.4061 182.277 24.5191C182.028 25.632 182.843 26.6651 184.098 26.8266Z" fill="#159771"/>
<path d="M217.468 31.6337C218.722 31.7952 219.94 31.0238 220.189 29.9108C220.438 28.7979 219.623 27.7648 218.369 27.6033C217.114 27.4419 215.896 28.2133 215.647 29.3262C215.398 30.4392 216.213 31.4723 217.468 31.6337Z" fill="#159771"/>
<path d="M250.843 36.4413C252.097 36.6028 253.315 35.8314 253.564 34.7185C253.813 33.6055 252.998 32.5724 251.744 32.411C250.489 32.2495 249.271 33.0209 249.022 34.1338C248.773 35.2468 249.588 36.2799 250.843 36.4413Z" fill="#159771"/>
<path d="M284.217 41.2487C285.471 41.4102 286.689 40.6388 286.938 39.5258C287.187 38.4129 286.372 37.3798 285.118 37.2183C283.863 37.0569 282.645 37.8283 282.396 38.9412C282.147 40.0542 282.962 41.0873 284.217 41.2487Z" fill="#159771"/>
<path d="M317.588 46.0558C318.842 46.2173 320.06 45.4459 320.309 44.333C320.558 43.22 319.743 42.1869 318.489 42.0255C317.235 41.864 316.016 42.6354 315.767 43.7483C315.519 44.8613 316.334 45.8944 317.588 46.0558Z" fill="#159771"/>
<path d="M350.963 50.8632C352.217 51.0247 353.435 50.2533 353.684 49.1403C353.933 48.0274 353.118 46.9943 351.864 46.8328C350.61 46.6714 349.391 47.4428 349.142 48.5557C348.894 49.6687 349.709 50.7018 350.963 50.8632Z" fill="#159771"/>
<path d="M384.337 55.6703C385.591 55.8318 386.809 55.0604 387.058 53.9475C387.307 52.8345 386.492 51.8014 385.238 51.64C383.984 51.4785 382.765 52.2499 382.516 53.3628C382.268 54.4758 383.083 55.5089 384.337 55.6703Z" fill="#159771"/>
<path d="M417.708 60.478C418.962 60.6394 420.18 59.868 420.429 58.7551C420.678 57.6421 419.863 56.609 418.609 56.4476C417.355 56.2861 416.136 57.0575 415.887 58.1705C415.639 59.2834 416.454 60.3165 417.708 60.478Z" fill="#159771"/>
<path d="M451.079 65.2853C452.333 65.4468 453.552 64.6754 453.8 63.5625C454.049 62.4495 453.234 61.4164 451.98 61.255C450.726 61.0935 449.507 61.8649 449.259 62.9778C449.01 64.0908 449.825 65.1239 451.079 65.2853Z" fill="#159771"/>
<path d="M484.454 70.0929C485.708 70.2544 486.927 69.483 487.175 68.3701C487.424 67.2571 486.609 66.224 485.355 66.0626C484.101 65.9011 482.882 66.6725 482.634 67.7854C482.385 68.8984 483.2 69.9315 484.454 70.0929Z" fill="#159771"/>
<path d="M517.828 74.9001C519.082 75.0615 520.301 74.2902 520.549 73.1772C520.798 72.0643 519.983 71.0312 518.729 70.8697C517.475 70.7083 516.256 71.4796 516.008 72.5926C515.759 73.7055 516.574 74.7386 517.828 74.9001Z" fill="#159771"/>
<path d="M77.8378 43.0595C79.092 43.2209 80.3104 42.4496 80.5592 41.3366C80.808 40.2237 79.9929 39.1906 78.7387 39.0291C77.4845 38.8677 76.2661 39.639 76.0173 40.752C75.7685 41.865 76.5836 42.8981 77.8378 43.0595Z" fill="#159771"/>
<path d="M111.209 47.8669C112.463 48.0283 113.681 47.257 113.93 46.144C114.179 45.031 113.364 43.9979 112.11 43.8365C110.856 43.6751 109.637 44.4464 109.388 45.5594C109.14 46.6723 109.955 47.7054 111.209 47.8669Z" fill="#159771"/>
<path d="M144.583 52.674C145.837 52.8354 147.055 52.0641 147.304 50.9511C147.553 49.8382 146.738 48.8051 145.484 48.6436C144.23 48.4822 143.011 49.2535 142.762 50.3665C142.514 51.4795 143.329 52.5126 144.583 52.674Z" fill="#159771"/>
<path d="M177.953 57.4816C179.207 57.6431 180.426 56.8717 180.674 55.7587C180.923 54.6458 180.108 53.6127 178.854 53.4513C177.6 53.2898 176.381 54.0612 176.133 55.1741C175.884 56.2871 176.699 57.3202 177.953 57.4816Z" fill="#159771"/>
<path d="M211.328 62.289C212.582 62.4504 213.801 61.6791 214.049 60.5661C214.298 59.4532 213.483 58.4201 212.229 58.2586C210.975 58.0972 209.756 58.8685 209.508 59.9815C209.259 61.0944 210.074 62.1275 211.328 62.289Z" fill="#159771"/>
<path d="M244.702 67.0961C245.956 67.2576 247.175 66.4862 247.423 65.3733C247.672 64.2603 246.857 63.2272 245.603 63.0658C244.349 62.9043 243.13 63.6757 242.882 64.7886C242.633 65.9016 243.448 66.9347 244.702 67.0961Z" fill="#159771"/>
<path d="M278.073 71.9035C279.327 72.0649 280.546 71.2936 280.795 70.1806C281.043 69.0677 280.228 68.0346 278.974 67.8731C277.72 67.7117 276.501 68.483 276.253 69.596C276.004 70.7089 276.819 71.7421 278.073 71.9035Z" fill="#159771"/>
<path d="M311.447 76.7111C312.701 76.8726 313.92 76.1012 314.169 74.9882C314.417 73.8753 313.602 72.8422 312.348 72.6807C311.094 72.5193 309.875 73.2907 309.627 74.4036C309.378 75.5166 310.193 76.5497 311.447 76.7111Z" fill="#159771"/>
<path d="M344.819 81.5182C346.073 81.6797 347.292 80.9083 347.541 79.7954C347.789 78.6824 346.974 77.6493 345.72 77.4879C344.466 77.3264 343.248 78.0978 342.999 79.2107C342.75 80.3237 343.565 81.3568 344.819 81.5182Z" fill="#159771"/>
<path d="M378.193 86.3256C379.447 86.4871 380.666 85.7157 380.915 84.6027C381.163 83.4898 380.348 82.4567 379.094 82.2952C377.84 82.1338 376.622 82.9052 376.373 84.0181C376.124 85.1311 376.939 86.1642 378.193 86.3256Z" fill="#159771"/>
<path d="M411.564 91.1332C412.819 91.2947 414.037 90.5233 414.286 89.4104C414.535 88.2974 413.719 87.2643 412.465 87.1029C411.211 86.9414 409.993 87.7128 409.744 88.8257C409.495 89.9387 410.31 90.9718 411.564 91.1332Z" fill="#159771"/>
<path d="M444.939 95.9404C446.194 96.1018 447.412 95.3304 447.661 94.2175C447.91 93.1045 447.094 92.0714 445.84 91.91C444.586 91.7486 443.368 92.5199 443.119 93.6329C442.87 94.7458 443.685 95.7789 444.939 95.9404Z" fill="#159771"/>
<path d="M478.313 100.748C479.568 100.909 480.786 100.138 481.035 99.0251C481.284 97.9122 480.469 96.8791 479.214 96.7176C477.96 96.5562 476.742 97.3275 476.493 98.4405C476.244 99.5534 477.059 100.587 478.313 100.748Z" fill="#159771"/>
<path d="M511.683 105.555C512.938 105.717 514.156 104.945 514.405 103.832C514.654 102.72 513.839 101.686 512.584 101.525C511.33 101.364 510.112 102.135 509.863 103.248C509.614 104.361 510.429 105.394 511.683 105.555Z" fill="#159771"/>
<path d="M71.6932 73.7143C72.9474 73.8757 74.1659 73.1044 74.4146 71.9914C74.6634 70.8785 73.8484 69.8454 72.5942 69.6839C71.34 69.5225 70.1216 70.2938 69.8728 71.4068C69.624 72.5197 70.439 73.5528 71.6932 73.7143Z" fill="#159771"/>
<path d="M105.067 78.5219C106.321 78.6833 107.54 77.912 107.789 76.799C108.037 75.6861 107.222 74.653 105.968 74.4915C104.714 74.3301 103.496 75.1014 103.247 76.2144C102.998 77.3274 103.813 78.3605 105.067 78.5219Z" fill="#159771"/>
<path d="M138.438 83.3293C139.693 83.4907 140.911 82.7194 141.16 81.6064C141.409 80.4935 140.594 79.4603 139.339 79.2989C138.085 79.1375 136.867 79.9088 136.618 81.0218C136.369 82.1347 137.184 83.1678 138.438 83.3293Z" fill="#159771"/>
<path d="M171.813 88.1369C173.068 88.2983 174.286 87.527 174.535 86.414C174.784 85.3011 173.969 84.268 172.714 84.1065C171.46 83.9451 170.242 84.7164 169.993 85.8294C169.744 86.9423 170.559 87.9755 171.813 88.1369Z" fill="#159771"/>
<path d="M205.187 92.944C206.442 93.1055 207.66 92.3341 207.909 91.2212C208.158 90.1082 207.343 89.0751 206.088 88.9137C204.834 88.7522 203.616 89.5236 203.367 90.6365C203.118 91.7495 203.933 92.7826 205.187 92.944Z" fill="#159771"/>
<path d="M238.558 97.7514C239.813 97.9128 241.031 97.1415 241.28 96.0285C241.529 94.9156 240.714 93.8825 239.459 93.721C238.205 93.5596 236.987 94.3309 236.738 95.4439C236.489 96.5569 237.304 97.59 238.558 97.7514Z" fill="#159771"/>
<path d="M271.93 102.559C273.184 102.72 274.402 101.949 274.651 100.836C274.9 99.7227 274.085 98.6896 272.831 98.5282C271.576 98.3667 270.358 99.1381 270.109 100.251C269.86 101.364 270.675 102.397 271.93 102.559Z" fill="#159771"/>
<path d="M305.305 107.366C306.559 107.527 307.777 106.756 308.026 105.643C308.275 104.53 307.46 103.497 306.206 103.336C304.951 103.174 303.733 103.945 303.484 105.058C303.235 106.171 304.05 107.204 305.305 107.366Z" fill="#159771"/>
<path d="M338.679 112.173C339.933 112.334 341.151 111.563 341.4 110.45C341.649 109.337 340.834 108.304 339.58 108.143C338.325 107.981 337.107 108.753 336.858 109.866C336.609 110.978 337.424 112.012 338.679 112.173Z" fill="#159771"/>
<path d="M372.049 116.981C373.303 117.142 374.521 116.371 374.77 115.258C375.019 114.145 374.204 113.112 372.95 112.95C371.695 112.789 370.477 113.56 370.228 114.673C369.979 115.786 370.794 116.819 372.049 116.981Z" fill="#159771"/>
<path d="M405.424 121.788C406.678 121.949 407.896 121.178 408.145 120.065C408.394 118.952 407.579 117.919 406.325 117.758C405.07 117.596 403.852 118.368 403.603 119.481C403.354 120.593 404.169 121.627 405.424 121.788Z" fill="#159771"/>
<path d="M438.798 126.595C440.052 126.757 441.27 125.985 441.519 124.872C441.768 123.759 440.953 122.726 439.699 122.565C438.444 122.403 437.226 123.175 436.977 124.288C436.728 125.401 437.544 126.434 438.798 126.595Z" fill="#159771"/>
<path d="M472.169 131.403C473.423 131.564 474.641 130.793 474.89 129.68C475.139 128.567 474.324 127.534 473.07 127.372C471.816 127.211 470.597 127.982 470.348 129.095C470.1 130.208 470.915 131.241 472.169 131.403Z" fill="#159771"/>
<path d="M505.54 136.21C506.794 136.372 508.013 135.6 508.261 134.487C508.51 133.374 507.695 132.341 506.441 132.18C505.187 132.018 503.968 132.79 503.719 133.903C503.471 135.016 504.286 136.049 505.54 136.21Z" fill="#159771"/>
<path d="M65.5526 104.37C66.8068 104.531 68.0252 103.76 68.274 102.647C68.5228 101.534 67.7078 100.501 66.4536 100.339C65.1994 100.178 63.9809 100.949 63.7321 102.062C63.4833 103.175 64.2984 104.208 65.5526 104.37Z" fill="#159771"/>
<path d="M98.9237 109.177C100.178 109.338 101.396 108.567 101.645 107.454C101.894 106.341 101.079 105.308 99.8246 105.146C98.5704 104.985 97.352 105.756 97.1032 106.869C96.8544 107.982 97.6695 109.015 98.9237 109.177Z" fill="#159771"/>
<path d="M132.299 113.984C133.553 114.146 134.771 113.374 135.02 112.261C135.269 111.148 134.454 110.115 133.2 109.954C131.945 109.792 130.727 110.564 130.478 111.677C130.229 112.79 131.044 113.823 132.299 113.984Z" fill="#159771"/>
<path d="M165.673 118.792C166.927 118.953 168.145 118.182 168.394 117.069C168.643 115.956 167.828 114.923 166.574 114.761C165.319 114.6 164.101 115.371 163.852 116.484C163.603 117.597 164.419 118.63 165.673 118.792Z" fill="#159771"/>
<path d="M199.044 123.599C200.298 123.76 201.516 122.989 201.765 121.876C202.014 120.763 201.199 119.73 199.945 119.568C198.691 119.407 197.472 120.178 197.223 121.291C196.975 122.404 197.79 123.437 199.044 123.599Z" fill="#159771"/>
<path d="M232.415 128.406C233.669 128.568 234.888 127.797 235.136 126.684C235.385 125.571 234.57 124.537 233.316 124.376C232.062 124.215 230.843 124.986 230.594 126.099C230.346 127.212 231.161 128.245 232.415 128.406Z" fill="#159771"/>
<path d="M265.79 133.214C267.044 133.375 268.263 132.604 268.511 131.491C268.76 130.378 267.945 129.345 266.691 129.183C265.437 129.022 264.218 129.793 263.969 130.906C263.721 132.019 264.536 133.052 265.79 133.214Z" fill="#159771"/>
<path d="M299.164 138.021C300.418 138.182 301.637 137.411 301.885 136.298C302.134 135.185 301.319 134.152 300.065 133.991C298.811 133.829 297.592 134.6 297.343 135.713C297.095 136.826 297.91 137.859 299.164 138.021Z" fill="#159771"/>
<path d="M332.534 142.828C333.788 142.99 335.007 142.218 335.255 141.105C335.504 139.992 334.689 138.959 333.435 138.798C332.181 138.636 330.962 139.408 330.714 140.521C330.465 141.634 331.28 142.667 332.534 142.828Z" fill="#159771"/>
<path d="M365.908 147.636C367.162 147.797 368.381 147.026 368.629 145.913C368.878 144.8 368.063 143.767 366.809 143.606C365.555 143.444 364.336 144.215 364.088 145.328C363.839 146.441 364.654 147.474 365.908 147.636Z" fill="#159771"/>
<path d="M399.283 152.443C400.537 152.604 401.756 151.833 402.004 150.72C402.253 149.607 401.438 148.574 400.184 148.413C398.93 148.251 397.711 149.023 397.463 150.136C397.214 151.249 398.029 152.282 399.283 152.443Z" fill="#159771"/>
<path d="M432.654 157.25C433.908 157.412 435.127 156.64 435.376 155.527C435.624 154.414 434.809 153.381 433.555 153.22C432.301 153.058 431.082 153.83 430.834 154.943C430.585 156.056 431.4 157.089 432.654 157.25Z" fill="#159771"/>
<path d="M466.025 162.058C467.279 162.219 468.498 161.448 468.747 160.335C468.995 159.222 468.18 158.189 466.926 158.028C465.672 157.866 464.454 158.638 464.205 159.751C463.956 160.863 464.771 161.897 466.025 162.058Z" fill="#159771"/>
<path d="M499.4 166.865C500.654 167.027 501.873 166.255 502.122 165.142C502.37 164.029 501.555 162.996 500.301 162.835C499.047 162.673 497.829 163.445 497.58 164.558C497.331 165.671 498.146 166.704 499.4 166.865Z" fill="#159771"/>
<path d="M59.409 135.024C60.6633 135.186 61.8817 134.414 62.1305 133.301C62.3793 132.189 61.5642 131.155 60.31 130.994C59.0558 130.833 57.8374 131.604 57.5886 132.717C57.3398 133.83 58.1548 134.863 59.409 135.024Z" fill="#159771"/>
<path d="M92.7831 139.832C94.0373 139.993 95.2557 139.222 95.5045 138.109C95.7533 136.996 94.9382 135.963 93.684 135.802C92.4298 135.64 91.2114 136.411 90.9626 137.524C90.7138 138.637 91.5289 139.671 92.7831 139.832Z" fill="#159771"/>
<path d="M126.158 144.639C127.412 144.801 128.631 144.029 128.879 142.916C129.128 141.803 128.313 140.77 127.059 140.609C125.805 140.447 124.586 141.219 124.338 142.332C124.089 143.445 124.904 144.478 126.158 144.639Z" fill="#159771"/>
<path d="M159.529 149.447C160.783 149.608 162.002 148.837 162.251 147.724C162.499 146.611 161.684 145.578 160.43 145.416C159.176 145.255 157.957 146.026 157.709 147.139C157.46 148.252 158.275 149.285 159.529 149.447Z" fill="#159771"/>
<path d="M192.9 154.254C194.154 154.416 195.373 153.644 195.622 152.531C195.87 151.418 195.055 150.385 193.801 150.224C192.547 150.062 191.329 150.834 191.08 151.947C190.831 153.06 191.646 154.093 192.9 154.254Z" fill="#159771"/>
<path d="M226.275 159.061C227.529 159.223 228.748 158.452 228.997 157.339C229.245 156.226 228.43 155.193 227.176 155.031C225.922 154.87 224.704 155.641 224.455 156.754C224.206 157.867 225.021 158.9 226.275 159.061Z" fill="#159771"/>
<path d="M259.649 163.869C260.903 164.03 262.122 163.259 262.371 162.146C262.619 161.033 261.804 160 260.55 159.838C259.296 159.677 258.078 160.448 257.829 161.561C257.58 162.674 258.395 163.707 259.649 163.869Z" fill="#159771"/>
<path d="M293.019 168.676C294.274 168.838 295.492 168.066 295.741 166.953C295.99 165.84 295.175 164.807 293.92 164.646C292.666 164.484 291.448 165.256 291.199 166.369C290.95 167.482 291.765 168.515 293.019 168.676Z" fill="#159771"/>
<path d="M326.393 173.483C327.648 173.645 328.866 172.873 329.115 171.76C329.364 170.647 328.549 169.614 327.294 169.453C326.04 169.291 324.822 170.063 324.573 171.176C324.324 172.289 325.139 173.322 326.393 173.483Z" fill="#159771"/>
<path d="M359.768 178.291C361.023 178.452 362.241 177.681 362.49 176.568C362.739 175.455 361.924 174.422 360.669 174.26C359.415 174.099 358.197 174.87 357.948 175.983C357.699 177.096 358.514 178.129 359.768 178.291Z" fill="#159771"/>
<path d="M393.14 183.098C394.394 183.259 395.612 182.488 395.861 181.375C396.11 180.262 395.295 179.229 394.04 179.067C392.786 178.906 391.568 179.677 391.319 180.79C391.07 181.903 391.885 182.936 393.14 183.098Z" fill="#159771"/>
<path d="M426.511 187.905C427.765 188.067 428.983 187.296 429.232 186.183C429.481 185.07 428.666 184.037 427.412 183.875C426.157 183.714 424.939 184.485 424.69 185.598C424.441 186.711 425.256 187.744 426.511 187.905Z" fill="#159771"/>
<path d="M459.885 192.713C461.139 192.874 462.357 192.103 462.606 190.99C462.855 189.877 462.04 188.844 460.786 188.682C459.531 188.521 458.313 189.292 458.064 190.405C457.815 191.518 458.63 192.551 459.885 192.713Z" fill="#159771"/>
<path d="M493.257 197.52C494.511 197.681 495.729 196.91 495.978 195.797C496.227 194.684 495.412 193.651 494.158 193.49C492.903 193.328 491.685 194.099 491.436 195.212C491.187 196.325 492.003 197.359 493.257 197.52Z" fill="#159771"/>
<path d="M53.2684 165.679C54.5226 165.841 55.741 165.069 55.9898 163.957C56.2386 162.844 55.4236 161.81 54.1694 161.649C52.9152 161.488 51.6968 162.259 51.448 163.372C51.1992 164.485 52.0142 165.518 53.2684 165.679Z" fill="#159771"/>
<path d="M86.6434 170.487C87.8976 170.648 89.116 169.877 89.3648 168.764C89.6136 167.651 88.7986 166.618 87.5444 166.456C86.2902 166.295 85.0718 167.066 84.823 168.179C84.5742 169.292 85.3892 170.325 86.6434 170.487Z" fill="#159771"/>
<path d="M120.015 175.294C121.269 175.456 122.487 174.684 122.736 173.572C122.985 172.459 122.17 171.425 120.915 171.264C119.661 171.103 118.443 171.874 118.194 172.987C117.945 174.1 118.76 175.133 120.015 175.294Z" fill="#159771"/>
<path d="M153.385 180.101C154.639 180.263 155.857 179.492 156.106 178.379C156.355 177.266 155.54 176.233 154.286 176.071C153.031 175.91 151.813 176.681 151.564 177.794C151.315 178.907 152.13 179.94 153.385 180.101Z" fill="#159771"/>
<path d="M186.759 184.909C188.013 185.07 189.231 184.299 189.48 183.186C189.729 182.073 188.914 181.04 187.66 180.878C186.405 180.717 185.187 181.488 184.938 182.601C184.689 183.714 185.504 184.747 186.759 184.909Z" fill="#159771"/>
<path d="M220.134 189.716C221.388 189.878 222.606 189.107 222.855 187.994C223.104 186.881 222.289 185.848 221.035 185.686C219.78 185.525 218.562 186.296 218.313 187.409C218.064 188.522 218.879 189.555 220.134 189.716Z" fill="#159771"/>
<path d="M253.505 194.524C254.759 194.685 255.977 193.914 256.226 192.801C256.475 191.688 255.66 190.655 254.406 190.493C253.152 190.332 251.933 191.103 251.684 192.216C251.435 193.329 252.251 194.362 253.505 194.524Z" fill="#159771"/>
<path d="M286.879 199.331C288.133 199.493 289.351 198.721 289.6 197.608C289.849 196.495 289.034 195.462 287.78 195.301C286.526 195.139 285.307 195.911 285.058 197.024C284.81 198.137 285.625 199.17 286.879 199.331Z" fill="#159771"/>
<path d="M320.251 204.139C321.505 204.3 322.723 203.529 322.972 202.416C323.221 201.303 322.406 200.27 321.152 200.108C319.898 199.947 318.679 200.718 318.43 201.831C318.182 202.944 318.997 203.977 320.251 204.139Z" fill="#159771"/>
<path d="M353.625 208.946C354.879 209.107 356.097 208.336 356.346 207.223C356.595 206.11 355.78 205.077 354.526 204.915C353.272 204.754 352.053 205.525 351.804 206.638C351.556 207.751 352.371 208.784 353.625 208.946Z" fill="#159771"/>
<path d="M386.996 213.753C388.25 213.915 389.469 213.143 389.717 212.03C389.966 210.917 389.151 209.884 387.897 209.723C386.643 209.561 385.424 210.333 385.175 211.446C384.927 212.559 385.742 213.592 386.996 213.753Z" fill="#159771"/>
<path d="M420.37 218.561C421.624 218.722 422.843 217.951 423.091 216.838C423.34 215.725 422.525 214.692 421.271 214.53C420.017 214.369 418.798 215.14 418.55 216.253C418.301 217.366 419.116 218.399 420.37 218.561Z" fill="#159771"/>
<path d="M453.742 223.368C454.996 223.529 456.215 222.758 456.463 221.645C456.712 220.532 455.897 219.499 454.643 219.337C453.389 219.176 452.17 219.947 451.922 221.06C451.673 222.173 452.488 223.206 453.742 223.368Z" fill="#159771"/>
<path d="M487.116 228.175C488.37 228.337 489.589 227.565 489.838 226.452C490.086 225.339 489.271 224.306 488.017 224.145C486.763 223.983 485.544 224.755 485.296 225.868C485.047 226.981 485.862 228.014 487.116 228.175Z" fill="#159771"/>
<path d="M47.1258 196.335C48.3801 196.496 49.5985 195.725 49.8473 194.612C50.0961 193.499 49.281 192.466 48.0268 192.304C46.7726 192.143 45.5542 192.914 45.3054 194.027C45.0566 195.14 45.8716 196.173 47.1258 196.335Z" fill="#159771"/>
<path d="M80.4999 201.142C81.7541 201.303 82.9725 200.532 83.2213 199.419C83.4701 198.306 82.655 197.273 81.4008 197.111C80.1466 196.95 78.9282 197.721 78.6794 198.834C78.4306 199.947 79.2457 200.98 80.4999 201.142Z" fill="#159771"/>
<path d="M113.87 205.949C115.124 206.111 116.343 205.339 116.591 204.226C116.84 203.113 116.025 202.08 114.771 201.919C113.517 201.757 112.298 202.529 112.05 203.642C111.801 204.755 112.616 205.788 113.87 205.949Z" fill="#159771"/>
<path d="M147.244 210.757C148.498 210.918 149.717 210.147 149.965 209.034C150.214 207.921 149.399 206.888 148.145 206.726C146.891 206.565 145.672 207.336 145.424 208.449C145.175 209.562 145.99 210.595 147.244 210.757Z" fill="#159771"/>
<path d="M180.619 215.564C181.873 215.725 183.092 214.954 183.34 213.841C183.589 212.728 182.774 211.695 181.52 211.534C180.266 211.372 179.047 212.143 178.799 213.256C178.55 214.369 179.365 215.402 180.619 215.564Z" fill="#159771"/>
<path d="M213.99 220.372C215.244 220.533 216.463 219.762 216.712 218.649C216.96 217.536 216.145 216.503 214.891 216.341C213.637 216.18 212.418 216.951 212.17 218.064C211.921 219.177 212.736 220.21 213.99 220.372Z" fill="#159771"/>
<path d="M247.361 225.178C248.615 225.34 249.834 224.568 250.083 223.456C250.331 222.343 249.516 221.309 248.262 221.148C247.008 220.987 245.79 221.758 245.541 222.871C245.292 223.984 246.107 225.017 247.361 225.178Z" fill="#159771"/>
<path d="M280.736 229.986C281.99 230.147 283.209 229.376 283.458 228.263C283.706 227.15 282.891 226.117 281.637 225.956C280.383 225.794 279.165 226.566 278.916 227.679C278.667 228.791 279.482 229.825 280.736 229.986Z" fill="#159771"/>
<path d="M314.11 234.793C315.364 234.955 316.583 234.183 316.832 233.071C317.08 231.958 316.265 230.924 315.011 230.763C313.757 230.602 312.539 231.373 312.29 232.486C312.041 233.599 312.856 234.632 314.11 234.793Z" fill="#159771"/>
<path d="M347.481 239.601C348.735 239.762 349.954 238.991 350.203 237.878C350.452 236.765 349.636 235.732 348.382 235.571C347.128 235.409 345.91 236.181 345.661 237.293C345.412 238.406 346.227 239.44 347.481 239.601Z" fill="#159771"/>
<path d="M380.855 244.408C382.11 244.57 383.328 243.798 383.577 242.685C383.826 241.572 383.011 240.539 381.756 240.378C380.502 240.216 379.284 240.988 379.035 242.101C378.786 243.214 379.601 244.247 380.855 244.408Z" fill="#159771"/>
<path d="M414.226 249.215C415.481 249.377 416.699 248.606 416.948 247.493C417.197 246.38 416.382 245.347 415.127 245.185C413.873 245.024 412.655 245.795 412.406 246.908C412.157 248.021 412.972 249.054 414.226 249.215Z" fill="#159771"/>
<path d="M447.6 254.023C448.855 254.184 450.073 253.413 450.322 252.3C450.571 251.187 449.756 250.154 448.501 249.992C447.247 249.831 446.029 250.602 445.78 251.715C445.531 252.828 446.346 253.861 447.6 254.023Z" fill="#159771"/>
<path d="M480.972 258.83C482.226 258.992 483.444 258.22 483.693 257.107C483.942 255.994 483.127 254.961 481.873 254.8C480.618 254.638 479.4 255.41 479.151 256.523C478.902 257.636 479.717 258.669 480.972 258.83Z" fill="#159771"/>
<path d="M40.9842 226.989C42.2384 227.151 43.4569 226.38 43.7057 225.267C43.9545 224.154 43.1394 223.121 41.8852 222.959C40.631 222.798 39.4126 223.569 39.1638 224.682C38.915 225.795 39.73 226.828 40.9842 226.989Z" fill="#159771"/>
<path d="M74.3553 231.797C75.6095 231.958 76.828 231.187 77.0768 230.074C77.3255 228.961 76.5105 227.928 75.2563 227.766C74.0021 227.605 72.7837 228.376 72.5349 229.489C72.2861 230.602 73.1011 231.635 74.3553 231.797Z" fill="#159771"/>
<path d="M107.729 236.604C108.984 236.766 110.202 235.994 110.451 234.881C110.7 233.768 109.885 232.735 108.63 232.574C107.376 232.412 106.158 233.184 105.909 234.297C105.66 235.41 106.475 236.443 107.729 236.604Z" fill="#159771"/>
<path d="M141.104 241.412C142.359 241.573 143.577 240.802 143.826 239.689C144.075 238.576 143.26 237.543 142.005 237.381C140.751 237.22 139.533 237.991 139.284 239.104C139.035 240.217 139.85 241.25 141.104 241.412Z" fill="#159771"/>
<path d="M174.475 246.219C175.73 246.381 176.948 245.609 177.197 244.496C177.446 243.383 176.631 242.35 175.376 242.189C174.122 242.027 172.904 242.799 172.655 243.912C172.406 245.025 173.221 246.058 174.475 246.219Z" fill="#159771"/>
<path d="M207.847 251.026C209.101 251.188 210.319 250.416 210.568 249.303C210.817 248.19 210.002 247.157 208.748 246.996C207.493 246.834 206.275 247.606 206.026 248.719C205.777 249.832 206.592 250.865 207.847 251.026Z" fill="#159771"/>
<path d="M241.221 255.834C242.475 255.995 243.693 255.224 243.942 254.111C244.191 252.998 243.376 251.965 242.122 251.803C240.867 251.642 239.649 252.413 239.4 253.526C239.151 254.639 239.966 255.672 241.221 255.834Z" fill="#159771"/>
<path d="M274.596 260.641C275.85 260.803 277.068 260.031 277.317 258.918C277.566 257.805 276.751 256.772 275.497 256.611C274.242 256.449 273.024 257.221 272.775 258.334C272.526 259.447 273.341 260.48 274.596 260.641Z" fill="#159771"/>
<path d="M307.967 265.448C309.221 265.61 310.439 264.838 310.688 263.726C310.937 262.613 310.122 261.579 308.868 261.418C307.613 261.257 306.395 262.028 306.146 263.141C305.897 264.254 306.712 265.287 307.967 265.448Z" fill="#159771"/>
<path d="M341.341 270.256C342.595 270.417 343.813 269.646 344.062 268.533C344.311 267.42 343.496 266.387 342.242 266.226C340.987 266.064 339.769 266.836 339.52 267.949C339.271 269.061 340.086 270.095 341.341 270.256Z" fill="#159771"/>
<path d="M374.712 275.063C375.966 275.224 377.184 274.453 377.433 273.34C377.682 272.227 376.867 271.194 375.613 271.033C374.359 270.871 373.14 271.642 372.891 272.755C372.643 273.868 373.458 274.901 374.712 275.063Z" fill="#159771"/>
<path d="M408.083 279.871C409.337 280.032 410.555 279.261 410.804 278.148C411.053 277.035 410.238 276.002 408.984 275.84C407.73 275.679 406.511 276.45 406.262 277.563C406.014 278.676 406.829 279.709 408.083 279.871Z" fill="#159771"/>
<path d="M441.457 284.677C442.711 284.839 443.93 284.068 444.178 282.955C444.427 281.842 443.612 280.808 442.358 280.647C441.104 280.486 439.885 281.257 439.636 282.37C439.388 283.483 440.203 284.516 441.457 284.677Z" fill="#159771"/>
<path d="M474.831 289.485C476.085 289.646 477.304 288.875 477.552 287.762C477.801 286.649 476.986 285.616 475.732 285.455C474.478 285.293 473.259 286.065 473.01 287.178C472.762 288.29 473.577 289.324 474.831 289.485Z" fill="#159771"/>
<path d="M34.8407 257.644C36.0949 257.806 37.3133 257.035 37.5621 255.922C37.8109 254.809 36.9958 253.776 35.7416 253.614C34.4874 253.453 33.269 254.224 33.0202 255.337C32.7714 256.45 33.5865 257.483 34.8407 257.644Z" fill="#159771"/>
<path d="M68.2147 262.452C69.4689 262.614 70.6873 261.842 70.9361 260.729C71.1849 259.616 70.3699 258.583 69.1157 258.422C67.8615 258.26 66.643 259.032 66.3943 260.145C66.1455 261.258 66.9605 262.291 68.2147 262.452Z" fill="#159771"/>
<path d="M101.59 267.259C102.844 267.421 104.062 266.65 104.311 265.537C104.56 264.424 103.745 263.391 102.491 263.229C101.236 263.068 100.018 263.839 99.7693 264.952C99.5205 266.065 100.336 267.098 101.59 267.259Z" fill="#159771"/>
<path d="M134.961 272.067C136.215 272.228 137.433 271.457 137.682 270.344C137.931 269.231 137.116 268.198 135.862 268.036C134.608 267.875 133.389 268.646 133.14 269.759C132.892 270.872 133.707 271.905 134.961 272.067Z" fill="#159771"/>
<path d="M168.332 276.874C169.586 277.035 170.805 276.264 171.053 275.151C171.302 274.038 170.487 273.005 169.233 272.844C167.979 272.682 166.76 273.453 166.511 274.566C166.263 275.679 167.078 276.712 168.332 276.874Z" fill="#159771"/>
<path d="M201.706 281.681C202.96 281.843 204.179 281.071 204.427 279.958C204.676 278.845 203.861 277.812 202.607 277.651C201.353 277.489 200.134 278.261 199.885 279.374C199.637 280.487 200.452 281.52 201.706 281.681Z" fill="#159771"/>
<path d="M235.081 286.489C236.335 286.65 237.554 285.879 237.802 284.766C238.051 283.653 237.236 282.62 235.982 282.458C234.728 282.297 233.509 283.068 233.26 284.181C233.012 285.294 233.827 286.327 235.081 286.489Z" fill="#159771"/>
<path d="M268.451 291.296C269.705 291.457 270.924 290.686 271.172 289.573C271.421 288.46 270.606 287.427 269.352 287.266C268.098 287.104 266.879 287.876 266.631 288.989C266.382 290.102 267.197 291.135 268.451 291.296Z" fill="#159771"/>
<path d="M301.825 296.103C303.079 296.265 304.298 295.493 304.546 294.38C304.795 293.267 303.98 292.234 302.726 292.073C301.472 291.911 300.253 292.683 300.005 293.796C299.756 294.909 300.571 295.942 301.825 296.103Z" fill="#159771"/>
<path d="M335.197 300.911C336.451 301.072 337.67 300.301 337.919 299.188C338.167 298.075 337.352 297.042 336.098 296.88C334.844 296.719 333.625 297.49 333.377 298.603C333.128 299.716 333.943 300.749 335.197 300.911Z" fill="#159771"/>
<path d="M368.568 305.718C369.822 305.88 371.041 305.108 371.29 303.995C371.538 302.882 370.723 301.849 369.469 301.688C368.215 301.526 366.997 302.298 366.748 303.411C366.499 304.524 367.314 305.557 368.568 305.718Z" fill="#159771"/>
<path d="M401.942 310.526C403.196 310.687 404.415 309.916 404.664 308.803C404.912 307.69 404.097 306.657 402.843 306.495C401.589 306.334 400.371 307.105 400.122 308.218C399.873 309.331 400.688 310.364 401.942 310.526Z" fill="#159771"/>
<path d="M435.316 315.333C436.57 315.494 437.789 314.723 438.038 313.61C438.287 312.497 437.471 311.464 436.217 311.303C434.963 311.141 433.745 311.912 433.496 313.025C433.247 314.138 434.062 315.171 435.316 315.333Z" fill="#159771"/>
<path d="M468.688 320.141C469.943 320.302 471.161 319.531 471.41 318.418C471.659 317.305 470.844 316.272 469.589 316.11C468.335 315.949 467.117 316.72 466.868 317.833C466.619 318.946 467.434 319.979 468.688 320.141Z" fill="#159771"/>
<path d="M28.7001 288.3C29.9543 288.461 31.1727 287.69 31.4215 286.577C31.6703 285.464 30.8552 284.431 29.601 284.269C28.3468 284.108 27.1284 284.879 26.8796 285.992C26.6308 287.105 27.4459 288.138 28.7001 288.3Z" fill="#159771"/>
<path d="M62.0712 293.107C63.3254 293.268 64.5438 292.497 64.7926 291.384C65.0414 290.271 64.2263 289.238 62.9721 289.076C61.7179 288.915 60.4995 289.686 60.2507 290.799C60.0019 291.912 60.8169 292.945 62.0712 293.107Z" fill="#159771"/>
<path d="M95.4462 297.914C96.7004 298.076 97.9188 297.304 98.1676 296.191C98.4164 295.078 97.6013 294.045 96.3471 293.884C95.0929 293.722 93.8745 294.494 93.6257 295.607C93.3769 296.72 94.1919 297.753 95.4462 297.914Z" fill="#159771"/>
<path d="M128.817 302.721C130.071 302.883 131.29 302.111 131.539 300.999C131.787 299.886 130.972 298.852 129.718 298.691C128.464 298.53 127.246 299.301 126.997 300.414C126.748 301.527 127.563 302.56 128.817 302.721Z" fill="#159771"/>
<path d="M162.191 307.529C163.445 307.69 164.664 306.919 164.913 305.806C165.161 304.693 164.346 303.66 163.092 303.499C161.838 303.337 160.62 304.109 160.371 305.221C160.122 306.334 160.937 307.368 162.191 307.529Z" fill="#159771"/>
<path d="M195.566 312.336C196.82 312.498 198.039 311.726 198.288 310.613C198.536 309.501 197.721 308.467 196.467 308.306C195.213 308.145 193.995 308.916 193.746 310.029C193.497 311.142 194.312 312.175 195.566 312.336Z" fill="#159771"/>
<path d="M228.936 317.144C230.191 317.305 231.409 316.534 231.658 315.421C231.907 314.308 231.092 313.275 229.837 313.113C228.583 312.952 227.365 313.723 227.116 314.836C226.867 315.949 227.682 316.982 228.936 317.144Z" fill="#159771"/>
<path d="M262.31 321.951C263.565 322.113 264.783 321.341 265.032 320.228C265.281 319.115 264.466 318.082 263.211 317.921C261.957 317.759 260.739 318.531 260.49 319.644C260.241 320.757 261.056 321.79 262.31 321.951Z" fill="#159771"/>
<path d="M295.681 326.758C296.936 326.92 298.154 326.149 298.403 325.036C298.652 323.923 297.837 322.89 296.582 322.728C295.328 322.567 294.11 323.338 293.861 324.451C293.612 325.564 294.427 326.597 295.681 326.758Z" fill="#159771"/>
<path d="M329.054 331.566C330.308 331.728 331.526 330.956 331.775 329.843C332.024 328.73 331.209 327.697 329.955 327.536C328.7 327.374 327.482 328.146 327.233 329.259C326.984 330.372 327.799 331.405 329.054 331.566Z" fill="#159771"/>
<path d="M362.428 336.373C363.682 336.535 364.9 335.763 365.149 334.65C365.398 333.537 364.583 332.504 363.329 332.343C362.074 332.181 360.856 332.953 360.607 334.066C360.358 335.179 361.173 336.212 362.428 336.373Z" fill="#159771"/>
<path d="M395.802 341.18C397.056 341.342 398.274 340.57 398.523 339.457C398.772 338.345 397.957 337.311 396.703 337.15C395.448 336.989 394.23 337.76 393.981 338.873C393.732 339.986 394.547 341.019 395.802 341.18Z" fill="#159771"/>
<path d="M429.174 345.988C430.428 346.149 431.646 345.378 431.895 344.265C432.144 343.152 431.329 342.119 430.075 341.957C428.82 341.796 427.602 342.567 427.353 343.68C427.104 344.793 427.919 345.826 429.174 345.988Z" fill="#159771"/>
<path d="M462.548 350.795C463.802 350.957 465.02 350.185 465.269 349.072C465.518 347.96 464.703 346.926 463.449 346.765C462.194 346.604 460.976 347.375 460.727 348.488C460.478 349.601 461.294 350.634 462.548 350.795Z" fill="#159771"/>
<path d="M22.5565 318.955C23.8107 319.116 25.0291 318.345 25.2779 317.232C25.5267 316.119 24.7117 315.086 23.4575 314.924C22.2033 314.763 20.9848 315.534 20.736 316.647C20.4873 317.76 21.3023 318.793 22.5565 318.955Z" fill="#159771"/>
<path d="M55.9315 323.762C57.1857 323.924 58.4041 323.152 58.6529 322.039C58.9017 320.926 58.0867 319.893 56.8325 319.732C55.5783 319.57 54.3598 320.342 54.111 321.455C53.8623 322.568 54.6773 323.601 55.9315 323.762Z" fill="#159771"/>
<path d="M89.3026 328.569C90.5568 328.731 91.7752 327.959 92.024 326.846C92.2728 325.733 91.4578 324.7 90.2036 324.539C88.9493 324.377 87.7309 325.149 87.4821 326.262C87.2333 327.375 88.0484 328.408 89.3026 328.569Z" fill="#159771"/>
<path d="M122.676 333.377C123.93 333.538 125.148 332.767 125.397 331.654C125.646 330.541 124.831 329.508 123.577 329.347C122.322 329.185 121.104 329.956 120.855 331.069C120.606 332.182 121.421 333.215 122.676 333.377Z" fill="#159771"/>
<path d="M156.051 338.184C157.305 338.346 158.523 337.574 158.772 336.461C159.021 335.348 158.206 334.315 156.952 334.154C155.697 333.992 154.479 334.764 154.23 335.877C153.981 336.99 154.796 338.023 156.051 338.184Z" fill="#159771"/>
<path d="M189.422 342.991C190.676 343.153 191.894 342.381 192.143 341.269C192.392 340.156 191.577 339.122 190.323 338.961C189.069 338.8 187.85 339.571 187.601 340.684C187.352 341.797 188.168 342.83 189.422 342.991Z" fill="#159771"/>
<path d="M222.793 347.799C224.047 347.96 225.265 347.189 225.514 346.076C225.763 344.963 224.948 343.93 223.694 343.768C222.44 343.607 221.221 344.378 220.972 345.491C220.724 346.604 221.539 347.637 222.793 347.799Z" fill="#159771"/>
<path d="M256.167 352.606C257.421 352.767 258.639 351.996 258.888 350.883C259.137 349.77 258.322 348.737 257.068 348.576C255.814 348.414 254.595 349.185 254.346 350.298C254.098 351.411 254.913 352.444 256.167 352.606Z" fill="#159771"/>
<path d="M289.539 357.413C290.793 357.575 292.012 356.804 292.26 355.691C292.509 354.578 291.694 353.545 290.44 353.383C289.186 353.222 287.967 353.993 287.718 355.106C287.47 356.219 288.285 357.252 289.539 357.413Z" fill="#159771"/>
<path d="M322.913 362.221C324.167 362.382 325.386 361.611 325.634 360.498C325.883 359.385 325.068 358.352 323.814 358.191C322.56 358.029 321.341 358.8 321.092 359.913C320.844 361.026 321.659 362.059 322.913 362.221Z" fill="#159771"/>
<path d="M356.287 367.028C357.541 367.189 358.76 366.418 359.008 365.305C359.257 364.192 358.442 363.159 357.188 362.998C355.934 362.836 354.715 363.608 354.467 364.721C354.218 365.833 355.033 366.867 356.287 367.028Z" fill="#159771"/>
<path d="M389.658 371.836C390.912 371.997 392.131 371.226 392.379 370.113C392.628 369 391.813 367.967 390.559 367.805C389.305 367.644 388.086 368.415 387.838 369.528C387.589 370.641 388.404 371.674 389.658 371.836Z" fill="#159771"/>
<path d="M423.033 376.643C424.287 376.804 425.506 376.033 425.755 374.92C426.003 373.807 425.188 372.774 423.934 372.613C422.68 372.451 421.461 373.223 421.213 374.336C420.964 375.448 421.779 376.482 423.033 376.643Z" fill="#159771"/>
<path d="M456.403 381.451C457.657 381.612 458.876 380.841 459.125 379.728C459.373 378.615 458.558 377.582 457.304 377.42C456.05 377.259 454.832 378.03 454.583 379.143C454.334 380.256 455.149 381.289 456.403 381.451Z" fill="#159771"/>
<path d="M16.4169 349.61C17.6711 349.771 18.8895 349 19.1383 347.887C19.3871 346.774 18.572 345.741 17.3178 345.579C16.0636 345.418 14.8452 346.189 14.5964 347.302C14.3476 348.415 15.1627 349.448 16.4169 349.61Z" fill="#159771"/>
<path d="M49.787 354.417C51.0412 354.578 52.2596 353.807 52.5084 352.694C52.7572 351.581 51.9421 350.548 50.6879 350.387C49.4337 350.225 48.2153 350.996 47.9665 352.109C47.7177 353.222 48.5328 354.255 49.787 354.417Z" fill="#159771"/>
<path d="M83.161 359.224C84.4152 359.386 85.6336 358.614 85.8824 357.501C86.1312 356.388 85.3162 355.355 84.062 355.194C82.8077 355.032 81.5893 355.804 81.3405 356.917C81.0918 358.03 81.9068 359.063 83.161 359.224Z" fill="#159771"/>
<path d="M116.535 364.032C117.789 364.193 119.008 363.422 119.256 362.309C119.505 361.196 118.69 360.163 117.436 360.001C116.182 359.84 114.963 360.611 114.715 361.724C114.466 362.837 115.281 363.87 116.535 364.032Z" fill="#159771"/>
<path d="M149.907 368.839C151.161 369 152.38 368.229 152.629 367.116C152.877 366.003 152.062 364.97 150.808 364.809C149.554 364.647 148.335 365.419 148.087 366.532C147.838 367.644 148.653 368.678 149.907 368.839Z" fill="#159771"/>
<path d="M183.278 373.646C184.532 373.807 185.751 373.036 186 371.923C186.248 370.81 185.433 369.777 184.179 369.616C182.925 369.454 181.707 370.225 181.458 371.338C181.209 372.451 182.024 373.484 183.278 373.646Z" fill="#159771"/>
<path d="M216.652 378.454C217.906 378.615 219.125 377.844 219.374 376.731C219.622 375.618 218.807 374.585 217.553 374.423C216.299 374.262 215.081 375.033 214.832 376.146C214.583 377.259 215.398 378.292 216.652 378.454Z" fill="#159771"/>
<path d="M250.024 383.261C251.278 383.423 252.497 382.651 252.746 381.538C252.994 380.425 252.179 379.392 250.925 379.231C249.671 379.069 248.453 379.841 248.204 380.954C247.955 382.067 248.77 383.1 250.024 383.261Z" fill="#159771"/>
<path d="M283.398 388.068C284.653 388.23 285.871 387.458 286.12 386.345C286.369 385.232 285.553 384.199 284.299 384.038C283.045 383.876 281.827 384.648 281.578 385.761C281.329 386.874 282.144 387.907 283.398 388.068Z" fill="#159771"/>
<path d="M316.772 392.876C318.027 393.037 319.245 392.266 319.494 391.153C319.743 390.04 318.927 389.007 317.673 388.846C316.419 388.684 315.201 389.455 314.952 390.568C314.703 391.681 315.518 392.714 316.772 392.876Z" fill="#159771"/>
<path d="M350.142 397.683C351.397 397.845 352.615 397.073 352.864 395.96C353.113 394.847 352.298 393.814 351.043 393.653C349.789 393.491 348.571 394.263 348.322 395.376C348.073 396.489 348.888 397.522 350.142 397.683Z" fill="#159771"/>
<path d="M383.515 402.49C384.769 402.652 385.987 401.88 386.236 400.768C386.485 399.655 385.67 398.621 384.415 398.46C383.161 398.299 381.943 399.07 381.694 400.183C381.445 401.296 382.26 402.329 383.515 402.49Z" fill="#159771"/>
<path d="M416.889 407.298C418.143 407.459 419.361 406.688 419.61 405.575C419.859 404.462 419.044 403.429 417.79 403.268C416.535 403.106 415.317 403.878 415.068 404.991C414.819 406.103 415.634 407.137 416.889 407.298Z" fill="#159771"/>
<path d="M450.263 412.105C451.517 412.267 452.735 411.495 452.984 410.383C453.233 409.27 452.418 408.236 451.164 408.075C449.909 407.914 448.691 408.685 448.442 409.798C448.193 410.911 449.008 411.944 450.263 412.105Z" fill="#159771"/>
<path d="M10.2723 380.265C11.5265 380.426 12.745 379.655 12.9937 378.542C13.2425 377.429 12.4275 376.396 11.1733 376.234C9.91908 376.073 8.70066 376.844 8.45186 377.957C8.20307 379.07 9.01812 380.103 10.2723 380.265Z" fill="#159771"/>
<path d="M43.6463 385.072C44.9006 385.233 46.119 384.462 46.3678 383.349C46.6166 382.236 45.8015 381.203 44.5473 381.042C43.2931 380.88 42.0747 381.652 41.8259 382.764C41.5771 383.877 42.3921 384.911 43.6463 385.072Z" fill="#159771"/>
<path d="M77.0204 389.88C78.2746 390.041 79.493 389.27 79.7418 388.157C79.9906 387.044 79.1755 386.011 77.9213 385.849C76.6671 385.688 75.4487 386.459 75.1999 387.572C74.9511 388.685 75.7662 389.718 77.0204 389.88Z" fill="#159771"/>
<path d="M110.392 394.687C111.647 394.848 112.865 394.077 113.114 392.964C113.363 391.851 112.548 390.818 111.293 390.656C110.039 390.495 108.821 391.266 108.572 392.379C108.323 393.492 109.138 394.525 110.392 394.687Z" fill="#159771"/>
<path d="M143.764 399.494C145.018 399.655 146.236 398.884 146.485 397.771C146.734 396.658 145.919 395.625 144.664 395.463C143.41 395.302 142.192 396.073 141.943 397.186C141.694 398.299 142.509 399.332 143.764 399.494Z" fill="#159771"/>
<path d="M177.138 404.301C178.392 404.463 179.61 403.692 179.859 402.579C180.108 401.466 179.293 400.433 178.039 400.271C176.784 400.11 175.566 400.881 175.317 401.994C175.068 403.107 175.883 404.14 177.138 404.301Z" fill="#159771"/>
<path d="M210.509 409.109C211.763 409.27 212.981 408.499 213.23 407.386C213.479 406.273 212.664 405.24 211.41 405.078C210.155 404.917 208.937 405.688 208.688 406.801C208.439 407.914 209.254 408.947 210.509 409.109Z" fill="#159771"/>
<path d="M243.884 413.916C245.138 414.077 246.356 413.306 246.605 412.193C246.854 411.08 246.039 410.047 244.785 409.886C243.53 409.724 242.312 410.495 242.063 411.608C241.814 412.721 242.629 413.755 243.884 413.916Z" fill="#159771"/>
<path d="M277.258 418.724C278.512 418.885 279.73 418.114 279.979 417.001C280.228 415.888 279.413 414.855 278.159 414.693C276.904 414.532 275.686 415.303 275.437 416.416C275.188 417.529 276.003 418.562 277.258 418.724Z" fill="#159771"/>
<path d="M310.628 423.531C311.882 423.693 313.1 422.921 313.349 421.808C313.598 420.695 312.783 419.662 311.529 419.501C310.275 419.339 309.056 420.111 308.807 421.224C308.559 422.337 309.374 423.37 310.628 423.531Z" fill="#159771"/>
<path d="M344 428.338C345.254 428.5 346.472 427.728 346.721 426.615C346.97 425.502 346.155 424.469 344.901 424.308C343.647 424.146 342.428 424.918 342.179 426.031C341.931 427.144 342.746 428.177 344 428.338Z" fill="#159771"/>
<path d="M377.374 433.146C378.628 433.307 379.847 432.536 380.095 431.423C380.344 430.31 379.529 429.277 378.275 429.115C377.021 428.954 375.802 429.725 375.553 430.838C375.305 431.951 376.12 432.984 377.374 433.146Z" fill="#159771"/>
<path d="M410.748 437.953C412.002 438.114 413.221 437.343 413.469 436.23C413.718 435.117 412.903 434.084 411.649 433.922C410.395 433.761 409.176 434.532 408.927 435.645C408.679 436.758 409.494 437.791 410.748 437.953Z" fill="#159771"/>
<path d="M444.119 442.76C445.373 442.922 446.592 442.151 446.84 441.038C447.089 439.925 446.274 438.892 445.02 438.73C443.766 438.569 442.547 439.34 442.299 440.453C442.05 441.566 442.865 442.599 444.119 442.76Z" fill="#159771"/>
</g>
<defs>
<filter id="filter0_f_4073_709" x="0.407227" y="0.352783" width="528.187" height="450.429" filterUnits="userSpaceOnUse" color-interpolation-filters="sRGB">
<feFlood flood-opacity="0" result="BackgroundImageFix"/>
<feBlend mode="normal" in="SourceGraphic" in2="BackgroundImageFix" result="shape"/>
<feGaussianBlur stdDeviation="4" result="effect1_foregroundBlur_4073_709"/>
</filter>
</defs>
</svg>
