<svg width="388" height="57" viewBox="0 0 388 57" fill="none" xmlns="http://www.w3.org/2000/svg">
<mask id="mask0_2092_1010" style="mask-type:luminance" maskUnits="userSpaceOnUse" x="0" y="0" width="57" height="57">
<path d="M0 0H57V57H0V0Z" fill="white"/>
</mask>
<g mask="url(#mask0_2092_1010)">
<path d="M28.5 57C44.2401 57 57 44.2401 57 28.5C57 12.7599 44.2401 0 28.5 0C12.7599 0 0 12.7599 0 28.5C0 44.2401 12.7599 57 28.5 57Z" fill="#FF5226"/>
<path d="M33.117 46.4551V15.9411H29.5374C26.9572 15.9411 25.0002 16.4883 23.6702 17.5846C22.3402 18.641 21.6752 20.0489 21.6752 21.8102C21.6752 23.1402 21.9089 24.2745 22.3782 25.2131C22.8475 26.1517 23.5334 27.0124 24.4321 27.7952C25.3327 28.5779 26.467 29.4387 27.8369 30.3773L31.2398 32.6649L21.2648 46.457H13.7522L23.2598 33.5465L27.7191 37.5365L24.1984 35.3059C22.428 34.1559 20.7417 32.8816 19.152 31.4926C17.7422 30.2386 16.6668 28.8706 15.9239 27.3848C15.181 25.8971 14.8086 24.1566 14.8086 22.1616C14.8086 18.7189 16.0417 15.9411 18.506 13.8283C21.0102 11.6775 24.6677 10.6021 29.4785 10.6021H40.0995V46.4551H33.117Z" fill="white"/>
</g>
<path d="M90.3545 57C74.632 57 61.8545 44.2719 61.8545 28.5513C61.8545 12.8288 74.632 0 90.3545 0C106.075 0 118.854 12.8288 118.854 28.5513C118.854 44.2719 106.075 57 90.3545 57Z" fill="#FF5226"/>
<path d="M85.9408 3.85706L54.1462 53.4661H68.7211L87.0884 24.8711L86.64 24.6678L81.548 45.1308L92.3286 47.0308L103.409 33.1038L102.809 32.8055L99.066 48.6249L122.556 44.1485L117.764 36.2559L109.298 38.1939L110.297 39.3434L114.239 22.8229L105.055 16.6821L93.0278 31.8061L93.6263 32.1063L98.5663 12.2893L85.9408 3.85706Z" fill="#FFDD00"/>
<path d="M85.9408 3.85706L54.1462 53.4661H68.7211L87.0884 24.8711L86.64 24.6678L81.548 45.1308L92.3286 47.0308L103.409 33.1038L102.809 32.8055L99.066 48.6249L108.509 46.8256L114.239 22.8229L105.055 16.6821L93.0278 31.8061L93.6263 32.1063L98.5663 12.2893L85.9408 3.85706Z" fill="#FFDD00"/>
<path d="M129.779 46.455L147.501 10.602H160.996L163.755 32.4311L177.428 10.6001H190.807V46.455H177.722V27.208L165.574 46.455H152.488L149.967 27.0313L140.342 46.455H129.779ZM231.004 39.3547C231.004 40.5688 231.025 41.762 231.063 42.9343C231.103 44.1085 231.181 45.2618 231.298 46.3961H219.15C218.861 45.8327 218.626 45.2437 218.447 44.6367C218.207 43.8332 218.05 43.0076 217.977 42.1724C216.725 43.6582 215.141 44.8894 213.224 45.8679C211.346 46.8084 208.666 47.2777 205.185 47.2777C201.664 47.2777 198.846 46.455 196.734 44.8134C194.661 43.1699 193.625 40.9792 193.625 38.2394C193.625 35.6972 194.347 33.7421 195.795 32.3722C197.283 30.9643 199.589 29.9858 202.72 29.4386C205.85 28.8496 209.859 28.557 214.749 28.557H217.801V27.911C217.801 26.6608 217.273 25.7013 216.216 25.0363C215.16 24.3713 213.184 24.0388 210.29 24.0388C207.434 24.0388 204.774 24.4112 202.308 25.1541C199.884 25.8571 197.908 26.562 196.382 27.2669V19.4028C198.103 18.7758 200.412 18.1507 203.308 17.5256C206.241 16.8606 209.585 16.5281 213.341 16.5281C217.136 16.5281 220.343 16.8796 222.965 17.5845C225.587 18.2495 227.582 19.4028 228.95 21.0463C230.32 22.6499 231.004 24.8805 231.004 27.7362V39.3547ZM234.994 17.4097H247.142L247.846 22.3953C249.333 20.4402 251.112 19.0133 253.186 18.1127C255.259 17.2121 257.646 16.7637 260.346 16.7637C263.397 16.7637 266.135 17.3109 268.561 18.4053C270.934 19.4557 272.937 21.1937 274.311 23.3947C275.72 25.6234 276.423 28.4411 276.423 31.844C276.423 35.2469 275.72 38.0836 274.311 40.3522C272.943 42.5828 271.026 44.2662 268.561 45.3986C266.095 46.5348 263.279 47.101 260.11 47.101C257.841 47.1154 255.591 46.6969 253.479 45.8679C251.444 45.0091 249.685 43.6582 248.199 41.8209V54.0265H234.994V17.4078V17.4097ZM314.684 31.844C314.684 28.9484 315.466 26.3663 317.032 24.0977C318.636 21.8291 320.904 20.0507 323.838 18.7587C326.811 17.4287 330.313 16.7637 334.343 16.7637C338.529 16.7637 342.03 17.4857 344.846 18.9335C347.702 20.3813 349.697 22.4352 350.831 25.0952C352.005 27.7552 352.161 30.9054 351.301 34.5439H328.122C328.592 36.2254 329.629 37.4965 331.233 38.3572C332.876 39.1799 335.301 39.5903 338.508 39.5903C340.738 39.5903 342.811 39.3946 344.728 39.0013C346.532 38.6028 348.315 38.1139 350.069 37.5364V44.5189C348.386 45.3017 346.509 45.9268 344.436 46.3961C342.401 46.8654 339.722 47.101 336.397 47.101C329.08 47.101 323.623 45.752 320.025 43.0521C316.464 40.3142 314.684 36.5788 314.684 31.844ZM352.416 17.4078H385.924V24.9204H375.478V46.3961H362.275V24.9204H352.416V17.4078ZM278.947 17.4078H292.15V30.552L304.65 17.4078H316.035L304.414 29.4956L318.44 46.3961H302.478L292.15 33.6034V46.3961H278.947V17.4078ZM334.402 23.3358C332.601 23.3358 331.174 23.864 330.117 24.9204C329.061 25.9369 328.377 27.2479 328.063 28.8515H339.682C339.644 27.2479 339.213 25.9369 338.392 24.9185C337.569 23.864 336.239 23.3358 334.402 23.3358ZM262.928 31.844C262.928 29.4956 262.282 27.6374 260.99 26.2694C259.74 24.8615 257.938 24.1566 255.592 24.1566C253.441 24.1566 251.64 24.8216 250.194 26.1516C248.746 27.4436 248.022 29.3398 248.022 31.844C248.022 34.3482 248.725 36.2843 250.135 37.6542C251.583 38.9842 253.401 39.6492 255.592 39.6492C258.018 39.6492 259.836 38.9443 261.049 37.5364C262.301 36.1285 262.928 34.2304 262.928 31.844ZM217.801 33.896H214.808C211.953 33.896 209.899 34.1335 208.647 34.6028C207.434 35.0721 206.828 35.9708 206.828 37.3008C206.828 38.4351 207.22 39.2768 208.001 39.824C208.823 40.3332 209.8 40.5878 210.936 40.5878C212.657 40.5878 214.065 40.2743 215.16 39.6492C216.294 38.9842 217.176 38.2204 217.801 37.3597V33.896Z" fill="black"/>
</svg>
