<svg width="14" height="14" viewBox="0 0 14 14" fill="none" xmlns="http://www.w3.org/2000/svg">
<path fill-rule="evenodd" clip-rule="evenodd" d="M0.583333 3.49992C0.662212 3.49992 1.75001 3.49992 1.75001 3.49992C1.75001 3.49992 1.75381 3.59116 1.76478 3.65259C1.77725 3.72241 1.79989 3.80923 1.84045 3.90657C1.9231 4.10496 2.07351 4.33075 2.33351 4.53876C2.84548 4.94833 3.72934 5.24992 5.25 5.24992H7.7112L8.5862 8.74992H8.16667C7.20014 8.74992 6.41667 9.53339 6.41667 10.4999V11.6666C6.41667 12.6331 7.20014 13.4166 8.16667 13.4166H12.25C13.2165 13.4166 14 12.6331 14 11.6666V10.1723C14 9.43038 13.4319 8.82108 12.7069 8.75569L11.8305 5.24992H12.25C13.2165 5.24992 14 4.46641 14 3.49992V2.33325C14 1.36676 13.2165 0.583252 12.25 0.583252H5.25C3.72934 0.583252 2.84548 0.884835 2.33351 1.29441C2.07351 1.50242 1.9231 1.72821 1.84045 1.9266C1.79989 2.02394 1.77725 2.11076 1.76478 2.18058C1.75571 2.23136 1.75228 2.28184 1.75001 2.33325H0.583333C0.261167 2.33325 0 2.59442 0 2.91658C0 3.23875 0.261167 3.49992 0.583333 3.49992ZM2.91667 3.45614L2.91737 3.45785C2.92585 3.47821 2.95774 3.54408 3.06232 3.62774C3.24637 3.77498 3.68699 3.99978 4.66667 4.06495V1.76822C3.68699 1.83339 3.24637 2.05819 3.06232 2.20543C2.95774 2.28909 2.92585 2.35496 2.91737 2.37532L2.91667 2.37703V3.45614ZM5.83333 1.74992V4.08325H7.7112C8.24658 4.08325 8.71319 4.4476 8.84304 4.96696L9.71804 8.46694C9.90214 9.20328 9.34523 9.91658 8.5862 9.91658H8.16667C7.84449 9.91658 7.58333 10.1777 7.58333 10.4999V11.6666C7.58333 11.9888 7.84449 12.2499 8.16667 12.2499H12.25C12.5722 12.2499 12.8333 11.9888 12.8333 11.6666V10.1723C12.8333 10.0311 12.7188 9.91658 12.5776 9.91658C12.1174 9.91658 11.7163 9.60339 11.6047 9.15697L10.6986 5.53288C10.5145 4.79654 11.0714 4.08325 11.8305 4.08325H12.25C12.5722 4.08325 12.8333 3.82208 12.8333 3.49992V2.33325C12.8333 2.01109 12.5722 1.74992 12.25 1.74992H5.83333Z" fill="#159771"/>
</svg>
