<svg width="87" height="72" viewBox="0 0 87 72" fill="none" xmlns="http://www.w3.org/2000/svg">
<ellipse cx="43.5" cy="66.5" rx="43.5" ry="5.5" fill="#D0D0D0"/>
<path d="M56.3496 50.3125H69.4746V61.7627H56.3496V50.3125Z" fill="#A4A9AD"/>
<path d="M57.5664 54.0244H63.1924V56.7314H57.5664V54.0244ZM63.8418 57.627H69.4678V60.334H63.8418V57.627ZM56.3496 50.3125H69.4746V53.3887H56.3496V50.3125Z" fill="black"/>
<path d="M70.6367 49.2393C70.6367 48.8838 70.3428 48.5898 69.9873 48.5898H55.8301C55.4746 48.5898 55.1807 48.8838 55.1807 49.2393V51.3926C55.1807 51.748 55.4746 52.042 55.8301 52.042H69.9873C70.3428 52.042 70.6367 51.748 70.6367 51.3926V49.2393Z" fill="#29CB9C"/>
<path d="M61.4902 5.6123C60.0342 5.6123 58.7217 6.21387 57.7852 7.18457C56.9922 6.68555 56.0488 6.3916 55.0371 6.3916C52.1934 6.3916 49.8828 8.69531 49.8828 11.5459V11.6143C46.9434 12.0654 44.6875 14.6016 44.6875 17.6709C44.6875 21.0547 47.4287 23.7959 50.8125 23.7959C54.1963 23.7959 56.9375 21.0547 56.9375 17.6709C56.9375 17.2266 56.8897 16.8027 56.8008 16.3857C57.5391 16.1123 58.2022 15.6816 58.7354 15.1211C59.5283 15.6201 60.4717 15.9141 61.4834 15.9141C64.3272 15.9141 66.6377 13.6104 66.6377 10.7598C66.6377 7.91602 64.334 5.6123 61.4902 5.6123Z" fill="#D1D3D3"/>
<path d="M57.0059 17.6641H44.6328L41.9121 61.7627H59.7197L57.0059 17.6641Z" fill="#333E48"/>
<path d="M57.416 24.418H44.2158L44.0928 26.3662H57.5391L57.416 24.418ZM57.6621 28.3691H43.9697L43.8467 30.3174H57.7783L57.6621 28.3691Z" fill="#29CB9C"/>
<path d="M19.9824 37.3789H53.54V61.7627H19.9824V37.3789Z" fill="#A4A9AD"/>
<path d="M47.9141 52.8555H53.54V55.5625H47.9141V52.8555ZM19.9688 49.5742H25.5947V52.2812H19.9688V49.5742ZM39.0957 39.3887H44.7217V42.0957H39.0957V39.3887ZM26.9414 37.3789H32.5674V40.0859H26.9414V37.3789ZM24.7949 56.7314H30.4209V59.4385H24.7949V56.7314ZM50.2109 45.4111C50.2109 44.7002 49.6299 44.1123 48.9121 44.1123H24.6104C23.8994 44.1123 23.3115 44.6934 23.3115 45.4111V47.7969C23.3115 48.5078 23.8926 49.0957 24.6104 49.0957H48.9121C49.623 49.0957 50.2109 48.5147 50.2109 47.7969V45.4111Z" fill="black"/>
<path d="M50.2109 43.3945C50.2109 42.6836 49.6299 42.0957 48.9121 42.0957H24.6104C23.8994 42.0957 23.3115 42.6768 23.3115 43.3945V45.7803C23.3115 46.4912 23.8926 47.0791 24.6104 47.0791H48.9121C49.623 47.0791 50.2109 46.498 50.2109 45.7803V43.3945Z" fill="white"/>
<path d="M48.9121 42.0957H24.6104C23.8994 42.0957 23.3115 42.6768 23.3115 43.3945V45.0488C23.3115 44.3379 23.8926 43.75 24.6104 43.75H48.9121C49.623 43.75 50.2109 44.3311 50.2109 45.0488V43.3945C50.2109 42.6836 49.6299 42.0957 48.9121 42.0957Z" fill="black"/>
<path d="M19.9824 32.3066V37.3789H25.5742L20.4951 32.2998C20.29 32.0947 19.9824 31.9854 19.9824 32.3066ZM25.5742 32.3066V37.3789H31.166L26.0869 32.2998C25.8887 32.0947 25.5742 31.9854 25.5742 32.3066ZM31.1729 32.3066V37.3789H36.7646L31.6855 32.2998C31.4805 32.0947 31.1729 31.9854 31.1729 32.3066Z" fill="#D1D3D3"/>
<path d="M36.7646 32.3066V37.3789H42.3564L37.2773 32.2998C37.0723 32.0947 36.7646 31.9854 36.7646 32.3066ZM42.3564 32.3066V37.3789H47.9482L42.8691 32.2998C42.6641 32.0947 42.3564 31.9854 42.3564 32.3066ZM47.9482 32.3066V37.3789H53.54L48.4609 32.2998C48.2627 32.0947 47.9482 31.9854 47.9482 32.3066ZM28.9854 51.7002H44.5508V61.7627H28.9854V51.7002Z" fill="#D1D3D3"/>
<path d="M28.9854 53.7783H44.5508V55.7266H28.9854V53.7783ZM28.9854 57.4766H44.5508V59.4248H28.9854V57.4766Z" fill="black"/>
<path d="M28.7803 42.0957H30.7285V47.0791H28.7803V42.0957ZM35.7871 42.0957H37.7354V47.0791H35.7871V42.0957ZM42.8008 42.0957H44.749V47.0791H42.8008V42.0957Z" fill="#A4A9AD"/>
<path d="M24.6104 43.0732C24.4326 43.0732 24.2891 43.2236 24.2891 43.3945V45.7803C24.2891 45.958 24.4395 46.1016 24.6104 46.1016H48.9121C49.0898 46.1016 49.2334 45.9512 49.2334 45.7803V43.3945C49.2334 43.2168 49.083 43.0732 48.9121 43.0732H24.6104ZM48.9121 48.0566H24.6104C23.3594 48.0566 22.3408 47.0381 22.3408 45.7871V43.4014C22.3408 42.1504 23.3594 41.1318 24.6104 41.1318H48.9121C50.1631 41.1318 51.1816 42.1504 51.1816 43.4014V45.7871C51.1885 47.0381 50.1699 48.0566 48.9121 48.0566Z" fill="#29CB9C"/>
<path d="M76.4814 63.7998C76.4814 64.0869 76.2422 64.3262 75.9551 64.3262H16.1406C15.8535 64.3262 15.6143 64.0869 15.6143 63.7998V61.9199C15.6143 61.6328 15.8535 61.3936 16.1406 61.3936H75.9619C76.249 61.3936 76.4883 61.6328 76.4883 61.9199V63.7998H76.4814Z" fill="#333E48"/>
</svg>
