<svg width="87" height="59" viewBox="0 0 87 59" fill="none" xmlns="http://www.w3.org/2000/svg">
<ellipse cx="43.5" cy="53.4121" rx="43.5" ry="4.83108" fill="#AFAEAE" style="fill:#AFAEAE;fill:color(display-p3 0.6848 0.6808 0.6808);fill-opacity:1;"/>
<ellipse cx="43.5" cy="53.4121" rx="43.5" ry="4.83108" fill="#AFAEAE" style="fill:#AFAEAE;fill:color(display-p3 0.6848 0.6808 0.6808);fill-opacity:1;"/>
<g clip-path="url(#clip0_4002_9)">
<g filter="url(#filter0_d_4002_9)">
<path d="M16.53 50.0001L50.41 1.14005H59.65L25.77 50.0001H16.53ZM20.1 28.0201C15.9933 28.0201 12.8667 26.8534 10.72 24.5201C8.57333 22.1868 7.5 18.7334 7.5 14.1601C7.5 9.58672 8.57333 6.13338 10.72 3.80005C12.8667 1.46671 15.9933 0.300049 20.1 0.300049C24.2067 0.300049 27.3333 1.46671 29.48 3.80005C31.6267 6.13338 32.7 9.58672 32.7 14.1601C32.7 18.7334 31.6267 22.1868 29.48 24.5201C27.3333 26.8534 24.2067 28.0201 20.1 28.0201ZM20.1 22.0001C21.3133 22.0001 22.2233 21.5334 22.83 20.6001C23.4367 19.6201 23.74 18.0801 23.74 15.9801V12.3401C23.74 10.2401 23.4367 8.72338 22.83 7.79005C22.2233 6.81005 21.3133 6.32005 20.1 6.32005C18.8867 6.32005 17.9767 6.81005 17.37 7.79005C16.7633 8.72338 16.46 10.2401 16.46 12.3401V15.9801C16.46 18.0801 16.7633 19.6201 17.37 20.6001C17.9767 21.5334 18.8867 22.0001 20.1 22.0001ZM56.08 50.8401C51.9733 50.8401 48.8467 49.6734 46.7 47.3401C44.5533 45.0068 43.48 41.5534 43.48 36.9801C43.48 32.4068 44.5533 28.9534 46.7 26.6201C48.8467 24.2868 51.9733 23.1201 56.08 23.1201C60.1867 23.1201 63.3133 24.2868 65.46 26.6201C67.6067 28.9534 68.68 32.4068 68.68 36.9801C68.68 41.5534 67.6067 45.0068 65.46 47.3401C63.3133 49.6734 60.1867 50.8401 56.08 50.8401ZM56.08 44.8201C57.2933 44.8201 58.2033 44.3534 58.81 43.4201C59.4167 42.4401 59.72 40.9001 59.72 38.8001V35.1601C59.72 33.0601 59.4167 31.5434 58.81 30.6101C58.2033 29.6301 57.2933 29.1401 56.08 29.1401C54.8667 29.1401 53.9567 29.6301 53.35 30.6101C52.7433 31.5434 52.44 33.0601 52.44 35.1601V38.8001C52.44 40.9001 52.7433 42.4401 53.35 43.4201C53.9567 44.3534 54.8667 44.8201 56.08 44.8201Z" fill="#159771" style="fill:#159771;fill:color(display-p3 0.0824 0.5922 0.4431);fill-opacity:1;"/>
</g>
</g>
<defs>
<filter id="filter0_d_4002_9" x="7.5" y="0.300049" width="64.1797" height="52.54" filterUnits="userSpaceOnUse" color-interpolation-filters="sRGB">
<feFlood flood-opacity="0" result="BackgroundImageFix"/>
<feColorMatrix in="SourceAlpha" type="matrix" values="0 0 0 0 0 0 0 0 0 0 0 0 0 0 0 0 0 0 127 0" result="hardAlpha"/>
<feOffset dx="3" dy="2"/>
<feComposite in2="hardAlpha" operator="out"/>
<feColorMatrix type="matrix" values="0 0 0 0 0.0586022 0 0 0 0 0.409527 0 0 0 0 0.306949 0 0 0 1 0"/>
<feBlend mode="normal" in2="BackgroundImageFix" result="effect1_dropShadow_4002_9"/>
<feBlend mode="normal" in="SourceGraphic" in2="effect1_dropShadow_4002_9" result="shape"/>
</filter>
<clipPath id="clip0_4002_9">
<rect width="65" height="53" fill="white" style="fill:white;fill-opacity:1;" transform="translate(7)"/>
</clipPath>
</defs>
</svg>
