<svg width="36" height="36" viewBox="0 0 36 36" fill="none" xmlns="http://www.w3.org/2000/svg">
<g clip-path="url(#clip0_2092_2024)">
<path d="M36 0H0V36H36V0Z" fill="#61A8DE"/>
<path d="M26.7806 10.0625L9.40361 16.8312C8.84076 17.0505 8.87486 17.8578 9.45424 18.0288L13.8699 19.3322L15.5179 24.559C15.69 25.105 16.3822 25.2705 16.7829 24.8615L19.0659 22.5314L23.5454 25.8181C24.0936 26.2203 24.8743 25.9215 25.0135 25.2562L27.9803 11.0779C28.1256 10.3835 27.442 9.80484 26.7806 10.0625ZM24.602 13.209L16.5305 20.3435C16.45 20.4147 16.3988 20.5131 16.3869 20.6198L16.0761 23.3811C16.0659 23.4712 15.9399 23.4831 15.913 23.3966L14.6344 19.2785C14.5758 19.0899 14.6522 18.8857 14.82 18.7816L24.3516 12.8726C24.5708 12.7366 24.7953 13.0382 24.602 13.209Z" fill="white"/>
</g>
<defs>
<clipPath id="clip0_2092_2024">
<rect width="36" height="36" rx="5" fill="white"/>
</clipPath>
</defs>
</svg>
