<svg width="36" height="36" viewBox="0 0 36 36" fill="none" xmlns="http://www.w3.org/2000/svg">
<g clip-path="url(#clip0_2092_2028)">
<path d="M36 0H0V36H36V0Z" fill="#44678D"/>
<path d="M11.4831 12.5484C12.1811 14.3485 13.0656 16.0457 14.2306 17.5693C14.3851 17.7721 14.5799 17.9524 14.7851 18.0991C15.0848 18.3141 15.3675 18.2386 15.4894 17.8805C15.6183 17.5047 15.7366 16.7432 15.7436 16.3487C15.7628 15.3176 15.7407 14.642 15.6877 13.6122C15.6533 12.9527 15.4288 12.3736 14.5 12.1988C14.2131 12.1446 14.1865 11.898 14.3707 11.652C14.7544 11.1398 15.2889 11.0582 15.8685 11.0259C16.8078 10.9729 17.7506 11.0161 18.6911 11.0259C19.0742 11.0295 19.4596 11.0618 19.8369 11.1477C20.329 11.2597 20.5925 11.6203 20.6736 12.122C20.7156 12.3808 20.7372 12.6469 20.7313 12.9088C20.7069 14.0342 20.655 15.159 20.6427 16.2838C20.6375 16.7253 20.6683 17.1778 20.7588 17.6077C20.8853 18.2069 21.2759 18.3574 21.6754 17.9244C22.1826 17.3745 22.6299 16.7558 23.0496 16.1273C23.8123 14.9843 24.3819 13.7298 24.8723 12.4364C25.1259 11.769 25.3201 11.624 26.0075 11.6222C27.2996 11.6191 28.5917 11.6179 29.8838 11.6222C30.113 11.6234 30.3526 11.646 30.5689 11.7178C30.9199 11.8348 31.0593 12.1338 30.977 12.5132C30.7852 13.4023 30.3252 14.158 29.8325 14.8846C29.0418 16.0501 28.2133 17.1877 27.404 18.3399C27.3008 18.4866 27.2099 18.6431 27.1253 18.8021C26.8227 19.3733 26.8437 19.6936 27.2851 20.1692C27.9877 20.9261 28.7398 21.6343 29.4203 22.412C29.9147 22.9778 30.3724 23.5916 30.7643 24.2377C31.2599 25.0549 30.9537 25.8247 30.0278 25.9617C29.4454 26.0476 26.6001 25.9623 26.4531 25.9617C25.6881 25.9581 25.0176 25.681 24.4776 25.1384C23.877 24.5343 23.3313 23.8717 22.7546 23.2414C22.5809 23.0514 22.3954 22.8693 22.1955 22.7103C21.7237 22.3346 21.2608 22.418 21.0404 22.9966C20.8521 23.4935 20.6894 24.7985 20.6818 24.91C20.6421 25.4928 20.287 25.8642 19.6619 25.9001C17.8574 26.0025 16.1087 25.7924 14.4796 24.8807C13.0989 24.1086 11.9963 23.0167 11.0413 21.7433C9.52411 19.7208 8.32576 17.4976 7.23169 15.2091C7.17578 15.0921 6.06766 12.6294 6.03788 12.5131C5.9389 12.1236 6.03123 11.7515 6.34633 11.6234C6.54277 11.5436 10.1963 11.6231 10.2571 11.6265C10.84 11.6595 11.2376 11.9164 11.4831 12.5484Z" fill="white"/>
</g>
<defs>
<clipPath id="clip0_2092_2028">
<rect width="36" height="36" rx="5" fill="white"/>
</clipPath>
</defs>
</svg>
