<svg width="37" height="37" viewBox="0 0 37 37" fill="none" xmlns="http://www.w3.org/2000/svg">
<rect width="36" height="36" rx="5" fill="white"/>
<g clip-path="url(#clip0_2092_2015)">
<path fill-rule="evenodd" clip-rule="evenodd" d="M23.0243 21.6925C22.8335 22.2279 21.9177 22.7158 21.4772 22.7817C21.0829 22.8407 20.5834 22.865 20.0342 22.6915C19.7012 22.5852 19.2745 22.4441 18.7288 22.2082C16.4302 21.2162 14.9282 18.9025 14.8137 18.7499C14.6993 18.5972 13.8783 17.5081 13.8783 16.3807C13.8783 15.2534 14.4703 14.6984 14.6808 14.4694C14.89 14.2405 15.1386 14.1827 15.2913 14.1827C15.4439 14.1827 15.5965 14.1838 15.7306 14.1908C15.8717 14.1977 16.0602 14.1376 16.2463 14.5839C16.4371 15.0429 16.895 16.1703 16.9528 16.2847C17.0095 16.3992 17.0476 16.5333 16.9713 16.686C16.895 16.8386 16.8568 16.9346 16.7424 17.0687C16.6279 17.2017 16.5019 17.367 16.399 17.4699C16.2845 17.5832 16.1642 17.7081 16.2984 17.937C16.4325 18.166 16.8915 18.9164 17.5725 19.5234C18.4478 20.3039 19.1867 20.5455 19.4156 20.6612C19.6445 20.7756 19.7787 20.756 19.9116 20.6033C20.0458 20.4507 20.4851 19.935 20.6378 19.7049C20.7904 19.476 20.943 19.5142 21.1535 19.5905C21.3627 19.6668 22.4901 20.2206 22.719 20.3362C22.948 20.4507 23.1006 20.5074 23.1584 20.6033C23.215 20.6993 23.215 21.1572 23.0243 21.6925ZM18.5415 10.7983C14.3374 10.7983 10.9172 14.2162 10.916 18.4169C10.916 19.8564 11.3184 21.2589 12.0815 22.4718L12.263 22.7597L11.493 25.5717L14.3778 24.8156L14.6553 24.9797C15.8255 25.6747 17.1667 26.0423 18.5345 26.0423H18.538C22.7387 26.0423 26.1577 22.6245 26.16 18.4227C26.16 16.3865 25.3691 14.4729 23.9296 13.0322C22.4901 11.5927 20.5765 10.7983 18.5415 10.7983Z" fill="#67D449"/>
<path fill-rule="evenodd" clip-rule="evenodd" d="M18.5382 27.5904H18.5347C16.9992 27.5904 15.4914 27.2054 14.1525 26.4747L9.29047 27.75L10.5924 22.999C9.78997 21.6092 9.36678 20.032 9.36794 18.4156C9.37025 13.3616 13.483 9.25 18.5382 9.25C20.9906 9.25 23.2938 10.2051 25.0247 11.9383C26.7556 13.6703 27.7095 15.9736 27.7084 18.4237C27.7061 23.4777 23.5921 27.5904 18.5382 27.5904ZM0 37H37V0H0V37Z" fill="#67D449"/>
</g>
<defs>
<clipPath id="clip0_2092_2015">
<rect width="37" height="37" rx="5" fill="white"/>
</clipPath>
</defs>
</svg>
