<svg width="240" height="120" viewBox="0 0 240 120" fill="none" xmlns="http://www.w3.org/2000/svg">
<g clip-path="url(#clip0_2092_1021)">
<path fill-rule="evenodd" clip-rule="evenodd" d="M26.85 120H213.15C227.979 120 240 107.979 240 93.15V26.85C240 12.0214 227.979 0 213.15 0H26.85C12.0214 0 0 12.0214 0 26.85V93.15C0 107.979 12.0214 120 26.85 120ZM184.699 92.9978V79.0564H188.625V84.015H191.685C192.911 84.015 194.456 84.3664 195.422 85.4293C196.035 86.0721 196.485 87.0407 196.485 88.425C196.485 90.2614 195.681 91.3886 195.006 91.9671C193.974 92.8671 192.814 92.9957 191.88 92.9957L184.699 92.9978ZM26.8479 92.9978V79.0543H30.7779V87.6536L37.2193 79.0543H41.1471V92.9978H37.2214V84.3986L30.78 92.9978H26.8479ZM48.5657 93H44.6379V79.0564H48.5657V83.985H54.0407V79.0564H57.9686V93H54.0429V87.3321H48.5679V93H48.5657ZM67.6993 78.6021C69.1479 78.6021 70.3393 78.8936 71.4664 79.44H71.4707V83.3014C70.6329 82.53 69.6021 82.0779 68.2479 82.0779C65.64 82.0779 64.32 83.9786 64.32 86.0057C64.32 88.2943 66.0279 89.97 68.3786 89.97C69.2464 89.97 70.4057 89.7129 71.4686 88.7443V92.5779C70.6971 92.9636 69.4736 93.4457 67.8621 93.4457C65.6743 93.4457 63.7393 92.61 62.4836 91.4186C61.4207 90.4221 60.2614 88.6821 60.2614 86.0743C60.2614 83.625 61.26 81.66 62.6764 80.4043C64.3821 78.8936 66.345 78.6021 67.6993 78.6021ZM85.1529 79.0521V82.4036H81.285V93H77.3571V82.4036H73.4936V79.0543H85.1507L85.1529 79.0521ZM95.6164 93.4479C94.6521 93.4479 92.685 93.2871 91.14 91.1957V100.376H87.2121V79.0543H91.14V80.8586C91.7529 79.9886 93.1029 78.6043 95.6807 78.6043C96.9043 78.6043 98.8693 78.8957 100.446 80.4729C101.475 81.5014 102.54 83.2414 102.54 86.0121C102.54 89.1664 101.156 90.8743 100.352 91.6479C99.2871 92.6421 97.6778 93.4479 95.6164 93.4479ZM97.2943 83.0807C96.5871 82.4357 95.5543 82.0821 94.62 82.0821C93.5871 82.0821 92.7836 82.3714 92.0743 83.0186C91.2043 83.76 90.7543 84.7243 90.7543 86.0143C90.7543 87.3 91.2686 88.3629 92.0421 89.04C92.5564 89.49 93.3964 89.9743 94.62 89.9743C95.9057 89.9743 96.7436 89.4579 97.26 88.9757C98.0957 88.2 98.4836 87.0407 98.4836 86.0121C98.4836 84.9836 98.0657 83.8221 97.2943 83.0807ZM108.246 100.374H103.802L108.924 90.9064L102.289 79.0564H106.862L111.178 86.9786L115.041 79.0564H119.486L108.246 100.374ZM122.638 93H118.708L121.247 79.0564H124.146L127.98 87.075L131.814 79.0564H134.713L137.256 93H133.326L132.169 85.4336L128.691 93H127.275L123.797 85.4336L122.638 93ZM146.096 90.36C147.574 90.36 148.704 89.6529 149.346 88.5236L152.955 89.1043C152.537 90.1371 150.958 93.4543 146.096 93.4543C143.839 93.4543 142.131 92.8071 140.747 91.4871C139.204 90.0386 138.559 88.2364 138.559 86.0443C138.559 83.2757 139.686 81.5679 140.685 80.5693C142.326 78.96 144.259 78.6043 145.935 78.6043C148.768 78.6043 150.414 79.7336 151.378 80.8929C152.861 82.6629 153.054 84.8529 153.054 86.3657V86.6871H142.618C142.618 87.525 142.843 88.4271 143.295 89.04C143.713 89.6186 144.581 90.36 146.096 90.36ZM146.031 81.375C144.581 81.375 143.066 82.3071 142.744 84.1757H149.346C149.025 82.2771 147.48 81.375 146.031 81.375ZM159.514 93H155.584V79.0564H159.514V83.985H164.989V79.0564H168.917V93H164.989V87.3321H159.514V93ZM182.636 79.0543V82.4036H178.772V93H174.842V82.4036H170.979V79.0543H182.636ZM188.625 87.105V89.9057H190.461C190.881 89.9057 191.494 89.8757 191.912 89.5543C192.169 89.3593 192.426 88.9736 192.426 88.425C192.426 87.9107 192.169 87.5893 191.912 87.4264C191.492 87.1371 190.911 87.105 190.558 87.105H188.625ZM197.968 92.9978V79.0543H201.896V92.9978H197.968ZM199.734 66.4607C201.51 66.483 203.274 66.1523 204.922 65.4877C206.57 64.8232 208.07 63.838 209.334 62.5893C210.598 61.3407 211.602 59.8534 212.287 58.2138C212.972 56.5742 213.325 54.8148 213.325 53.0378C213.325 51.2609 212.972 49.5016 212.286 47.8621C211.601 46.2226 210.597 44.7355 209.333 43.487C208.068 42.2385 206.568 41.2536 204.92 40.5893C203.272 39.925 201.508 39.5946 199.731 39.6171C196.201 39.6618 192.831 41.0955 190.35 43.6077C187.869 46.1199 186.478 49.5083 186.478 53.0389C186.478 56.5695 187.869 59.9579 190.35 62.4702C192.831 64.9824 196.203 66.4161 199.734 66.4607ZM201.874 60.4736H204.384L210.731 48.4371H208.221L206.04 52.9114L203.604 48.4371H201.021L204.767 55.1271L201.874 60.4736ZM188.31 55.1271C188.31 55.9264 188.931 56.5457 189.731 56.5457C189.918 56.5483 190.103 56.5134 190.277 56.443C190.45 56.3727 190.607 56.2683 190.74 56.136C190.872 56.0038 190.976 55.8463 191.047 55.6731C191.117 55.4998 191.152 55.3141 191.149 55.1271C191.152 54.9401 191.117 54.7545 191.047 54.5812C190.976 54.4079 190.872 54.2505 190.74 54.1183C190.607 53.986 190.45 53.8816 190.277 53.8113C190.103 53.7409 189.918 53.706 189.731 53.7086C189.544 53.706 189.358 53.7409 189.185 53.8113C189.012 53.8816 188.854 53.986 188.722 54.1183C188.59 54.2505 188.485 54.4079 188.415 54.5812C188.344 54.7545 188.307 54.9401 188.31 55.1271ZM194.865 55.2943V60.4736H192.647V48.4371H194.865V49.455C195.212 48.9643 195.975 48.1821 197.43 48.1821C198.12 48.1821 199.23 48.345 200.119 49.2364C200.7 49.815 201.3 50.8007 201.3 52.365C201.3 54.1457 200.518 55.1079 200.064 55.545C199.464 56.1107 198.555 56.5629 197.391 56.5629C196.847 56.5629 195.739 56.4729 194.865 55.2943ZM196.826 50.145C197.355 50.145 197.936 50.3443 198.336 50.7107C198.774 51.1264 199.007 51.7821 199.007 52.3629C199.007 52.9457 198.791 53.5993 198.317 54.0343C197.914 54.4117 197.378 54.6149 196.826 54.6C196.136 54.6 195.662 54.3257 195.373 54.0729C195.136 53.8568 194.948 53.5922 194.822 53.2972C194.697 53.0021 194.636 52.6835 194.644 52.3629C194.644 51.6343 194.901 51.0921 195.392 50.6743C195.782 50.3153 196.296 50.125 196.826 50.145ZM76.2 48.0964V41.1279C74.1664 40.14 72.0214 39.6193 69.4071 39.6214C66.9686 39.6214 63.4286 40.1443 60.3493 42.8743C57.7929 45.1371 55.9929 48.6793 55.9929 53.0936C55.9929 57.795 58.0821 60.9321 59.9979 62.7321C62.2629 64.8793 65.7471 66.3879 69.6964 66.3879C71.9571 66.3852 74.1853 65.8492 76.2 64.8236V57.9129C74.2821 59.6529 72.1929 60.1179 70.6243 60.1179C66.3836 60.1179 63.3064 57.0964 63.3064 52.9757C63.3064 49.3157 65.6871 45.8914 70.3929 45.8914C72.8336 45.8914 74.6914 46.7014 76.2 48.0964ZM49.665 62.4386C52.3371 60.0579 52.9757 56.8629 52.9757 54.6C52.9757 52.5664 52.5129 49.5471 50.1857 47.3421C49.2 46.4143 47.6914 45.3107 45.135 44.9036C46.1807 44.325 49.4914 42.2893 49.4914 37.2964C49.4914 34.0436 48.1564 31.0243 45.8914 29.2821C42.7543 26.8436 38.5714 26.8436 36.4243 26.8436H26.8457V65.5757H39.8529C43.2193 65.5757 46.7593 64.995 49.665 62.4386ZM36.5421 42.9279H34.395V33H36.6021C39.6793 33 42.4093 34.335 42.4093 37.8771C42.4093 42.8121 37.7014 42.9279 36.5421 42.9279ZM42.3493 49.4914C44.79 50.595 45.195 52.6843 45.195 53.9057C45.195 55.4143 44.6743 57.27 42.8143 58.3779C41.1321 59.3636 39.0386 59.4214 37.6457 59.4214H34.395V48.7371H37.1807C38.805 48.7371 40.7229 48.7371 42.3493 49.4914ZM87.1371 54.195H105.951V53.6143C105.951 50.8843 105.604 46.9371 102.934 43.7421C101.192 41.6529 98.2307 39.6193 93.12 39.6193C90.1007 39.6193 86.6164 40.2579 83.655 43.1614C81.855 44.9614 79.8214 48.0386 79.8214 53.0336C79.8214 56.9807 80.9828 60.2336 83.7707 62.8479C86.265 65.2264 89.3421 66.3879 93.4093 66.3879C102.178 66.3879 105.024 60.4093 105.778 58.5493L99.2743 57.5036C98.1129 59.5371 96.0814 60.8143 93.4093 60.8143C90.6793 60.8143 89.1107 59.4793 88.3564 58.4336C87.5421 57.3279 87.1371 55.7036 87.1371 54.195ZM93.2936 44.6121C95.9079 44.6121 98.6936 46.2386 99.2721 49.6629H87.3707C87.9493 46.2964 90.6793 44.6121 93.2936 44.6121Z" fill="#D60000"/>
</g>
<defs>
<clipPath id="clip0_2092_1021">
<rect width="240" height="120" fill="white"/>
</clipPath>
</defs>
</svg>
