<svg width="263" height="57" viewBox="0 0 263 57" fill="none" xmlns="http://www.w3.org/2000/svg">
<g clip-path="url(#clip0_2092_1008)">
<path fill-rule="evenodd" clip-rule="evenodd" d="M31.5758 0.155457C25.6708 -0.461203 19.7181 0.750451 14.5358 3.62387C9.35358 6.4973 5.19625 10.8914 2.63524 16.2023C0.0742376 21.5132 -0.764711 27.48 0.23371 33.2828C1.23213 39.0855 4.01891 44.4393 8.211 48.6081C12.4031 52.777 17.7947 55.5563 23.6447 56.564C29.4948 57.5718 35.5161 56.7585 40.881 54.236C46.2459 51.7135 50.691 47.6056 53.6054 42.4769C56.5198 37.3482 57.7604 31.4505 57.1566 25.5945C56.4923 19.0851 53.5857 13.0015 48.9264 8.36803C44.2671 3.73456 38.1397 0.834248 31.5758 0.155457ZM30.6445 43.5702C27.4686 43.9926 24.239 43.4178 21.4097 41.9265C18.5803 40.4353 16.2934 38.1026 14.8704 35.2563C13.4474 32.41 12.9598 29.1932 13.4761 26.0579C13.9924 22.9227 15.4867 20.0267 17.749 17.7768C20.0113 15.527 22.9278 14.0365 26.0886 13.5149C29.2495 12.9932 32.4957 13.4665 35.3712 14.8684C38.2467 16.2702 40.6068 18.5301 42.1198 21.3304C43.6329 24.1307 44.2228 27.3307 43.8067 30.4805C43.37 33.7936 41.8438 36.8716 39.4644 39.2379C37.085 41.6043 33.985 43.1269 30.6445 43.5702ZM72.5288 1.28267C71.532 1.28504 70.5482 1.50769 69.6491 1.93442C68.75 2.36116 67.9582 2.98124 67.3313 3.74956C66.7043 4.51787 66.2581 5.41508 66.0249 6.37591C65.7918 7.33673 65.7776 8.337 65.9835 9.30393C66.6142 12.4365 69.5655 14.5768 72.7806 14.5768H91.4384L62.4026 52.6708C62.1879 52.952 62.0564 53.287 62.0229 53.6382C61.9894 53.9893 62.0553 54.3428 62.213 54.6589C62.3708 54.9751 62.6143 55.2414 62.9162 55.428C63.2181 55.6147 63.5665 55.7143 63.9222 55.7156H109.468C112.681 55.7156 115.634 53.5758 116.265 50.4427C116.471 49.476 116.457 48.4758 116.224 47.5151C115.991 46.5544 115.545 45.6572 114.918 44.8889C114.292 44.1205 113.5 43.5003 112.601 43.0733C111.702 42.6463 110.719 42.4232 109.722 42.4204H86.9892L116.003 4.35602C116.22 4.07206 116.352 3.73381 116.386 3.37923C116.42 3.02465 116.353 2.66776 116.194 2.3486C116.034 2.02944 115.788 1.76064 115.483 1.57236C115.178 1.38408 114.827 1.28377 114.467 1.28267H72.5288ZM254.526 1.43602C253.018 1.79148 251.677 2.64648 250.726 3.85964C249.775 5.07279 249.27 6.57146 249.294 8.10784V30.2422L213.117 1.70074C212.833 1.47748 212.492 1.33815 212.132 1.29878C211.772 1.25942 211.408 1.32161 211.082 1.47822C210.756 1.63482 210.481 1.87947 210.289 2.18402C210.097 2.48857 209.996 2.84064 209.997 3.19975V48.9023C209.972 50.4387 210.477 51.9374 211.428 53.1506C212.38 54.3638 213.72 55.2188 215.228 55.5741C216.207 55.7877 217.222 55.7807 218.198 55.5535C219.174 55.3263 220.087 54.8848 220.867 54.2615C221.648 53.6382 222.278 52.849 222.711 51.9522C223.143 51.0554 223.367 50.0738 223.365 49.0799V26.754L259.543 55.296C259.827 55.5191 260.168 55.6583 260.528 55.6977C260.888 55.737 261.252 55.6748 261.578 55.5183C261.903 55.3617 262.178 55.1172 262.37 54.8128C262.562 54.5084 262.663 54.1564 262.662 53.7975V7.92813C262.663 6.93442 262.439 5.95315 262.007 5.05665C261.575 4.16016 260.945 3.37131 260.164 2.74826C259.383 2.12522 258.471 1.68387 257.495 1.45676C256.519 1.22964 255.505 1.22256 254.526 1.43602ZM160.329 13.3043C175.631 13.3043 187.065 21.3213 187.065 28.4924C187.065 35.6636 175.631 43.6805 160.329 43.6805C145.027 43.6805 133.594 35.6636 133.594 28.4924C133.594 21.3213 145.027 13.3043 160.329 13.3043ZM160.329 0.0107216C138.18 0.0107216 120.225 12.7625 120.225 28.4924C120.225 44.2223 138.18 56.9741 160.329 56.9741C182.478 56.9741 200.433 44.2223 200.433 28.4924C200.433 12.7625 182.478 0.0107216 160.329 0.0107216Z" fill="#0069FF"/>
</g>
<defs>
<clipPath id="clip0_2092_1008">
<rect width="262.662" height="57" fill="white"/>
</clipPath>
</defs>
</svg>
