<svg width="378" height="57" viewBox="0 0 378 57" fill="none" xmlns="http://www.w3.org/2000/svg">
<path d="M159.365 16.7736C155.056 16.7736 151.2 18.0639 147.949 20.1891V0.379494H138.802V36.8868C138.802 47.968 148.025 56.9241 159.289 56.9241C170.554 56.9241 179.928 48.0439 179.928 36.8109C179.928 25.5779 170.856 16.7736 159.365 16.7736ZM112.039 17.3808C101.909 18.3675 93.5928 26.9441 93.5928 37.1904C93.5928 47.968 103.043 57.0759 114.08 57.0759C125.118 57.0759 134.568 48.0439 134.568 37.1904C134.568 32.5606 132.905 28.3862 130.108 25.0466L109.922 0.455393H98.1288L112.039 17.3808ZM41.5044 39.4674L33.1128 18.2157H26.6868L18.3708 39.4674L9.9792 18.2157H0L14.6664 55.7097H21.0924L29.9376 33.3955L38.7828 55.7097H45.2088L59.7996 18.2157H49.896L41.5044 39.4674ZM204.725 16.8495C193.309 16.8495 184.086 25.502 184.086 36.5073C184.086 47.4367 192.175 57.0759 204.196 57.0759C211.378 57.0759 217.199 53.6605 221.357 47.8921L214.25 42.1997C212.209 45.8429 208.202 47.968 204.271 47.968C199.13 47.968 194.065 44.4008 193.687 39.1638H223.549V36.4314C223.474 24.8948 215.687 16.8495 204.725 16.8495ZM321.149 16.8495C309.733 16.8495 300.586 25.502 300.586 36.9627C300.586 47.7403 308.675 57 320.62 57C327.802 57 333.623 53.5846 337.781 47.8162L331.506 42.5792C329.314 45.9188 325.307 47.8921 320.468 47.8921C315.706 47.8921 310.489 44.3249 310.111 39.0879H339.822V35.976C339.822 24.8948 332.111 16.8495 321.149 16.8495ZM353.052 29.1451C353.052 26.7923 356.303 24.9707 360.536 24.9707C364.77 24.9707 369.457 27.02 372.481 30.3595L378 23.7563C372.708 19.2024 367.416 16.8495 360.763 16.8495C352.447 16.8495 343.904 20.5686 343.904 29.1451C343.904 39.6951 353.203 40.4541 360.763 41.0613C364.997 41.3648 368.777 41.6684 368.777 44.4008C368.777 47.3609 364.468 48.727 360.763 48.727C355.925 48.727 351.313 46.526 348.214 42.8069L342.317 48.9547C347.004 54.5712 353.808 57 360.461 57C368.777 57 377.924 53.1292 377.924 44.249C377.924 34.2304 368.55 33.2437 361.368 32.5606C356.756 32.0293 353.052 31.6498 353.052 29.1451ZM237.308 26.7164V18.2157H228.161V55.6338H237.308V39.771C238.518 30.9667 245.7 27.3995 254.016 27.3995V18.2157H253.109C246.078 18.2157 240.937 20.7204 237.308 26.7164ZM266.263 26.7164V18.2157H257.116V55.6338H266.263V39.771C267.473 29.8282 276.242 27.3995 282.971 27.3995V18.2157H281.988C275.033 18.2157 269.892 20.6445 266.263 26.7164ZM79.8336 55.6338H88.9812V0.455393H79.8336V55.6338ZM114.08 48.0439C107.806 48.0439 102.665 43.1105 102.665 36.9627C102.665 30.8149 107.73 25.8056 114.005 25.8056C120.204 25.8056 125.496 30.739 125.496 36.9627C125.496 43.1864 120.431 48.0439 114.08 48.0439ZM159.365 48.0439C153.166 48.0439 147.949 43.1864 147.949 36.8868C147.949 30.5872 152.863 25.8056 159.365 25.8056C165.866 25.8056 170.856 30.739 170.856 36.8868C170.856 43.0346 165.64 48.0439 159.365 48.0439ZM64.0332 55.6338H73.1808V18.2157H64.0332V55.6338ZM286.826 55.6338H295.974V18.2157H286.826V55.6338ZM68.4936 0C64.7892 0 61.6896 3.03595 61.6896 6.83089C61.6896 10.7017 64.9404 13.3582 68.4936 13.3582C72.4248 13.3582 75.4488 10.0945 75.4488 6.67909C75.4488 3.18775 72.2736 0 68.4936 0ZM291.362 0C287.658 0 284.483 3.03595 284.483 6.83089C284.483 10.6258 287.507 13.3582 291.514 13.3582C295.52 13.3582 298.242 10.7017 298.242 6.98269C298.242 3.26365 295.142 0 291.362 0ZM311.17 31.6498C312.682 27.9308 315.932 25.8056 320.695 25.8056C325.458 25.8056 328.406 28.0826 329.616 31.6498H311.17ZM194.67 31.6498C196.182 27.9308 199.433 25.8056 204.12 25.8056C208.883 25.8056 211.982 28.0826 213.192 31.6498C213.268 31.6498 194.67 31.6498 194.67 31.6498Z" fill="#E313BF"/>
</svg>
