<svg aria-hidden="true" xmlns="http://www.w3.org/2000/svg" xmlns:xlink="http://www.w3.org/1999/xlink"><symbol viewBox="0 0 8 5" fill="none" id="icon-arrow" xmlns="http://www.w3.org/2000/svg">
<path d="M3.64645 4.35355C3.84171 4.54882 4.15829 4.54882 4.35355 4.35355L7.53553 1.17157C7.7308 0.976311 7.7308 0.659728 7.53553 0.464466C7.34027 0.269204 7.02369 0.269204 6.82843 0.464466L4 3.29289L1.17157 0.464466C0.976311 0.269204 0.659728 0.269204 0.464466 0.464466C0.269204 0.659728 0.269204 0.976311 0.464466 1.17157L3.64645 4.35355ZM3.5 3L3.5 4L4.5 4L4.5 3L3.5 3Z" fill="currentColor"/>
</symbol><symbol viewBox="0 0 26 26" fill="none" id="icon-exc" xmlns="http://www.w3.org/2000/svg">
<path fill-rule="evenodd" clip-rule="evenodd" d="M23.375 12.75C23.375 18.618 18.618 23.375 12.75 23.375C6.88197 23.375 2.125 18.618 2.125 12.75C2.125 6.88197 6.88197 2.125 12.75 2.125C18.618 2.125 23.375 6.88197 23.375 12.75ZM25.5 12.75C25.5 19.7917 19.7917 25.5 12.75 25.5C5.70837 25.5 0 19.7917 0 12.75C0 5.70837 5.70837 0 12.75 0C19.7917 0 25.5 5.70837 25.5 12.75ZM11.6875 14.875V7.4375H13.8125V14.875H11.6875ZM11.6875 18.0625V15.9375H13.8125V18.0625H11.6875Z" fill="currentColor"/>
</symbol><symbol viewBox="0 0 30 30" fill="none" id="icon-eye" xmlns="http://www.w3.org/2000/svg">
<path d="M18.7509 15C18.7509 17.0711 17.0721 18.75 15.0009 18.75C12.9299 18.75 11.251 17.0711 11.251 15C11.251 12.9289 12.9299 11.25 15.0009 11.25C17.0721 11.25 18.7509 12.9289 18.7509 15Z" stroke="currentColor" stroke-width="2" stroke-linecap="round" stroke-linejoin="round"/>
<path d="M15.0015 6.25C9.40443 6.25 4.66658 9.9286 3.07373 15C4.66656 20.0714 9.40443 23.75 15.0015 23.75C20.5985 23.75 25.3364 20.0714 26.9293 15C25.3364 9.92864 20.5985 6.25 15.0015 6.25Z" stroke="currentColor" stroke-width="2" stroke-linecap="round" stroke-linejoin="round"/>
</symbol><symbol viewBox="0 0 30 30" fill="none" id="icon-heart" xmlns="http://www.w3.org/2000/svg">
<path d="M9.84375 7.5V9.375C8.55187 9.375 7.5 10.4259 7.5 11.7188H5.625C5.625 9.39281 7.51781 7.5 9.84375 7.5Z" fill="currentColor"/>
<path d="M20.1562 4.6875C18.1725 4.6875 16.3191 5.51344 15 6.94313C13.6809 5.51344 11.8275 4.6875 9.84375 4.6875C5.96625 4.6875 2.8125 7.81219 2.8125 11.7188C2.8125 20.1956 15 25.3125 15 25.3125C15 25.3125 27.1875 20.1956 27.1875 11.7188C27.1875 7.81219 24.0338 4.6875 20.1562 4.6875ZM15 23.2472C12.5419 22.0509 4.6875 17.7544 4.6875 11.7188C4.6875 8.87531 7.00031 6.5625 9.84375 6.5625C11.2969 6.5625 12.6394 7.14937 13.6219 8.21438L14.3109 8.96156H15.6891L16.3781 8.21438C17.3606 7.14937 18.7031 6.5625 20.1562 6.5625C22.9997 6.5625 25.3125 8.87531 25.3125 11.7188C25.3125 17.7544 17.4581 22.0509 15 23.2472Z" fill="currentColor"/>
</symbol><symbol viewBox="0 0 29 31" fill="none" id="icon-play" xmlns="http://www.w3.org/2000/svg">
<path d="M26.0126 19.6036L7.32844 30.4025C4.32093 32.1408 0.625 29.8782 0.625 26.2989V4.70099C0.625 1.12169 4.32093 -1.14076 7.32844 0.597487L26.0126 11.3964C29.1068 13.1851 29.1068 17.8149 26.0126 19.6036Z" fill="currentColor"/>
</symbol><symbol viewBox="0 0 25 25" fill="none" id="icon-search" xmlns="http://www.w3.org/2000/svg">
<path d="M17.3498 17.3697L24 24M20.1667 10.5833C20.1667 15.876 15.876 20.1667 10.5833 20.1667C5.2906 20.1667 1 15.876 1 10.5833C1 5.2906 5.2906 1 10.5833 1C15.876 1 20.1667 5.2906 20.1667 10.5833Z" stroke="currentColor" stroke-width="2" stroke-linecap="round" stroke-linejoin="round"/>
</symbol><symbol viewBox="0 0 24 24" fill="none" id="icon-tel" xmlns="http://www.w3.org/2000/svg">
<path d="M18.4001 20.75H18.1701C15.5789 20.4681 13.0894 19.5846 10.9001 18.17C8.86627 16.8747 7.13947 15.1513 5.84009 13.12C4.42225 10.925 3.53861 8.42823 3.26009 5.83001C3.22825 5.52011 3.25969 5.20696 3.35252 4.90958C3.44534 4.6122 3.59761 4.33677 3.80009 4.10001C3.99703 3.86008 4.24011 3.66211 4.51495 3.51782C4.78978 3.37354 5.09077 3.28587 5.40009 3.26001H8.00009C8.56321 3.26058 9.10756 3.46248 9.53485 3.82925C9.96214 4.19602 10.2442 4.70349 10.3301 5.26001C10.4251 5.97489 10.6029 6.67628 10.8601 7.35001C11.0165 7.77339 11.0488 8.23264 10.9532 8.67375C10.8575 9.11485 10.6379 9.51947 10.3201 9.84001L9.71009 10.45C10.6705 11.9662 11.9588 13.2477 13.4801 14.2L14.0901 13.6C14.4106 13.2822 14.8153 13.0626 15.2564 12.9669C15.6975 12.8713 16.1567 12.9036 16.5801 13.06C17.2546 13.3148 17.9557 13.4926 18.6701 13.59C19.2361 13.6751 19.7516 13.9638 20.1199 14.402C20.4881 14.8403 20.6838 15.3978 20.6701 15.97V18.37C20.6701 18.9942 20.4228 19.593 19.9824 20.0353C19.542 20.4776 18.9443 20.7274 18.3201 20.73L18.4001 20.75ZM8.00009 4.75001H5.61009C5.49274 4.75777 5.37818 4.78924 5.27334 4.84252C5.16849 4.8958 5.07554 4.96979 5.00009 5.06001C4.92667 5.14452 4.87109 5.24302 4.83672 5.34957C4.80235 5.45612 4.78989 5.56852 4.80009 5.68001C5.04258 8.03679 5.83371 10.304 7.11009 12.3C8.28673 14.1467 9.85341 15.7134 11.7001 16.89C13.6974 18.1798 15.9671 18.9878 18.3301 19.25C18.453 19.2569 18.576 19.2383 18.6913 19.1953C18.8066 19.1522 18.9118 19.0857 19.0001 19C19.1593 18.8368 19.249 18.6181 19.2501 18.39V16C19.2546 15.7896 19.1818 15.5848 19.0454 15.4244C18.909 15.2641 18.7185 15.1593 18.5101 15.13C17.684 15.0189 16.8725 14.8177 16.0901 14.53C15.936 14.4724 15.7687 14.4596 15.6076 14.4933C15.4465 14.5269 15.2983 14.6055 15.1801 14.72L14.1801 15.72C14.063 15.8342 13.9121 15.9076 13.75 15.9292C13.5878 15.9508 13.4231 15.9195 13.2801 15.84C11.1463 14.6342 9.38006 12.8715 8.17009 10.74C8.08727 10.598 8.05411 10.4324 8.07584 10.2694C8.09757 10.1065 8.17295 9.95538 8.29009 9.84001L9.29009 8.84001C9.40477 8.72403 9.48366 8.57751 9.51735 8.41793C9.55104 8.25835 9.53811 8.09244 9.48009 7.94001C9.19128 7.15799 8.99006 6.34637 8.88009 5.52001C8.85528 5.30528 8.75142 5.10747 8.58874 4.96513C8.42606 4.82278 8.21622 4.7461 8.00009 4.75001Z" fill="currentColor"/>
</symbol></svg>