<svg width="87" height="72" viewBox="0 0 87 72" fill="none" xmlns="http://www.w3.org/2000/svg">
<ellipse cx="43.5" cy="66.5" rx="43.5" ry="5.5" fill="#D0D0D0"/>
<path d="M38.7132 29.3835C38.7132 29.3835 38.4233 28.5468 37.7944 28.2569C37.171 27.9671 36.1265 27.9233 36.1265 27.9233L34.3765 48.6226L35.7983 58.8382C35.7983 58.8382 36.214 60.0468 37.3022 60.0905C38.3851 60.1343 47.403 60.0905 48.196 60.0905C48.989 60.0905 49.2405 59.046 49.2788 58.5866C49.3226 58.1272 49.3062 57.3561 49.3062 57.3561L53.1562 57.3397C53.1562 57.3397 53.3804 58.9804 53.0085 60.014C52.6858 60.9108 52.396 61.6272 52.4015 61.9335C52.4069 62.371 52.9866 62.8085 53.6538 62.7702C54.321 62.7265 55.3218 61.8515 55.989 61.3101C56.6562 60.7687 67.353 60.8944 67.353 60.8944C67.353 60.8944 67.8671 61.846 68.4413 62.4202C68.7858 62.7647 69.3437 62.9343 69.8468 62.9343C70.3499 62.9343 70.9733 62.2671 70.8476 61.8077C70.7218 61.3483 70.153 60.2929 70.0546 59.2647C70.0108 58.7999 70.0655 57.5038 70.2952 57.2905C70.3499 57.2413 71.1812 57.2687 71.9577 57.1866C73.2812 57.0499 74.6046 55.3382 74.7687 54.0038C74.9382 52.6694 74.8124 48.453 74.8124 48.453L38.7132 29.3835Z" fill="#B3AFAF"/>
<path d="M35.4482 52.5601H74.8396C74.8396 52.5601 74.9326 53.6647 74.7412 54.3757C74.6397 54.7531 74.4671 55.1076 74.2326 55.4202L35.6725 55.4147L35.4482 52.5601Z" fill="#9A9A9A"/>
<path d="M21.6291 50.7718L13.2893 53.353L9.12207 51.9148C9.12207 51.9148 9.26973 44.0726 9.31895 43.2796C9.36816 42.4866 9.56504 41.7921 10.3143 41.2945C11.058 40.7968 13.1416 39.5554 13.1416 39.5554C13.1416 39.5554 19.5455 29.2796 20.0924 28.5359C20.6393 27.7921 21.3119 26.8843 22.9033 26.7366C24.4947 26.589 34.3166 26.7093 35.208 26.7585C36.0994 26.8077 36.7666 27.2124 36.7666 29.1484C36.7666 31.0843 36.7174 45.8609 36.6682 46.6046C36.6189 47.3484 32.8947 50.0773 32.8947 50.0773L21.6291 50.7718Z" fill="#E0E0E0"/>
<path d="M33.7696 60.1727C33.7696 60.1727 34.5681 60.1946 35.1204 60.118C35.6728 60.0415 36.504 59.4891 36.5423 58.1821C36.5642 57.4055 36.6681 46.6047 36.6681 46.6047L21.7931 46.6375L16.9806 51.904L9.12197 51.9149C9.12197 51.9149 9.08916 55.0047 9.11104 55.8305C9.13291 56.6618 13.4095 58.4719 13.4095 58.4719L33.7696 60.1727Z" fill="#29CB9C"/>
<path d="M9.11118 55.8305H18.069C18.069 55.8305 19.9885 52.0023 25.5065 52.068C33.6112 52.1664 33.7752 60.1672 33.7752 60.1672H12.6659C11.4791 60.1672 9.78383 59.7734 9.3518 58.275C8.98539 57.0172 9.11118 55.8305 9.11118 55.8305Z" fill="#0B8461"/>
<path d="M14.5962 41.7046C14.5962 41.7046 14.5962 40.8132 14.0111 40.7804C13.4259 40.7475 12.7806 41.114 12.1954 41.6116C11.5775 42.1366 11.2712 42.6124 11.1509 43.028C10.965 43.646 11.1181 44.1983 12.0751 44.2257C13.2454 44.264 31.8283 44.1436 32.6868 44.0725C33.7642 43.9796 34.4095 43.5202 34.3767 42.7163C34.3493 41.9452 33.7915 41.6991 31.4837 41.6718C29.1759 41.6444 14.5962 41.7046 14.5962 41.7046Z" fill="white"/>
<path d="M9.29707 44.3134C9.29707 44.3134 14.8807 44.1384 15.001 44.2751C15.1705 44.4775 15.2033 47.1134 15.1432 47.5126C15.083 47.9118 14.558 48.1907 13.9127 48.2181C13.2674 48.2454 9.2041 48.311 9.2041 48.311L9.29707 44.3134Z" fill="#FDEDC5"/>
<path d="M32.2875 40.7476C33.1516 40.7476 33.4579 39.7632 33.4579 39.0851V30.5046C33.4579 29.8265 33.0258 29.4601 31.675 29.3945C30.3188 29.3343 24.1391 29.4054 23.461 29.4273C22.4165 29.4601 21.7055 29.9195 20.754 31.2429C20.136 32.1015 16.3243 38.4124 16.018 38.932C15.7118 39.457 15.3399 40.8406 16.9422 40.8679C18.5993 40.9007 32.2875 40.7476 32.2875 40.7476Z" fill="#5F6369"/>
<path d="M17.7354 39.3039H31.5166C31.7955 39.3039 32.0416 38.9976 32.0416 38.6257C32.0416 38.2539 32.0635 32.4461 32.0744 32.1015C32.1072 31.15 31.3963 30.9312 30.7838 30.964C30.1658 30.9968 23.9424 30.975 23.576 30.9914C22.8705 31.0242 22.1705 31.9703 21.558 32.9054C20.8197 34.0375 17.7354 39.3039 17.7354 39.3039Z" fill="#AFE3FB"/>
<path d="M17.9485 40.3211C18.0087 41.7047 20.2235 42.8422 20.7813 42.875C21.3337 42.9078 21.6727 41.8305 21.7329 40.3812C21.793 38.932 21.2133 37.7344 20.7485 37.7344C20.2891 37.7344 17.8993 39.1508 17.9485 40.3211Z" fill="#5F6369"/>
<path d="M18.4297 61.0422C18.4734 63.7766 20.65 67.7086 25.3859 67.736C30.1219 67.7633 32.5828 64.1321 32.4297 60.4079C32.2765 56.6235 29.3398 53.9493 25.1125 54.0696C21.1586 54.1899 18.3695 57.2633 18.4297 61.0422Z" fill="#4E433D"/>
<path d="M21.8148 60.8837C21.8367 62.322 22.9797 64.4001 25.4734 64.4165C27.9672 64.4329 29.1703 62.6282 29.0937 60.6649C29.0117 58.6688 27.4203 57.1813 25.3312 57.2142C23.2531 57.2415 21.7875 58.8876 21.8148 60.8837Z" fill="#C8C8C8"/>
<path d="M54.5234 61.0422C54.5672 63.7766 56.7437 67.7086 61.4797 67.736C66.2156 67.7633 68.6765 64.1321 68.5234 60.4079C68.3703 56.6235 65.4336 53.9493 61.2062 54.0696C57.2523 54.1899 54.4633 57.2633 54.5234 61.0422Z" fill="#4E433D"/>
<path d="M57.9086 60.8837C57.9305 62.322 59.0734 64.4001 61.5672 64.4165C64.0555 64.4329 65.2641 62.6282 65.1875 60.6649C65.1055 58.6688 63.514 57.1813 61.425 57.2142C59.3469 57.2415 57.8812 58.8876 57.9086 60.8837Z" fill="#C8C8C8"/>
<path d="M38.1007 15.6516C38.1007 14.2188 38.7296 13.6445 39.878 13.7047C41.0265 13.7594 72.4991 13.5898 73.5272 13.5898C74.5554 13.5898 74.9601 14.6781 74.9601 15.307C74.9601 15.9359 74.7632 47.8406 74.8069 48.4586C74.8452 49.0766 74.6757 49.9352 73.5874 50.05C72.4991 50.1648 40.2226 50.1047 39.5335 50.05C38.8444 49.9953 37.9858 49.4211 37.9858 48.6172C37.9858 47.8078 38.1007 16.3953 38.1007 15.6516Z" fill="#0B8461"/>
<path d="M40.9665 16.9094C40.9665 17.6532 40.7368 45.5165 40.7368 46.2055C40.7368 46.8946 41.0813 47.6985 42.0001 47.6985C42.9188 47.6985 71.1212 47.7532 71.6954 47.6985C72.2696 47.6438 72.6142 47.2993 72.6688 46.3805C72.7235 45.4618 72.7235 17.4891 72.7235 16.5704C72.7235 15.6516 71.8048 15.5969 70.8313 15.5969C69.8579 15.5969 42.2845 15.6516 41.8798 15.7118C41.4806 15.761 40.9665 16.1657 40.9665 16.9094Z" fill="#29CB9C"/>
<path d="M47.7146 48.6719C47.6818 38.582 47.6107 15.05 47.7255 14.4102L48.5349 14.5578L49.3498 14.6562C49.2732 15.5586 49.3115 35.4867 49.3552 48.6664L47.7146 48.6719Z" fill="#0B8461"/>
<path d="M56.082 14.5032H57.7227V48.7266H56.082V14.5032Z" fill="#0B8461"/>
<path d="M64.3618 14.5305H66.0024V48.5844H64.3618V14.5305Z" fill="#0B8461"/>
</svg>
