<svg width="87" height="72" viewBox="0 0 87 72" fill="none" xmlns="http://www.w3.org/2000/svg">
<ellipse cx="43.5" cy="66.5" rx="43.5" ry="5.5" fill="#D0D0D0"/>
<path d="M23.9375 43.75V67.8125L28.3125 65.625V43.75H23.9375Z" fill="#CCCCCC"/>
<path d="M26.125 43.75H28.3125V48.125H26.125V43.75Z" fill="#E5E5E5"/>
<path d="M26.125 61.25C26.125 61.8302 26.3555 62.3866 26.7657 62.7968C27.1759 63.207 27.7323 63.4375 28.3125 63.4375V56.875H26.125V61.25Z" fill="#E5E5E5"/>
<path d="M25.4316 38.0144L21.75 40.4688V43.75H29.8919" fill="#383838"/>
<path d="M65.5 45.9375H33.7812V50.3125H21.75V54.6875H65.5V45.9375Z" fill="#999999"/>
<path d="M26.125 52.5H65.5V50.3125H23.9375C23.9375 50.8927 24.168 51.4491 24.5782 51.8593C24.9884 52.2695 25.5448 52.5 26.125 52.5Z" fill="#B3B3B3"/>
<path d="M31.5938 45.9375L23.9375 36.0938V14.2188C23.9375 12.9041 24.3036 11.6153 24.9948 10.497C25.686 9.37866 26.675 8.47491 27.8509 7.88703L36.7103 3.45516C38.3791 2.62081 40.2193 2.18679 42.085 2.1875C43.1078 2.18718 44.1263 2.31804 45.1158 2.57688L64.5484 7.64531C65.7607 7.96181 66.8339 8.67139 67.5998 9.66295C68.3657 10.6545 68.7812 11.8721 68.7812 13.125V32.8125L66.5938 37.1875L53.9927 38.9878C53.1779 39.1042 52.4116 39.4452 51.7797 39.9726C51.1478 40.5 50.6753 41.1929 50.415 41.9738C50.2641 42.4258 50.1873 42.8993 50.1875 43.3759V45.9375H31.5938Z" fill="#0B8461"/>
<path d="M66.5938 37.1876L68.7812 32.8126V13.1251C68.7812 11.8721 68.3657 10.6546 67.5998 9.66301C66.8339 8.67145 65.7607 7.96188 64.5484 7.64538L45.1158 2.57585C42.3018 1.84102 39.3168 2.15191 36.7147 3.45085L27.9472 7.83897C27.4713 8.8028 27.2222 9.86268 27.2188 10.9376V27.6719C27.2188 31.646 28.7975 35.4574 31.6076 38.2675C34.4177 41.0776 38.229 42.6563 42.2031 42.6563H50.2455C50.3981 41.7257 50.8437 40.8681 51.5175 40.2083C52.1912 39.5485 53.058 39.121 53.9916 38.9879L66.5938 37.1876Z" fill="#29CB9C"/>
<path d="M64.5484 7.64538L45.1158 2.57585C42.3018 1.84102 39.3168 2.15191 36.7147 3.45085L27.8553 7.88272C26.6779 8.47032 25.6876 9.37449 24.9955 10.4937C24.3035 11.6129 23.9371 12.9029 23.9375 14.2188V22.9688H27.2188L34.875 9.84382H39.25L42.3759 13.1251L64.4062 16.4063H68.7812V13.1251C68.7812 11.8721 68.3657 10.6546 67.5998 9.66301C66.8339 8.67145 65.7607 7.96188 64.5484 7.64538Z" fill="#383838"/>
<path d="M64.5484 7.64538L45.1158 2.57585C42.3018 1.84102 39.3168 2.15191 36.7147 3.45085L29.0781 7.2746C27.8867 8.57276 27.2236 10.2693 27.2188 12.0313V22.9688L34.875 9.84382H39.25L42.3759 13.1251L64.4062 16.4063H68.7812V13.1251C68.7812 11.8721 68.3657 10.6546 67.5998 9.66301C66.8339 8.67145 65.7607 7.96188 64.5484 7.64538Z" fill="#4C4C4C"/>
<path d="M31.5938 45.9375V35H38.1562L43.625 40.4688V45.9375" fill="#383838"/>
<path d="M42.3792 13.125C41.8394 13.125 41.3216 13.3395 40.9399 13.7212C40.5582 14.1029 40.3438 14.6206 40.3438 15.1605V19.6875L44.7188 24.0625H62.2188L64.4062 21.875V16.4063L42.6811 13.148C42.5812 13.1326 42.4803 13.1249 42.3792 13.125Z" fill="#0E976F"/>
<path d="M68.7812 32.8125L74.2489 30.6239L74.25 18.5938L68.7812 16.4062" fill="#0B8461"/>
<path d="M63.3125 27.3438H65.5V35H63.3125V27.3438Z" fill="white"/>
<path d="M58.9375 27.3438H61.125V35H58.9375V27.3438Z" fill="white"/>
<path d="M54.5625 27.3438H56.75V35H54.5625V27.3438Z" fill="white"/>
<path d="M44.6881 17.5C45.4358 17.5001 46.1807 17.5915 46.9062 17.7723L50.1875 18.5938V14.2734L42.6811 13.148C42.5812 13.1326 42.4803 13.1249 42.3792 13.125C41.8394 13.125 41.3216 13.3395 40.9399 13.7212C40.5582 14.1029 40.3438 14.6206 40.3438 15.1605V18.5938L40.6019 18.4647C41.8706 17.8303 43.2696 17.5 44.6881 17.5Z" fill="#383838"/>
<path d="M70.9688 26.5858C70.9692 26.9904 71.0599 27.3899 71.2342 27.7551C71.4085 28.1203 71.662 28.442 71.9763 28.6969C72.2906 28.9518 72.6578 29.1334 73.0511 29.2286C73.4444 29.3237 73.854 29.33 74.25 29.2469V18.5937L70.9688 17.2812V26.5858Z" fill="#29CB9C"/>
<path d="M31.5938 35V38.2441C32.9847 39.6416 34.6379 40.7508 36.4585 41.508C38.2791 42.2651 40.2313 42.6554 42.2031 42.6562H43.625V40.4688L38.1562 35H31.5938Z" fill="#4C4C4C"/>
<path d="M33.7812 45.9375H65.5V50.3125H33.7812V45.9375Z" fill="#CCCCCC"/>
<path d="M38.1562 48.125H65.5V45.9375H35.9688C35.9688 46.5177 36.1992 47.0741 36.6095 47.4843C37.0197 47.8945 37.5761 48.125 38.1562 48.125Z" fill="#E5E5E5"/>
<path d="M21.75 49.2188C21.4599 49.2188 21.1817 49.334 20.9766 49.5391C20.7715 49.7442 20.6563 50.0224 20.6563 50.3125V54.6875C20.6563 54.9776 20.7715 55.2558 20.9766 55.4609C21.1817 55.666 21.4599 55.7813 21.75 55.7813H22.8438V67.8125C22.8427 67.9995 22.8896 68.1835 22.98 68.3472C23.0703 68.5108 23.2011 68.6485 23.3598 68.7473C23.5185 68.846 23.6999 68.9024 23.8866 68.9111C24.0734 68.9198 24.2592 68.8805 24.4264 68.7969L28.8014 66.6094C28.9841 66.5181 29.1375 66.3776 29.2444 66.2036C29.3513 66.0296 29.4074 65.8292 29.4062 65.625V55.7813H65.5C65.7901 55.7813 66.0683 55.666 66.2734 55.4609C66.4785 55.2558 66.5938 54.9776 66.5938 54.6875V45.9375C66.5938 45.6474 66.4785 45.3692 66.2734 45.1641C66.0683 44.959 65.7901 44.8438 65.5 44.8438H51.2812V43.376C51.2814 43.0169 51.339 42.6602 51.4519 42.3194C51.6462 41.73 52.0017 41.2069 52.4783 40.8094C52.9549 40.4119 53.5333 40.156 54.148 40.0707L66.7491 38.2703C66.9241 38.2453 67.0905 38.1782 67.234 38.0748C67.3774 37.9713 67.4936 37.8346 67.5727 37.6764L69.5742 33.6733L74.6558 31.6389C74.8586 31.5579 75.0325 31.4181 75.1551 31.2374C75.2777 31.0567 75.3434 30.8434 75.3438 30.625V18.5938C75.3438 18.375 75.2783 18.1613 75.1557 17.9802C75.033 17.799 74.8589 17.6588 74.6558 17.5777L69.875 15.6658V13.125C69.8747 11.63 69.3787 10.1773 68.4648 8.99426C67.5509 7.81117 66.2705 6.96445 64.8241 6.58659L45.3903 1.51815C42.3189 0.729476 39.0663 1.06987 36.2247 2.47737L27.3653 6.90815C26.0037 7.58238 24.8584 8.62471 24.0591 9.9169C23.2599 11.2091 22.8389 12.6994 22.8438 14.2188V36.0938C22.8438 36.3371 22.9251 36.5734 23.0745 36.7653L23.8456 37.7574L21.143 39.5588C20.9932 39.6587 20.8704 39.794 20.7855 39.9528C20.7006 40.1115 20.6562 40.2888 20.6563 40.4688V43.75C20.6563 44.0401 20.7715 44.3183 20.9766 44.5234C21.1817 44.7285 21.4599 44.8438 21.75 44.8438H22.8438V49.2188H21.75ZM27.2188 64.9491L25.0312 66.0428V55.7813H27.2188V64.9491ZM22.8438 53.5938V51.4063H64.4062V53.5938H22.8438ZM30.7308 46.6091C30.833 46.7405 30.9639 46.8468 31.1134 46.92C31.263 46.9932 31.4273 47.0312 31.5938 47.0313H32.6875V49.2188H29.4062V44.9061L30.7308 46.6091ZM42.5312 44.8438H32.6875V36.0938H37.7034L42.5312 40.9216V44.8438ZM64.4062 49.2188H34.875V47.0313H64.4062V49.2188ZM65.8719 36.1857L53.8406 37.905C52.5239 38.0928 51.3192 38.7492 50.4476 39.7538C49.576 40.7584 49.096 42.0438 49.0959 43.3738V44.8438H44.7188V40.4688C44.7187 40.1787 44.6034 39.9006 44.3983 39.6955L38.9295 34.2267C38.7245 34.0216 38.4463 33.9063 38.1562 33.9063H31.5938C31.3037 33.9063 31.0255 34.0215 30.8204 34.2266C30.6152 34.4317 30.5 34.7099 30.5 35V42.7492L25.0312 35.7186V24.0625H27.2188C27.4104 24.0621 27.5985 24.0114 27.7644 23.9154C27.9302 23.8195 28.0679 23.6816 28.1638 23.5157L35.5028 10.9375H38.7841L40.4739 12.7116C40.0968 12.9996 39.7905 13.3699 39.5784 13.7943C39.3663 14.2188 39.2539 14.686 39.25 15.1605V19.6875C39.2501 19.9776 39.3653 20.2557 39.5705 20.4608L43.9455 24.8358C44.1505 25.0409 44.4287 25.1562 44.7188 25.1563H62.2188C62.5088 25.1562 62.787 25.0409 62.992 24.8358L65.1795 22.6483C65.3847 22.4432 65.4999 22.1651 65.5 21.875V17.5H67.6875V32.5544L65.8719 36.1857ZM50.1875 19.6875C50.4776 19.6875 50.7558 19.5723 50.9609 19.3672C51.166 19.1621 51.2812 18.8839 51.2812 18.5938V15.5433L63.3125 17.348V21.4222L61.7659 22.9688H45.1716L41.4747 19.2719C43.1018 18.5655 44.9155 18.4119 46.6383 18.8344L49.9195 19.6547C50.0072 19.6767 50.0972 19.6877 50.1875 19.6875ZM49.0938 15.2152V17.1927L47.1677 16.7114C45.2731 16.2496 43.2865 16.3334 41.4375 16.9532V15.1605C41.4397 15.0257 41.4704 14.8928 41.5276 14.7707C41.5848 14.6486 41.6672 14.54 41.7694 14.452C41.8715 14.364 41.9912 14.2986 42.1204 14.2601C42.2496 14.2216 42.3855 14.2109 42.5192 14.2286L49.0938 15.2152ZM73.1562 19.3342V29.8835L69.875 31.196V18.0217L73.1562 19.3342ZM28.3398 8.86487L37.1992 4.43409C39.5662 3.26065 42.276 2.9769 44.8347 3.63456L64.2717 8.70409C65.2498 8.95954 66.1156 9.53201 66.7337 10.3319C67.3517 11.1319 67.6872 12.1141 67.6875 13.125V15.3125H64.4872L42.8813 12.0707L40.043 9.09019C39.9408 8.98268 39.8178 8.89708 39.6814 8.83861C39.5451 8.78013 39.3983 8.74999 39.25 8.75003H34.875C34.6834 8.75042 34.4952 8.80114 34.3294 8.89712C34.1635 8.99309 34.0258 9.13096 33.93 9.2969L26.5909 21.875H25.0312V14.2188C25.0276 13.1064 25.3356 12.0152 25.9204 11.069C26.5051 10.1227 27.3433 9.35915 28.3398 8.86487ZM22.8438 41.0539L25.192 39.4844L27.6562 42.6563H22.8438V41.0539ZM25.0312 44.8438H27.2188V49.2188H25.0312V44.8438Z" fill="black"/>
<path d="M63.3125 27.3438H65.5V35H63.3125V27.3438Z" fill="black"/>
<path d="M58.9375 27.3438H61.125V35H58.9375V27.3438Z" fill="black"/>
<path d="M54.5625 27.3438H56.75V35H54.5625V27.3438Z" fill="black"/>
</svg>
